<?xml version="1.0" encoding="UTF-8"?>
<svg width="100pt" height="100pt" version="1.1" viewBox="0 0 100 100" xmlns="http://www.w3.org/2000/svg">
 <path d="m91.797 15.656h-83.594c-1.1914 0-2.1484 0.96875-2.1484 2.1484v54.492c0 1.1914 0.95703 2.1484 2.1484 2.1484h33.047v6.4922h-7.0312c-0.89844 0-1.7461 0.78125-1.7109 1.7109 0.039063 0.92969 0.75 1.7109 1.7109 1.7109h31.641c0.89844 0 1.7461-0.78125 1.7109-1.7109-0.039062-0.92969-0.75-1.7109-1.7109-1.7109h-7.0312v-6.4922h32.969c1.1914 0 2.1484-0.95703 2.1484-2.1484v-54.492c0-1.1953-0.95703-2.1484-2.1484-2.1484zm-76.258 12.605c0.078126-2.0625 1.6992-3.9648 3.7305-4.3672-0.1875-0.91797-0.085937-2.3359 0.85938-2.8047 0.73438-0.35938 1.7188-0.23438 2.207 0.46875 0.42969 0.61719 0.39062 1.4375 0.33203 2.1875 0.96875 0.13672 2.0234-0.22266 2.8906 0.22266 0.57812 0.30469 0.95703 0.95703 0.91797 1.6094-0.039062 0.65625-0.49609 1.2578-1.1016 1.4844-0.37109 0.13672-0.78125 0.13672-1.1719 0.13672h-3.457c-0.83984 0-1.8281 0.29297-1.7383 1.3203 0.019532 0.17578 0.058594 0.33203 0.11719 0.46094-0.007812-0.019531-0.03125-0.046875-0.046875-0.085938 0 0 0 0.007813 0.007813 0.019531 0.019531 0.039063 0.03125 0.070313 0.046874 0.097657l0.007813 0.007812v-0.007812c0.33203 0.64453 1.2188 0.69531 1.9336 0.66406 0.46094-0.019531 0.92969-0.007812 1.3867 0.058594 0.27344 0.039063 0.54687 0.097656 0.8125 0.1875 1.9414 0.625 3.3281 2.6641 3.1953 4.707-0.13672 2.0391-1.7891 3.8789-3.7891 4.2383 0.078124 0.83984 0.125 1.7695-0.39844 2.4297-0.63281 0.80078-2.0508 0.76172-2.6484-0.070313-0.44922-0.63281-0.41016-1.4766-0.34375-2.2461-0.95703-0.10938-1.9922 0.21484-2.8438-0.24219-0.53906-0.29297-0.87891-0.89062-0.86719-1.5039 0.007813-0.60547 0.38281-1.2031 0.91797-1.4766 0.48828-0.24219 1.0547-0.25391 1.6016-0.24219 0.9375 0.019531 1.875 0.039063 2.8203 0.039063h-0.03125 0.35156 0.03125-0.078125c0.03125 0 0.070313 0.007812 0.097656 0.007812h0.019532c0.078125 0.019531 0.14844 0.039062 0.22266 0.070312-0.007812 0-0.019531-0.007812-0.03125-0.007812-0.019531-0.007812-0.046875-0.019531-0.070312-0.019531-0.019532-0.007813-0.03125-0.007813-0.046876-0.007813-0.007812 0-0.007812 0-0.019531-0.007812-0.007812 0-0.019531-0.007813-0.03125-0.007813-0.007812 0-0.019531 0-0.03125-0.007812h-0.019531c-0.007812 0-0.019531 0-0.03125-0.007813h-0.007812-0.007813-0.019531 0.085937c0.046875 0.007813 0.097657 0.019532 0.15625 0.019532h0.007813c0.53906 0.046874 1.0938-0.1875 1.375-0.64453 0.25391-0.42188 0.21484-0.98438-0.070313-1.3672 0.019531 0.019531 0.039063 0.039062 0.058594 0.058593-0.03125-0.039062-0.14844-0.24219-0.078125-0.085937 0 0.007813 0.007812 0.019531 0.007812 0.03125-0.078124-0.097656-0.16406-0.1875-0.26562-0.25391-0.39063-0.25391-0.89063-0.23438-1.3594-0.22266-0.75 0.019532-1.5156 0-2.2344-0.20312-1.9648-0.54688-3.4375-2.5664-3.3594-4.6367zm15.289 38.371h-14.051v-4.9219h14.055v4.9219zm12.07 0v-13.254h14.055v13.25zm16.645-20.598c-0.64453 0.51562-1.2969 0.625-2.0703 0.26562-0.53906-0.25391-1.0742-0.50781-1.6211-0.75-3.543-1.6484-7.0781-3.3008-10.625-4.9609-0.91016 0.51562-1.8047 1.0234-2.7148 1.543l-15.281 8.6797c-3.2031 1.8164-6.3984 3.6328-9.6016 5.4492-0.82812 0.46875-1.8359 0.17578-2.3359-0.61719-0.49609-0.77344-0.16406-1.8945 0.61719-2.3359 0.039063-0.019532 0.070313-0.039063 0.097656-0.058594 2.207-1.3203 4.4727-2.5391 6.7109-3.8086 3.8984-2.207 7.7812-4.4219 11.68-6.6328 2.9609-1.6797 5.9062-3.3594 8.8672-5.0391 0.28125-0.16406 0.57812-0.33203 0.85938-0.48828 0.046875-0.03125 0.097656-0.058594 0.14844-0.078125 0.625-0.3125 1.2031-0.24219 1.8047 0.03125 1.2891 0.58594 2.5703 1.2031 3.8477 1.7969 2.7266 1.2695 5.4492 2.5391 8.1641 3.8086 0.60547-0.48828 1.2188-0.96875 1.8281-1.4531 4.082-3.2422 8.1641-6.4766 12.246-9.7188 1.5742-1.25 3.1523-2.5 4.7266-3.75-0.58594-0.070313-1.1719-0.14844-1.7695-0.21484-0.95703-0.11719-1.6602-0.69531-1.7109-1.7109-0.039062-0.83984 0.82031-1.8164 1.7109-1.7109 2 0.24219 3.9922 0.49609 5.9961 0.74219 0.046874 0.007812 0.097656 0.007812 0.14844 0.019531 0.49609 0.097656 0.98438 0.34375 1.2812 0.73438 0.17578 0.27344 0.27344 0.625 0.28125 0.97656 0 0.078125-0.007813 0.16406-0.007813 0.24219-0.10937 1.9141-0.20312 3.8203-0.3125 5.7344-0.046874 0.95703-0.74219 1.6719-1.7109 1.7109-0.89062 0.039063-1.7578-0.8125-1.7109-1.7109 0.039062-0.77344 0.085937-1.543 0.125-2.3125-3.9766 3.1523-7.9492 6.3086-11.934 9.4609-2.5703 2.0664-5.1602 4.1133-7.7344 6.1562zm23.758 20.598h-14.062v-20.41l14.062-0.003906z"/>
</svg>
