<?xml version="1.0" encoding="UTF-8"?>
<svg width="100pt" height="100pt" version="1.1" viewBox="0 0 100 100" xmlns="http://www.w3.org/2000/svg">
 <g>
  <path d="m87.5 40.301c-4 0-7.3008 3.3008-7.3008 7.3008 0 1.6016 0.5 3 1.3984 4.1992l-15.297 16.5c-1.1016-0.69922-2.3984-1-3.8008-1-2.1016 0-4 0.89844-5.3984 2.3008l-12.801-7.6992c0.30078-0.69922 0.39844-1.6016 0.39844-2.3984 0-4-3.3008-7.3008-7.3008-7.3008s-7.3008 3.3008-7.3008 7.3008c0 0.80078 0.10156 1.6016 0.39844 2.3984l-12.801 7.6992c-1.3008-1.3984-3.1992-2.3008-5.3984-2.3008-4 0-7.3008 3.3008-7.3008 7.3008s3.3008 7.3008 7.3008 7.3008 7.3008-3.3008 7.3008-7.3008c0-0.80078-0.10156-1.6016-0.39844-2.3984l12.801-7.6992c1.3008 1.3984 3.1992 2.3008 5.3984 2.3008 2.1992 0 4-0.89844 5.3984-2.3008l12.801 7.6992c-0.30078 0.69922-0.39844 1.6016-0.39844 2.3984 0 4 3.3008 7.3008 7.3008 7.3008s7.3008-3.3008 7.3008-7.3008c0-1.6016-0.5-3-1.3984-4.1992l15.301-16.5c1.1016 0.69922 2.3984 1 3.8008 1 4 0 7.3008-3.3008 7.3008-7.3008-0.003907-4-3.3047-7.3008-7.3047-7.3008z"/>
  <path d="m59.102 37.301v-17.199c-9.3008 0.10156-16.898 7.6016-16.898 17 0 9.3984 7.6016 17 17 17 9.3008 0 16.898-7.5 17-16.898l-17.102-0.003906z"/>
  <path d="m61.398 33.5v1.5h1.5z"/>
  <path d="m61.398 31.5v1.3008l2.2031 2.1992h1.2969z"/>
  <path d="m61.398 29.5v1.3008l4.2031 4.1992h1.2969z"/>
  <path d="m61.398 27.5v1.3008l6.2031 6.1992h1.2969z"/>
  <path d="m61.398 25.5v1.3008l8.2031 8.1992h1.2969z"/>
  <path d="m61.398 23.5v1.3008l10.203 10.199h1.2969z"/>
  <path d="m61.398 21.5v1.3008l12.203 12.199h1.2969z"/>
  <path d="m61.398 19.5v1.3008l14.203 14.199h1.2969z"/>
  <path d="m62.102 18.199h-0.69922v0.60156l16.199 16.199h0.60156v-0.69922z"/>
  <path d="m64.301 18.398c-0.5-0.10156-1-0.19922-1.5-0.19922l15.301 15.301c0-0.5-0.10156-1-0.19922-1.5z"/>
  <path d="m76.699 28.102c-1.6992-3.6992-4.6992-6.6992-8.3984-8.3984z"/>
  <path d="m67.102 19.199c-0.60156-0.19922-1.1992-0.39844-1.8984-0.60156l12.5 12.5c-0.19922-0.60156-0.39844-1.3008-0.60156-1.8984z"/>
 </g>
</svg>
