<?xml version="1.0" encoding="UTF-8"?>
<svg fill="#FFFFFF" width="100pt" height="100pt" version="1.1" viewBox="0 0 100 100" xmlns="http://www.w3.org/2000/svg">
 <g>
  <path d="m6.1992 17h2v64.199h-2z"/>
  <path d="m33.898 17h2v57.199h-2z"/>
  <path d="m30.199 17h2v57.199h-2z"/>
  <path d="m9.3008 17h1v64.199h-1z"/>
  <path d="m13 17h3v57.199h-3z"/>
  <path d="m39.102 17h3v57.199h-3z"/>
  <path d="m19.102 17h2v57.199h-2z"/>
  <path d="m26.102 17h2v57.199h-2z"/>
  <path d="m23.699 17h1v57.199h-1z"/>
  <path d="m11.5 17h1v64.199h-1z"/>
  <path d="m36.898 17h1v57.199h-1z"/>
  <path d="m43.199 17h1v57.199h-1z"/>
  <path d="m45.199 17h2v57.199h-2z"/>
  <path d="m48.398 17h1v64.602h-1z"/>
  <path d="m50.699 17h1v64.602h-1z"/>
  <path d="m60.602 17h1v57.199h-1z"/>
  <path d="m55.602 17h1v57.199h-1z"/>
  <path d="m63.102 17h1v57.199h-1z"/>
  <path d="m64.301 17h1v57.199h-1z"/>
  <path d="m52.5 17h2v57.199h-2z"/>
  <path d="m57.699 17h2v57.199h-2z"/>
  <path d="m67 17h2v57.199h-2z"/>
  <path d="m70.898 17h3v57.199h-3z"/>
  <path d="m78 17h2v57.199h-2z"/>
  <path d="m83 17h2v57.199h-2z"/>
  <path d="m86.398 17h2v64.801h-2z"/>
  <path d="m76.199 17h1v57.199h-1z"/>
  <path d="m17.5 17h1v57.199h-1z"/>
  <path d="m90.102 17h1v64.801h-1z"/>
  <path d="m92.102 17h2v64.801h-2z"/>
 </g>
</svg>
