<?xml version="1.0" encoding="utf-8"?>
<svg width="100pt" height="100pt" version="1.1" viewBox="0 0 100 100" xmlns="http://www.w3.org/2000/svg">
  <path d="M 47.62 57.592 C 51.926 60.772 60.016 64.966 70.937 64.579 C 70.937 64.579 64.98 58.189 55.802 55.616 C 70.551 55.719 81.634 46.631 81.634 46.631 C 70.058 44.52 60.651 46.865 54.434 49.482 C 70 38.012 74.966 19.217 74.966 19.217 C 63.548 25.468 56.236 33.879 51.712 40.946 C 52.91 30.542 52.595 16.569 47.104 0.919 C 47.104 0.919 38.993 18.749 41.625 40.354 C 37.076 33.414 29.852 25.294 18.754 19.215 C 18.754 19.215 23.513 37.232 38.323 48.752 C 32.152 46.463 23.447 44.718 12.962 46.631 C 12.962 46.631 23.725 55.455 38.154 55.613 C 28.969 58.184 23.011 64.579 23.011 64.579 C 34.041 64.971 41.989 60.659 46.149 57.646 C 46.149 57.646 45.301 65.894 47.773 71.181 L 48.921 70.947 C 48.921 70.947 46.541 63.26 47.62 57.589 Z" fill-rule="evenodd" style="fill: rgb(255, 255, 255);"/>
  <g transform="matrix(0.549193, 0, 0, 0.353924, 19.300415, 68.51786)">
    <path d="m80.391 67.656h1.9609v3.3516h-1.9609z" style="fill: rgb(255, 255, 255);"/>
    <path d="m80.391 29.012h1.9609v34.391h-1.9609z" style="fill: rgb(255, 255, 255);"/>
    <path d="m72.688 67.656h1.9609v3.3516h-1.9609z" style="fill: rgb(255, 255, 255);"/>
    <path d="m72.688 29.012h1.9609v34.391h-1.9609z" style="fill: rgb(255, 255, 255);"/>
    <path d="m83.059 28.988h3.9219v42.02h-3.9219z" style="fill: rgb(255, 255, 255);"/>
    <path d="m89.215 14.012h-78.43c-5.9531 0.007812-10.773 4.832-10.785 10.781v50.414c0.011719 5.9492 4.832 10.773 10.785 10.781h78.43c5.9531-0.007812 10.773-4.832 10.785-10.781v-50.414c-0.011719-5.9492-4.832-10.773-10.785-10.781zm8.8242 61.195c0 4.8711-3.9492 8.8242-8.8242 8.8242h-78.43c-4.875 0-8.8242-3.9531-8.8242-8.8242v-50.414c0-4.8711 3.9492-8.8242 8.8242-8.8242h78.43c4.875 0 8.8242 3.9531 8.8242 8.8242z" style="fill: rgb(255, 255, 255);"/>
    <path d="m13.02 28.988h3.9219v42.02h-3.9219z" style="fill: rgb(255, 255, 255);"/>
    <path d="m19.609 67.656h1.9609v3.3516h-1.9609z" style="fill: rgb(255, 255, 255);"/>
    <path d="m23.531 67.656h1.9609v3.3516h-1.9609z" style="fill: rgb(255, 255, 255);"/>
    <path d="m19.609 29.012h1.9609v34.391h-1.9609z" style="fill: rgb(255, 255, 255);"/>
    <path d="m22.551 29.012h3.9219v34.391h-3.9219z" style="fill: rgb(255, 255, 255);"/>
    <path d="m65.531 67.656h1.9609v3.3516h-1.9609z" style="fill: rgb(255, 255, 255);"/>
    <path d="m65.531 29.012h1.9609v34.391h-1.9609z" style="fill: rgb(255, 255, 255);"/>
    <path d="m59.391 67.656h1.9609v3.3516h-1.9609z" style="fill: rgb(255, 255, 255);"/>
    <path d="m59.391 29.012h1.9609v34.391h-1.9609z" style="fill: rgb(255, 255, 255);"/>
    <path d="m29.137 29.012h1.9609v34.391h-1.9609z" style="fill: rgb(255, 255, 255);"/>
    <path d="m29.137 67.656h1.9609v3.3516h-1.9609z" style="fill: rgb(255, 255, 255);"/>
    <path d="m53.215 29.012h3.9219v34.391h-3.9219z" style="fill: rgb(255, 255, 255);"/>
    <path d="m34.883 67.656h1.9609v3.3516h-1.9609z" style="fill: rgb(255, 255, 255);"/>
    <path d="m34.883 29.012h1.9609v34.391h-1.9609z" style="fill: rgb(255, 255, 255);"/>
    <path d="m42.02 67.656h1.9609v3.3516h-1.9609z" style="fill: rgb(255, 255, 255);"/>
    <path d="m42.02 29.012h1.9609v34.391h-1.9609z" style="fill: rgb(255, 255, 255);"/>
    <path d="m49.02 67.656h1.9609v3.3516h-1.9609z" style="fill: rgb(255, 255, 255);"/>
    <path d="m54.195 67.656h1.9609v3.3516h-1.9609z" style="fill: rgb(255, 255, 255);"/>
    <path d="m49.02 29.012h1.9609v34.391h-1.9609z" style="fill: rgb(255, 255, 255);"/>
  </g>
</svg>