<?xml version="1.0" encoding="utf-8"?>
<svg width="100pt" height="100pt" version="1.1" viewBox="0 0 100 100" xmlns="http://www.w3.org/2000/svg">
  <g transform="matrix(0.424959, 0, 0, 0.183318, 26.280848, 71.496765)">
    <path d="m6.1992 17h2v64.199h-2z" style="fill: rgb(255, 255, 255);"/>
    <path d="m33.898 17h2v57.199h-2z" style="fill: rgb(255, 255, 255);"/>
    <path d="m30.199 17h2v57.199h-2z" style="fill: rgb(255, 255, 255);"/>
    <path d="m9.3008 17h1v64.199h-1z" style="fill: rgb(255, 255, 255);"/>
    <path d="m13 17h3v57.199h-3z" style="fill: rgb(255, 255, 255);"/>
    <path d="m39.102 17h3v57.199h-3z" style="fill: rgb(255, 255, 255);"/>
    <path d="m19.102 17h2v57.199h-2z" style="fill: rgb(255, 255, 255);"/>
    <path d="m26.102 17h2v57.199h-2z" style="fill: rgb(255, 255, 255);"/>
    <path d="m23.699 17h1v57.199h-1z" style="fill: rgb(255, 255, 255);"/>
    <path d="m11.5 17h1v64.199h-1z" style="fill: rgb(255, 255, 255);"/>
    <path d="m36.898 17h1v57.199h-1z" style="fill: rgb(255, 255, 255);"/>
    <path d="m43.199 17h1v57.199h-1z" style="fill: rgb(255, 255, 255);"/>
    <path d="m45.199 17h2v57.199h-2z" style="fill: rgb(255, 255, 255);"/>
    <path d="m48.398 17h1v64.602h-1z" style="fill: rgb(255, 255, 255);"/>
    <path d="m50.699 17h1v64.602h-1z" style="fill: rgb(255, 255, 255);"/>
    <path d="m60.602 17h1v57.199h-1z" style="fill: rgb(255, 255, 255);"/>
    <path d="m55.602 17h1v57.199h-1z" style="fill: rgb(255, 255, 255);"/>
    <path d="m63.102 17h1v57.199h-1z" style="fill: rgb(255, 255, 255);"/>
    <path d="m64.301 17h1v57.199h-1z" style="fill: rgb(255, 255, 255);"/>
    <path d="m52.5 17h2v57.199h-2z" style="fill: rgb(255, 255, 255);"/>
    <path d="m57.699 17h2v57.199h-2z" style="fill: rgb(255, 255, 255);"/>
    <path d="m67 17h2v57.199h-2z" style="fill: rgb(255, 255, 255);"/>
    <path d="m70.898 17h3v57.199h-3z" style="fill: rgb(255, 255, 255);"/>
    <path d="m78 17h2v57.199h-2z" style="fill: rgb(255, 255, 255);"/>
    <path d="m83 17h2v57.199h-2z" style="fill: rgb(255, 255, 255);"/>
    <path d="m86.398 17h2v64.801h-2z" style="fill: rgb(255, 255, 255);"/>
    <path d="m76.199 17h1v57.199h-1z" style="fill: rgb(255, 255, 255);"/>
    <path d="m17.5 17h1v57.199h-1z" style="fill: rgb(255, 255, 255);"/>
    <path d="m90.102 17h1v64.801h-1z" style="fill: rgb(255, 255, 255);"/>
    <path d="m92.102 17h2v64.801h-2z" style="fill: rgb(255, 255, 255);"/>
  </g>
  <path d="M 48.22 55.503 C 51.936 58.248 58.917 61.867 68.341 61.533 C 68.341 61.533 63.201 56.019 55.281 53.798 C 68.008 53.887 77.572 46.045 77.572 46.045 C 67.583 44.223 59.465 46.247 54.1 48.505 C 67.533 38.607 71.818 22.388 71.818 22.388 C 61.965 27.782 55.655 35.04 51.751 41.139 C 52.785 32.161 52.513 20.103 47.775 6.598 C 47.775 6.598 40.775 21.984 43.047 40.628 C 39.121 34.639 32.887 27.632 23.31 22.386 C 23.31 22.386 27.417 37.934 40.197 47.875 C 34.872 45.9 27.36 44.394 18.312 46.045 C 18.312 46.045 27.6 53.659 40.051 53.796 C 32.125 56.014 26.984 61.533 26.984 61.533 C 36.502 61.871 43.361 58.15 46.951 55.55 C 46.951 55.55 46.219 62.668 48.352 67.23 L 49.343 67.028 C 49.343 67.028 47.289 60.395 48.22 55.501 Z" fill-rule="evenodd" style="fill: rgb(255, 255, 255);"/>
</svg>