<?xml version="1.0" encoding="UTF-8"?>
<svg fill="#FFFFFF" width="100pt" height="100pt" version="1.1" viewBox="0 0 100 100" xmlns="http://www.w3.org/2000/svg">
 <path d="m81.719 18.27v-2.3398h-2.3398v2.3516h-58.75v-2.3516h-2.3594v2.3516h-15.27v65.801l94-0.003906v-65.809zm0 7.0508v-2c0.92188 0.53125 1.3711 1.6172 1.0977 2.6445-0.27734 1.0273-1.207 1.7422-2.2695 1.7422-1.0664 0-1.9961-0.71484-2.2734-1.7422-0.27344-1.0273 0.17578-2.1133 1.0977-2.6445v2zm-61.102 0v-2h0.003906c0.92188 0.53125 1.3672 1.6172 1.0938 2.6445-0.27344 1.0273-1.207 1.7422-2.2695 1.7422s-1.9961-0.71484-2.2695-1.7422c-0.27734-1.0273 0.17188-2.1133 1.0938-2.6445v2zm-3.5156 56.398h-11.75v-11.719h11.75zm0-12.922l-11.75 0.003906v-11.16h11.75zm0-12.34l-11.75 0.003907v-11.16h11.75zm0-12.34l-11.75 0.003906v-11.742h11.75zm12.898 37.602h-11.73v-11.719h11.73zm0-12.918h-11.73v-11.16h11.73zm0-12.34h-11.73v-11.16h11.73zm0-12.34h-11.73v-11.742h11.73zm13 37.598h-11.801v-11.719h11.801zm0-12.918h-11.801v-11.16h11.801zm0-12.34h-11.801v-11.16h11.801zm0-12.34h-11.801v-11.742h11.801zm12.922 37.602l-11.793-0.003906v-11.719h11.75zm0-12.922h-11.793v-11.16h11.75zm0-12.34h-11.793v-11.16h11.75zm0-12.34h-11.793v-11.742h11.75zm12.879 37.598h-11.75v-11.719h11.75zm0-12.922l-11.75 0.003906v-11.16h11.75zm0-12.34l-11.75 0.003907v-11.16h11.75zm0-12.34l-11.75 0.003906v-11.742h11.75zm12.922 37.602h-11.723v-11.719h11.719zm0-12.922l-11.723 0.003906v-11.16h11.719zm0-12.34l-11.723 0.003907v-11.16h11.719zm0-12.34l-11.723 0.003906v-11.742h11.719zm12.93 37.602h-11.754v-11.719h11.75zm0-12.922l-11.754 0.003906v-11.16h11.75zm0-12.34l-11.754 0.003907v-11.16h11.75zm0-12.34l-11.754 0.003906v-11.742h11.75zm0-14.102l-89.301 0.003906v-9.3984h12.918v1.3789c-1.6211 0.57422-2.5938 2.2305-2.3047 3.9258 0.29297 1.6953 1.7617 2.9336 3.4805 2.9336s3.1875-1.2383 3.4805-2.9336c0.28906-1.6953-0.68359-3.3516-2.3047-3.9258v-1.3711h58.758v1.3711c-1.6211 0.57422-2.5938 2.2305-2.3047 3.9258 0.29297 1.6953 1.7617 2.9336 3.4805 2.9336s3.1875-1.2383 3.4805-2.9336c0.28906-1.6953-0.68359-3.3516-2.3047-3.9258v-1.3711h12.918z"/>
</svg>
