<?xml version="1.0" encoding="UTF-8"?>
<svg fill="#FFFFFF" width="100pt" height="100pt" version="1.1" viewBox="0 0 100 100" xmlns="http://www.w3.org/2000/svg">
 <g>
  <path d="m64.699 55.75c0.78906-0.20312 1.5625-0.46094 2.2773-0.76562 0.71094-0.30469 1.3555-0.64453 1.9023-0.98047 0.54297-0.33984 0.98438-0.67969 1.2852-0.9375 0.15234-0.125 0.26563-0.24609 0.34375-0.31641 0.078126-0.074219 0.12109-0.12109 0.12109-0.12109s-0.058594-0.019531-0.16406-0.050781c-0.10547-0.023437-0.26172-0.074219-0.45312-0.11328-0.39062-0.085938-0.9375-0.17188-1.5781-0.21094-0.64062-0.039062-1.3711-0.027344-2.1406 0.046875s-1.5742 0.21875-2.3633 0.41797c-0.78906 0.19922-1.5625 0.45312-2.2734 0.76172-0.21875 0.09375-0.42969 0.1875-0.63281 0.28516 0.12891-0.10938 0.25781-0.21875 0.38672-0.33594 0.35156-0.31641 0.71484-0.65625 1.0664-1.0234 0.71875-0.73047 1.418-1.5547 2.0703-2.4141 0.64844-0.86328 1.2539-1.7617 1.7578-2.6484 0.50781-0.88672 0.93359-1.7539 1.25-2.5312 0.31641-0.77734 0.53516-1.4609 0.66406-1.9531 0.070312-0.24609 0.10547-0.45312 0.13672-0.58594 0.027343-0.13672 0.035156-0.21484 0.035156-0.21484s-0.070313 0.03125-0.19531 0.097656c-0.12109 0.066406-0.3125 0.15625-0.52734 0.28906-0.44141 0.25781-1.043 0.65234-1.6992 1.168-0.66406 0.51562-1.3789 1.1602-2.0977 1.8867-0.71484 0.73047-1.418 1.5547-2.0742 2.4141-0.65234 0.86328-1.2539 1.7617-1.7656 2.6484-0.21484 0.36719-0.40625 0.73438-0.58984 1.0938 0.16016-0.74219 0.30469-1.5547 0.41016-2.4023 0.15234-1.2227 0.22656-2.5234 0.22656-3.8242-0.003906-1.3047-0.078125-2.6055-0.23438-3.8281-0.14844-1.2227-0.375-2.3594-0.62891-3.3398-0.25391-0.97656-0.53516-1.793-0.76953-2.3594-0.23047-0.57031-0.40625-0.89453-0.40625-0.89453s-0.17969 0.32422-0.40625 0.89453c-0.23047 0.57031-0.51562 1.3828-0.76953 2.3594-0.25391 0.97656-0.48047 2.1172-0.62891 3.3398-0.15234 1.2227-0.23047 2.5234-0.23047 3.8281 0 1.3047 0.074219 2.6055 0.22656 3.8242 0.10547 0.85156 0.24609 1.6602 0.40625 2.4062-0.18359-0.35938-0.37109-0.73047-0.58984-1.0977-0.50781-0.88672-1.1094-1.7852-1.7656-2.6484-0.65625-0.85937-1.3594-1.6836-2.0742-2.4141-0.71875-0.72656-1.4375-1.3711-2.0977-1.8867s-1.2617-0.91016-1.6992-1.168c-0.21875-0.13281-0.40625-0.22266-0.52734-0.28906-0.125-0.066406-0.19531-0.097656-0.19531-0.097656s0.011719 0.078125 0.039062 0.21484c0.03125 0.13672 0.066407 0.34375 0.13672 0.58594 0.12891 0.49609 0.34766 1.1797 0.66406 1.9531 0.31641 0.77734 0.74219 1.6406 1.2461 2.5312 0.50781 0.88672 1.1094 1.7852 1.7617 2.6484 0.65234 0.86328 1.3555 1.6875 2.0703 2.4141 0.35547 0.36719 0.71875 0.70703 1.0703 1.0234 0.13281 0.11719 0.25781 0.22656 0.38672 0.33594-0.20312-0.097656-0.41406-0.19531-0.63281-0.28516-0.71094-0.30469-1.4844-0.55859-2.2773-0.76172-0.78906-0.19922-1.5938-0.34375-2.3633-0.41797-0.76953-0.074219-1.5-0.085937-2.1406-0.046875-0.64063 0.039063-1.1875 0.125-1.5742 0.21094-0.19531 0.039062-0.35156 0.089844-0.45703 0.11328-0.10547 0.027344-0.16406 0.050781-0.16406 0.050781s0.039063 0.046875 0.12109 0.12109c0.078125 0.070312 0.19141 0.19141 0.34766 0.31641 0.30078 0.26172 0.73828 0.59766 1.2812 0.9375s1.1914 0.67969 1.9023 0.98047c0.71094 0.30469 1.4844 0.55859 2.2734 0.76562 0.78906 0.19922 1.5938 0.34766 2.3633 0.41797 0.50391 0.050781 0.98828 0.066406 1.4414 0.066406-0.52734 0.19922-1.0703 0.45703-1.5898 0.75781-0.49219 0.28516-0.96094 0.60937-1.3828 0.94531-0.42188 0.33984-0.78906 0.6875-1.0938 1.0234-0.30078 0.33203-0.53125 0.64062-0.68359 0.87109-0.15234 0.23438-0.22656 0.38672-0.22656 0.38672s0.16797 0.011719 0.44922-0.003906c0.27734-0.019532 0.66016-0.0625 1.0977-0.15625s0.92969-0.23828 1.4297-0.4375c0.50391-0.19531 1.0156-0.44141 1.5078-0.72656 0.98828-0.5625 1.8789-1.2969 2.4766-1.9648 0.30078-0.33203 0.53125-0.64453 0.68359-0.875 0.042969-0.070313 0.082032-0.12891 0.10938-0.17969 0.027343-0.007812 0.054687-0.015625 0.070312-0.019531 0.019531 0.003906 0.042969 0.011719 0.070312 0.019531 0.027344 0.050781 0.066407 0.10938 0.10938 0.17969 0.15234 0.23047 0.38281 0.54297 0.68359 0.875 0.60156 0.66797 1.4883 1.4023 2.4766 1.9648 0.48828 0.28516 1.0078 0.53125 1.5078 0.72656 0.50391 0.19922 0.99219 0.34375 1.4297 0.4375 0.4375 0.097656 0.82031 0.14062 1.0977 0.15625s0.44922 0.003906 0.44922 0.003906-0.074219-0.15234-0.23047-0.38672c-0.15234-0.23047-0.38281-0.53906-0.68359-0.87109-0.30078-0.33203-0.67188-0.68359-1.0938-1.0234-0.42188-0.33594-0.88672-0.66016-1.3828-0.94531-0.51562-0.30078-1.0625-0.55859-1.5859-0.75781 0.45703 0 0.9375-0.019531 1.4414-0.066406 0.78516-0.070313 1.5898-0.21875 2.3789-0.41797z"/>
  <path d="m58.043 68.629c1.6289 0 3.2109-0.19922 4.7266-0.5625l-1.8281-1.875-0.65234-0.67969c-0.73437 0.097656-1.4844 0.15234-2.2461 0.15234-9.4688 0-17.168-7.6992-17.168-17.168 0-9.4648 7.6992-17.168 17.168-17.168 9.4648 0 17.168 7.6992 17.168 17.168 0 2.3867-0.49219 4.6602-1.375 6.7305 0.5-0.47266 1.0156-0.94141 1.5156-1.3945l1.1367-1.0039 1.4453-1.207c0.16016-1.0195 0.24219-2.0625 0.24219-3.1211 0-11.102-9.0312-20.133-20.133-20.133-11.102 0-20.137 9.0312-20.137 20.133 0.003906 11.098 9.0352 20.129 20.137 20.129z"/>
  <path d="m96.02 41.508c-0.91406 0.29688-1.7773 0.64453-2.6211 1.0156-0.84375 0.36719-1.6641 0.76172-2.4648 1.168-0.40625 0.19922-0.79688 0.41406-1.1914 0.62891-0.39453 0.21484-0.78906 0.42188-1.1719 0.64844l-1.1484 0.66797c-0.38281 0.22656-0.75 0.46484-1.1211 0.69531-0.75391 0.45703-1.4766 0.94922-2.1992 1.4375-0.73437 0.47656-1.4219 1.0039-2.1289 1.5078-0.71484 0.49609-1.3789 1.0469-2.0664 1.5703-0.69141 0.51953-1.3438 1.082-2.0039 1.6328l-0.99219 0.82422-0.96875 0.85156c-0.63672 0.57422-1.2734 1.1484-1.8945 1.7422-0.62891 0.58594-1.2344 1.1914-1.8477 1.7891-0.60156 0.61328-1.207 1.2188-1.7891 1.8438-0.59375 0.61719-1.168 1.2578-1.7422 1.8945l-0.85156 0.96875-0.82812 0.98828c-0.29688 0.35938-0.59766 0.71484-0.89453 1.0742l-0.43359-0.26953c-0.55078-0.35547-1.1367-0.66797-1.7031-1.0039-0.56641-0.33594-1.168-0.63672-1.7539-0.95703-0.28906-0.16016-0.60156-0.30469-0.89844-0.45312-0.30469-0.14844-0.59766-0.30469-0.91016-0.44531l-0.92578-0.42969-0.94922-0.40625-0.97266-0.38281c-0.32812-0.12109-0.66406-0.23828-1.0078-0.34766l-0.44922 0.44922 5.3008 5.5352 5.3516 5.4844 0.40234 0.41016 0.41406-0.41016 7.3086-7.2383c2.4414-2.4062 4.8359-4.8594 7.2578-7.2891l3.6172-3.6562 3.5898-3.6797c1.1992-1.2266 2.3945-2.4531 3.5781-3.6953l3.5586-3.7148z"/>
  <path d="m70.336 73.426l-1.1758-1.9531-0.10547-0.51953-1.9141 1.8945-3.9219-4.0195-0.25 0.0625c-1.6172 0.39062-3.2734 0.58984-4.9258 0.58984-11.57 0-20.98-9.4102-20.98-20.98 0-2.4688 0.43359-4.8398 1.2188-7.043l-4.8203-4.5078-0.78125-0.097657-0.6875-1.0742 1.3672-1.6641 0.003906-23.871h-1.9531s-0.88281 1.0742-0.88281 1.3672-0.39062 0.87891-0.39062 0.87891l-0.48828-2.25-24.746 0.003907v2.7383s1.2695 1.957 0.48828 5.0859l0.097656 2.543s-2.0547 2.3477-1.9531 2.7383c0.097656 0.39062-0.003906 1.957-0.003906 1.957s0.84375 1.1758 1.0586 1.3711c0.21875 0.19531 3.0547 3.1289 3.2461 3.5195 0.19531 0.39063 0 2.8359 0 2.8359l0.089843 4.0117s3.7266 3.0312 3.9219 3.5195c0.19531 0.48828 1.2695 2.0547 1.3672 2.3477 0.097656 0.29297 0 2.1523 0 2.1523l2.8359 1.3672 0.78125-1.3672 0.98047 0.48828v0.87891s0.19531 0.87891 0.48828 0.98047c0.29297 0.097656 0.68359 0.87891 0.68359 0.87891l-0.58594 0.87891-1.2695-0.58594-0.29688-0.78125-0.68359-0.097656 0.29297 1.8594 0.19531 1.168 1.4688 2.5508s1.6641 0.58594 1.957 0.6875c0.29297 0.097656 1.4688 2.0547 1.4688 2.0547l-1.2695 0.97656-0.097657 2.6406s1.1758 0.87891 1.7617 1.0742c0.58984 0.19531 2.25 2.0547 2.25 2.0547l0.48828 1.9531 2.0547 1.4688s-0.29297 0.97656 0 1.2695c0.29297 0.29297 0.58594 1.2695 0.58594 1.2695h1.8594l-0.48828 3.5195v1.4688h0.48828l0.39063 1.0742h4.0117s1.2734 0.58984 1.7617 0.58984 0.97656-0.48828 1.2695 0c0.29297 0.48828 1.8594 1.1758 1.8594 1.1758l1.1719 1.2695h3.4219s0.78125 1.1758 0.87891 1.4688c0.097656 0.29297 0 1.1758 0 1.1758l1.1719-0.003906h1.0742l1.4688 1.5625 1.0742 1.0742h1.0742l0.58984 1.6602 0.87891 1.6641v2.6016l1.1758 0.71875 16.82-1.5625 0.48828-1.5625v-0.6875l-0.98047-0.097656v-0.68359l-0.097656-1.3398-0.19531-0.71875 1.8594-2.0547-0.48828-2.6406 1.0742-1.5625 1.3672-0.78125-1.3672-1.6602z"/>
 </g>
</svg>
