<?xml version="1.0" encoding="utf-8"?>
<svg width="100pt" height="100pt" version="1.1" viewBox="0 0 100 100" xmlns="http://www.w3.org/2000/svg">
  <g>
    <path d="m76.258 42.074v7.3398c0 1.0156 0.82031 1.8359 1.8359 1.8359h18.219c0.66797 0 1.2812-0.35938 1.6055-0.94141 0.32422-0.58203 0.30469-1.293-0.046875-1.8594l-4.5547-7.3398c-0.33594-0.53906-0.92578-0.86719-1.5586-0.86719h-13.664c-1.0117-0.003907-1.8359 0.81641-1.8359 1.832z" style="fill: rgb(37, 148, 91);"/>
    <path d="m5.8867 39.273h6.7305c1.2656 0 2.293-1.0273 2.293-2.293s-1.0273-2.293-2.293-2.293l-6.7305-0.003906c-1.2695 0-2.293 1.0273-2.293 2.293 0 1.2695 1.0234 2.2969 2.293 2.2969z"/>
    <path d="m2.9023 51.203h0.15234c1.2695 0 2.293-1.0273 2.293-2.293s-1.0273-2.293-2.293-2.293h-0.15234c-1.2656 0-2.293 1.0273-2.293 2.293s1.0273 2.293 2.293 2.293z"/>
    <path d="m11.258 31.32h22.723c0.48047 0.80078 0.88672 2.043 0.050781 3.3633h-13.664c-1.2695 0-2.293 1.0273-2.293 2.293v9.6367l-8.4414 0.003907c-1.2656 0-2.293 1.0273-2.293 2.293s1.0273 2.293 2.293 2.293h17.391c0.37109 0.79297 0.69922 2.0586 0.035156 3.4141h-6.6953c-1.1953 0-2.1445 0.92578-2.2539 2.0938h-12.223c-1.2695 0-2.293 1.0273-2.293 2.293 0 1.2695 1.0273 2.293 2.293 2.293h12.184v9.8555c0 1.2656 1.0273 2.293 2.293 2.293h3.6133c0.30469 5.8438 5.1406 10.508 11.059 10.508 5.918 0 10.758-4.6641 11.059-10.508h19.32l0.003907-48.434c-0.48438-0.94922-1.1133-1.8945-1.9492-2.7539-2.2383-2.3008-5.3203-3.4648-9.1602-3.4648h-33.941c-1.2695 0-2.293 1.0273-2.293 2.293v5.6445h-6.8164c-1.2695 0-2.293 1.0273-2.293 2.293-0.003906 1.2695 1.0234 2.2969 2.293 2.2969zm30.281 41.555c0 3.582-2.918 6.4961-6.5 6.4961-3.582 0-6.4961-2.9141-6.4961-6.4961s2.9141-6.4961 6.4961-6.4961c3.582-0.003906 6.5 2.9141 6.5 6.4961z"/>
    <path d="m73.508 51.711v-11.93c0-1.2656 1.0273-2.293 2.293-2.293h14.945l-3.9961-6.4336c-0.41797-0.67188-1.1562-1.0859-1.9492-1.0859l-16.629-0.003906v43.484h0.125c0.30078 5.8438 5.1445 10.508 11.059 10.508 5.9141 0 10.754-4.6641 11.055-10.508h7.1016c1.2656 0 2.293-1.0273 2.293-2.293l0.003906-17.152h-24.008c-1.2656 0-2.293-1.0273-2.293-2.293zm12.344 21.164c0 3.582-2.9141 6.4961-6.4961 6.4961s-6.5-2.9141-6.5-6.4961 2.9141-6.4961 6.5-6.4961c3.5859-0.003906 6.4961 2.9141 6.4961 6.4961z"/>
  </g>
</svg>