<?xml version="1.0" encoding="utf-8"?>
<svg width="100pt" height="100pt" version="1.1" viewBox="0 0 100 100" xmlns="http://www.w3.org/2000/svg">
  <g>
    <path d="m89.422 24.734c-2.9297 0.21484-6.5273 1.2266-9.375 2.6289-1.3867 0.63672-2.8906 1.5703-4.2266 2.4805 2.4219-2.6016 5.4805-6.0273 6.7617-8.0664 3.2617-4.6211 5.1562-11.547 5.2344-11.84l0.27344-1.0117-0.87891 0.56641c-0.074219 0.050781-7.7422 5.0234-11.812 11.734-0.80469 1.3047-2.0664 4.0742-3.0352 6.2891 0.50391-3.1406 1.1016-7.6367 0.86719-10.016 0.066406-4.1523-2.918-13.602-3.0469-14l-0.35547-1.1211-0.40625 1.1016c-0.027344 0.078125-2.9375 7.9961-3.3438 15.43-0.058594 3.0781 0.55859 7.0625 1.0977 9.8867-1.3398-2.793-3.3438-6.6719-5.0586-8.7695-2.8242-3.457-10.164-8.043-10.477-8.2383l-0.95312-0.59375 0.35547 1.0625c0.019531 0.0625 2.207 6.5 6.9922 13.047 1.3555 1.75 4.2852 4.4258 6.4375 6.3086-3.7656-1.7891-10.289-4.5039-15.176-4.5078h-0.83594l0.51953 0.65625c4.6992 5.9219 12.801 7.2969 16.406 7.6133-1.7344 0.80078-4.2148 2.2148-4.5898 3.9023l-0.10938 0.49219h0.50391c2.1602 0 5.1523-0.4375 7.6055-2.4102v6.543h2.1406v-6.8359c2.9531 2.0586 6.7695 2.2266 7.9375 2.2266 0.39453 0 0.76562-0.015625 1.0781-0.046875l0.79297-0.082032-0.53516-0.59375c-0.17188-0.19141-0.32813-0.37109-0.48047-0.53906-0.84766-0.97266-1.4648-1.6719-3.3398-2.6055-0.59375-0.23047-1.2852-0.41797-1.9336-0.56641 1.9414-0.40234 4.6992-1.1133 6.3555-2.1641 3.2812-1.7773 7.6602-6.0195 8.9219-7.2773l0.76953-0.76953z" style="fill: rgb(28, 149, 89);"/>
    <path d="m69.367 74.961c-4.3281 0-7.8555-3.5195-7.8555-7.8555 0-4.3438 3.5273-7.8672 7.8555-7.8672 4.3516 0 7.8711 3.5195 7.8711 7.8672 0 4.3359-3.5195 7.8555-7.8711 7.8555z"/>
    <path d="m67.645 96.109l0.25391-0.16797h0.015624l9.6914-9.9961c0.40234-0.41406 1.0625-0.42187 1.4727-0.023437 0.41406 0.39844 0.42969 1.0625 0.027344 1.4766l-9 9.2812h21.105s-2.3125-10.434-9.3555-18.062c-1.875-2.2656-6.9062-4.4336-10.371-1.1641-2.8438 2.6758-4.5078 6.9727-5.4805 10.754l-8.8398-8.9453c-1.418-1.4375-3.7305-1.4492-5.1641-0.03125s-1.4453 3.7305-0.03125 5.1641l11.086 11.211c0.71094 0.71484 1.6484 1.082 2.5977 1.082 0.6875 0.007812 1.3789-0.18359 1.9922-0.57812z"/>
    <path d="m22.367 74.961c4.332 0 7.8594-3.5195 7.8594-7.8555 0-4.3438-3.5312-7.8672-7.8594-7.8672-4.3477 0-7.8672 3.5195-7.8672 7.8672 0 4.3359 3.5195 7.8555 7.8672 7.8555z"/>
    <path d="m24.094 96.109l-0.25391-0.16797h-0.011719l-9.6914-9.9961c-0.39844-0.41406-1.0625-0.42187-1.4727-0.023437-0.41797 0.39844-0.42969 1.0625-0.027343 1.4766l9.0039 9.2812-21.109 0.003906s2.3125-10.434 9.3555-18.062c1.875-2.2656 6.9023-4.4336 10.371-1.1641 2.8398 2.6758 4.5078 6.9727 5.4766 10.754l8.8398-8.9453c1.418-1.4375 3.7266-1.4492 5.1602-0.03125s1.4453 3.7305 0.03125 5.1641l-11.078 11.211c-0.71094 0.71484-1.6484 1.082-2.5977 1.082-0.69141 0.003906-1.3828-0.1875-1.9961-0.58203z"/>
    <path d="m42.379 45.875v18.734h7.0977v-11.672h42.625v43.848h7.0938v-50.91z" style="fill: rgb(54, 31, 19);"/>
    <path d="m42.379 70.672h7.0977v26.117h-7.0977z" style="fill: rgb(54, 31, 19);"/>
  </g>
</svg>