<?xml version="1.0" encoding="UTF-8"?>
<svg fill="#FFFFFF" width="100pt" height="100pt" version="1.1" viewBox="0 0 100 100" xmlns="http://www.w3.org/2000/svg">
 <path d="m50 0c-13.262 0-25.98 5.2695-35.355 14.645s-14.645 22.094-14.645 35.355 5.2695 25.98 14.645 35.355 22.094 14.645 35.355 14.645 25.98-5.2695 35.355-14.645 14.645-22.094 14.645-35.355-5.2695-25.98-14.645-35.355-22.094-14.645-35.355-14.645zm-24.891 34.102c0.1875-0.89062 0.58594-1.7188 1.1719-2.4102 0.65625-0.82812 1.6602-1.3086 2.7188-1.3008h8.8203 32.531c2.2305-0.078125 4.1797 1.5 4.5703 3.6992v0.12109c0.19922 1.6484-0.21875 3.3164-1.1719 4.6797-1.0547 1.5859-2.4141 2.9453-4 4-4.6289 3.1094-9.25 6.3398-13.84 9.5703-1.2734 0.98828-2.6484 1.8398-4.1016 2.5391-1.1719 0.55859-2.5352 0.53906-3.6875-0.058594-1.2695-0.67188-2.5-1.418-3.6797-2.2305-3.9336-2.668-7.8477-5.3828-11.738-8.1484l-0.003906-0.003906c-1.8047-1.1094-3.4805-2.4141-5-3.8867-1.1133-1.0938-1.9492-2.4336-2.4375-3.9102-0.26172-0.86328-0.3125-1.7773-0.15234-2.6602zm45.301 35.559h-34.941-5.9297c-1.2109-0.007812-2.3711-0.49609-3.2227-1.3594-0.85156-0.86328-1.3242-2.0273-1.3164-3.2422v-15.141-7c2.0508 2.2695 4.5898 3.6094 6.9102 5.2383 3.9492 2.8008 7.9219 5.5586 11.879 8.3516v0.003907c1.2266 0.85938 2.5742 1.5312 4 2 1.457 0.44922 3.0195 0.42969 4.4609-0.0625 1.543-0.51172 2.9922-1.2656 4.3008-2.2305 5.1406-3.6016 10.32-7.1602 15.461-10.77 1-0.71094 1.9219-1.5391 2.9219-2.3516v3.1602c0 6.2695-0.050782 12.539 0 18.801h-0.003906c-0.035157 2.4961-2.0273 4.5234-4.5195 4.6016z"/>
</svg>
