<?xml version="1.0" encoding="UTF-8"?>
<svg width="100pt" height="100pt" version="1.1" viewBox="0 0 100 100" xmlns="http://www.w3.org/2000/svg">
 <path d="m65.602 46.898l-1.3008 9.3984c-0.10156 0.39844-0.39844 0.69922-0.80078 0.69922h-20.199l0.5 3.6016h19c0.39844 0 0.80078 0.30078 0.80078 0.80078 0 0.39844-0.30078 0.80078-0.80078 0.80078h-19.602c-0.39844 0-0.69922-0.30078-0.80078-0.69922l-0.69922-5.1016-1.3008-9.3008-0.80078-4.3008-4.5-0.30078c-0.39844 0-0.69922-0.39844-0.69922-0.80078 0-0.39844 0.39844-0.69922 0.80078-0.69922l5.1016 0.30078c0.30078 0 0.60156 0.30078 0.69922 0.60156l0.80078 4.3008h23c0.19922 0 0.39844 0.10156 0.60156 0.30078 0.097656 0 0.19922 0.19922 0.19922 0.39844zm-18.402 17.102c-1.3008 0-2.3984 1.1016-2.3984 2.3984 0 1.3008 1.1016 2.3984 2.3984 2.3984 1.3008 0 2.3984-1.1016 2.3984-2.3984-0.097656-1.3984-1.0977-2.3984-2.3984-2.3984zm12.301 0c-1.3008 0-2.3984 1.1016-2.3984 2.3984 0 1.3008 1.1016 2.3984 2.3984 2.3984 1.3008 0 2.3984-1.1016 2.3984-2.3984 0-1.3984-1.0977-2.3984-2.3984-2.3984zm24.5-39.102h-68c-0.5 0-1 0.5-1 1v48.102c0 0.5 0.5 1 1 1h68c0.5 0 1-0.5 1-1v-48.102c0-0.5-0.5-1-1-1zm-50.699 3.8008c0.80078 0 1.3984 0.60156 1.3984 1.3984 0 0.80078-0.60156 1.3984-1.3984 1.3984-0.80078 0-1.3984-0.60156-1.3984-1.3984-0.003906-0.79688 0.59766-1.3984 1.3984-1.3984zm-5.4023 0c0.80078 0 1.3984 0.60156 1.3984 1.3984 0 0.80078-0.60156 1.3984-1.3984 1.3984-0.80078 0-1.3984-0.60156-1.3984-1.3984s0.69922-1.3984 1.3984-1.3984zm-5.2969 0c0.80078 0 1.3984 0.60156 1.3984 1.3984 0 0.80078-0.60156 1.3984-1.3984 1.3984-0.80078 0-1.3984-0.60156-1.3984-1.3984-0.003906-0.79688 0.59766-1.3984 1.3984-1.3984zm60.398 44.402h-66v-37.902h66z"/>
</svg>
