<?xml version="1.0" encoding="utf-8"?>
<svg fill="#FFFFFF" width="100pt" height="100pt" version="1.1" viewBox="0 9.30041217803955 100 81.97530841827393" xmlns="http://www.w3.org/2000/svg">
  <path d="M 71.727 47.695 L 69.9 60.906 C 69.757 61.466 69.339 61.889 68.774 61.889 L 40.384 61.889 L 41.086 66.951 L 67.79 66.951 C 68.351 66.951 68.917 67.374 68.917 68.076 C 68.917 68.635 68.493 69.202 67.79 69.202 L 40.24 69.202 C 39.68 69.202 39.258 68.78 39.115 68.219 L 38.134 61.049 L 36.303 47.975 L 35.178 41.931 L 28.854 41.508 C 28.295 41.508 27.871 40.948 27.871 40.383 C 27.871 39.822 28.432 39.4 28.996 39.4 L 36.167 39.822 C 36.59 39.822 37.012 40.245 37.15 40.67 L 38.275 46.712 L 70.6 46.712 C 70.882 46.712 71.163 46.857 71.447 47.136 C 71.586 47.136 71.727 47.416 71.727 47.695 Z M 45.863 71.733 C 44.035 71.733 42.492 73.283 42.492 75.104 C 42.492 76.932 44.041 78.475 45.863 78.475 C 47.692 78.475 49.235 76.928 49.235 75.104 C 49.095 73.139 47.692 71.733 45.863 71.733 Z M 63.153 71.733 C 61.324 71.733 59.782 73.283 59.782 75.104 C 59.782 76.932 61.329 78.475 63.153 78.475 C 64.981 78.475 66.523 76.928 66.523 75.104 C 66.523 73.139 64.98 71.733 63.153 71.733 Z M 97.587 16.775 L 2.014 16.775 C 1.308 16.775 0.607 17.478 0.607 18.182 L 0.607 85.788 C 0.607 86.492 1.308 87.194 2.014 87.194 L 97.587 87.194 C 98.29 87.194 98.993 86.492 98.993 85.788 L 98.993 18.182 C 98.993 17.478 98.29 16.775 97.587 16.775 Z M 26.328 22.118 C 27.456 22.118 28.296 22.963 28.296 24.081 C 28.296 25.21 27.449 26.048 26.328 26.048 C 25.203 26.048 24.362 25.201 24.362 24.081 C 24.358 22.963 25.205 22.118 26.328 22.118 Z M 18.738 22.118 C 19.862 22.118 20.704 22.963 20.704 24.081 C 20.704 25.21 19.856 26.048 18.738 26.048 C 17.61 26.048 16.771 25.201 16.771 24.081 C 16.771 22.963 17.755 22.118 18.738 22.118 Z M 11.291 22.118 C 12.419 22.118 13.257 22.963 13.257 24.081 C 13.257 25.21 12.413 26.048 11.291 26.048 C 10.166 26.048 9.326 25.201 9.326 24.081 C 9.321 22.963 10.166 22.118 11.291 22.118 Z M 96.181 84.525 L 3.418 84.525 L 3.418 31.252 L 96.181 31.252 Z"/>
</svg>