<?xml version="1.0" encoding="utf-8"?>
<svg width="100pt" height="100pt" version="1.1" viewBox="0 0 100 100" xmlns="http://www.w3.org/2000/svg">
  <path d="M 38.168 41.989 C -0.082 40.872 10.793 25.427 0 7.059 C 24.992 3.903 48.398 9.868 42.477 39.692 C 46.153 49.118 50.508 54.766 52.13 73.653 C 50.602 73.36 49.075 73.473 47.505 73.786 C 47.075 53.181 40.731 43.005 38.169 41.989 L 38.168 41.989 Z M 57.691 74.032 C 55.984 73.54 54.34 73.473 52.453 73.606 C 62.066 39.981 74.461 25.692 94.723 12.657 C 76.825 22.368 70.137 28.559 60.871 42.989 C 55.867 8.423 78.48 15.544 99.805 7.419 C 91.977 27.302 99.453 57.208 68.164 46.435 C 63.844 51.006 57.984 64.037 57.691 74.033 L 57.691 74.032 Z" fill-rule="evenodd" style="fill: rgb(28, 149, 89);"/>
  <path style="fill: rgb(216, 216, 216); stroke: rgb(0, 0, 0);" d="M 120.229 76.336"/>
  <path style="fill: rgb(216, 216, 216); stroke: rgb(0, 0, 0);" d="M 46.29 79.194"/>
  <path d="M 37.623 83.835 C 27.365 84.023 23.143 86.566 19.615 94.757 L 87.803 94.757 C 89.241 85.98 78.369 81.362 72.748 91.066 C 69.861 72.472 39.65 72.859 37.623 83.835 L 37.623 83.835 Z" fill-rule="evenodd" style="fill: rgb(54, 31, 19);"/>
</svg>