<?xml version="1.0" encoding="UTF-8"?>
<svg width="100pt" height="100pt" version="1.1" viewBox="0 0 100 100" xmlns="http://www.w3.org/2000/svg">
 <g>
  <path d="m68.305 60.543c-0.59375-0.13281-1.4336-0.26562-2.4102-0.32031-0.98047-0.0625-2.1016-0.039062-3.2773 0.066406-1.1758 0.10938-2.4062 0.33594-3.6133 0.63672-1.207 0.30859-2.3945 0.69922-3.4805 1.1602-0.33594 0.14453-0.65234 0.28906-0.96875 0.44141 0.19531-0.16797 0.39453-0.33594 0.59375-0.51562 0.53516-0.48828 1.0898-1.0078 1.6367-1.5664 1.0977-1.1172 2.1719-2.3789 3.1719-3.6953 0.99219-1.3203 1.9141-2.6992 2.6914-4.0586 0.77344-1.3555 1.4258-2.6836 1.9062-3.8711 0.48828-1.1875 0.82031-2.2344 1.0195-2.9922 0.10547-0.375 0.15625-0.69141 0.20703-0.89453 0.042969-0.21094 0.058594-0.32812 0.058594-0.32812s-0.10938 0.046875-0.30078 0.14453c-0.18359 0.10156-0.47266 0.24219-0.80859 0.44141-0.67578 0.39453-1.5938 0.99609-2.6055 1.7891-1.0117 0.78906-2.1094 1.7734-3.2109 2.8867-1.0977 1.1172-2.1719 2.375-3.1758 3.6914-0.99609 1.3164-1.9219 2.6953-2.6992 4.0508-0.32812 0.56641-0.62109 1.1289-0.89844 1.6758 0.24609-1.1406 0.46875-2.3711 0.625-3.6758 0.23438-1.8672 0.34766-3.8594 0.34766-5.8555-0.007812-1.9922-0.11719-3.9844-0.35547-5.8555-0.23047-1.8672-0.57422-3.6133-0.96484-5.1055-0.38672-1.4961-0.82031-2.7422-1.1758-3.6133-0.35156-0.87109-0.62109-1.3711-0.62109-1.3711s-0.27344 0.49609-0.625 1.3711c-0.35547 0.87109-0.78906 2.1172-1.1758 3.6133-0.38672 1.4922-0.73437 3.2383-0.96484 5.1055-0.23438 1.8672-0.35156 3.8594-0.35547 5.8555 0 1.9922 0.11328 3.9844 0.34766 5.8555 0.16016 1.3047 0.37891 2.5352 0.625 3.6797-0.27734-0.55078-0.57031-1.1094-0.89844-1.6797-0.77734-1.3555-1.6992-2.7305-2.6992-4.0508-1.0039-1.3164-2.0781-2.5742-3.1758-3.6914-1.0977-1.1133-2.1953-2.0977-3.2109-2.8867-1.0078-0.78906-1.9258-1.3945-2.6016-1.7891-0.33594-0.19922-0.62109-0.33984-0.80859-0.44141-0.1875-0.097656-0.30078-0.14453-0.30078-0.14453s0.015625 0.11719 0.058594 0.32812c0.050781 0.20312 0.10547 0.51953 0.20703 0.89453 0.19922 0.75781 0.52734 1.8047 1.0156 2.9922 0.48438 1.1875 1.1367 2.5117 1.9102 3.8711 0.77734 1.3555 1.6992 2.7344 2.6953 4.0586 1 1.3164 2.0742 2.5781 3.168 3.6953 0.54688 0.5625 1.1016 1.0781 1.6367 1.5664 0.19922 0.17969 0.39844 0.34766 0.59375 0.51562-0.3125-0.14844-0.63672-0.30078-0.96875-0.44141-1.0898-0.46484-2.2734-0.85547-3.4805-1.1602-1.2109-0.30469-2.4375-0.52344-3.6133-0.63672-1.1797-0.10937-2.2969-0.13281-3.2773-0.066406-0.98047 0.058594-1.8164 0.1875-2.4102 0.32031-0.29688 0.058593-0.53516 0.13672-0.69531 0.17578-0.16406 0.046875-0.25 0.078125-0.25 0.078125s0.0625 0.070313 0.18359 0.1875c0.12109 0.10938 0.29688 0.29688 0.53125 0.48828 0.46094 0.39844 1.1328 0.91406 1.9648 1.4336s1.8242 1.0391 2.9141 1.5078c1.0859 0.46484 2.2734 0.85547 3.4805 1.1641 1.207 0.30859 2.4375 0.53125 3.6133 0.64453 0.76953 0.070313 1.5117 0.10547 2.207 0.10156-0.80859 0.30859-1.6406 0.69922-2.4297 1.1602-0.75391 0.4375-1.4688 0.93359-2.1133 1.4453-0.64453 0.51562-1.2109 1.0547-1.6719 1.5625-0.46094 0.50781-0.8125 0.98047-1.0469 1.3398-0.23047 0.35547-0.35156 0.58984-0.35156 0.58984s0.26172 0.015625 0.6875-0.007813c0.42578-0.023437 1.0117-0.097656 1.6797-0.24219s1.4219-0.36719 2.1875-0.67188c0.76562-0.30078 1.5547-0.67578 2.3086-1.1094 1.5117-0.86328 2.8711-1.9844 3.7852-3.0078 0.46094-0.50781 0.8125-0.98047 1.0469-1.3398 0.066406-0.10547 0.12109-0.19531 0.17188-0.27344 0.042969-0.015625 0.078125-0.023437 0.10938-0.03125 0.027344 0.011719 0.066406 0.019531 0.10938 0.03125 0.046875 0.078125 0.10156 0.17188 0.17188 0.27344 0.23438 0.35547 0.58594 0.82812 1.0469 1.3398 0.91406 1.0195 2.2734 2.1445 3.7812 3.0078 0.75391 0.4375 1.543 0.8125 2.3125 1.1094 0.76562 0.30469 1.5195 0.52344 2.1875 0.67188 0.67188 0.14453 1.2578 0.21875 1.6836 0.24219 0.42578 0.023438 0.6875 0.007813 0.6875 0.007813s-0.11719-0.23047-0.35156-0.58984c-0.23047-0.35547-0.58594-0.83203-1.0469-1.3398-0.46094-0.51172-1.0234-1.0508-1.668-1.5625-0.64453-0.51563-1.3594-1.0117-2.1133-1.4453-0.78906-0.46484-1.6211-0.85547-2.4297-1.1602 0.69531 0.003906 1.4375-0.027344 2.207-0.10156 1.1758-0.11328 2.4062-0.33984 3.6133-0.64453 1.207-0.3125 2.3945-0.70312 3.4805-1.1641 1.0898-0.46875 2.082-0.98437 2.9102-1.5078 0.83594-0.51953 1.5078-1.0352 1.9688-1.4336 0.23047-0.19141 0.40625-0.37891 0.52734-0.48828 0.12109-0.11328 0.18359-0.1875 0.18359-0.1875s-0.089844-0.03125-0.25-0.078125c-0.16797-0.042969-0.41016-0.12109-0.70703-0.17578z"/>
  <path d="m78.234 11.91c0-4.875-3.9688-8.8438-8.8438-8.8438h-38.785c-4.875 0-8.8398 3.9688-8.8398 8.8438 0 2.3438 0.92188 4.4727 2.418 6.0547-0.019532 0.26562-0.035156 0.51953-0.035156 0.76562v67.672c0 5.8086 4.7266 10.531 10.531 10.531h30.645c5.8086 0 10.531-4.7266 10.531-10.531v-67.672c0-0.24219-0.015625-0.5-0.035157-0.76562 1.4922-1.5859 2.4141-3.7109 2.4141-6.0547zm-47.629-6.9258h38.789c3.8203 0 6.9297 3.1055 6.9297 6.9258 0 1.9023-0.77344 3.6289-2.0195 4.8828l-0.058594 0.058593c-0.050782 0.050782-0.10547 0.09375-0.16016 0.14453-0.12891 0.11719-0.25781 0.23438-0.39453 0.34375-0.039062 0.035156-0.085937 0.0625-0.12891 0.097656-0.13281 0.10156-0.26562 0.19531-0.39844 0.28516-0.058593 0.035156-0.11719 0.070313-0.17578 0.10547-0.12891 0.078125-0.25391 0.15234-0.38672 0.22266-0.070312 0.039063-0.14453 0.070313-0.22266 0.10547-0.12109 0.058594-0.24609 0.11719-0.37109 0.17188-0.089843 0.035156-0.17969 0.066406-0.26562 0.097656-0.11719 0.042969-0.23438 0.085938-0.35547 0.12109-0.10547 0.03125-0.21094 0.054687-0.3125 0.082031-0.10938 0.027344-0.22266 0.058594-0.33594 0.082032-0.12891 0.023437-0.25781 0.039062-0.39062 0.058593-0.09375 0.011719-0.18359 0.03125-0.27344 0.039063-0.22656 0.023437-0.44922 0.035156-0.68359 0.035156l-38.785-0.007812c-0.23047 0-0.45703-0.011719-0.68359-0.035157-0.09375-0.007812-0.18359-0.027343-0.27344-0.039062-0.13281-0.019531-0.26172-0.035157-0.39063-0.058594-0.11328-0.023437-0.22266-0.054687-0.33203-0.082031-0.10547-0.027344-0.21094-0.050782-0.3125-0.082032-0.12109-0.035156-0.23828-0.078124-0.35547-0.12109-0.089843-0.03125-0.17969-0.0625-0.26562-0.097657-0.12891-0.050781-0.25-0.10937-0.37109-0.17187-0.074219-0.035157-0.14844-0.066407-0.22266-0.10547-0.13281-0.066407-0.26172-0.14453-0.39063-0.22266-0.058593-0.035156-0.11719-0.070312-0.17578-0.10547-0.13672-0.089844-0.26953-0.1875-0.39844-0.28516-0.042969-0.03125-0.089844-0.0625-0.12891-0.097657-0.13672-0.10547-0.26563-0.22266-0.39453-0.34375-0.050781-0.050781-0.10547-0.09375-0.15625-0.14453l-0.058594-0.058594c-1.2461-1.2539-2.0195-2.9805-2.0195-4.8828 0.003907-3.8125 3.1094-6.918 6.9297-6.918zm-4.5469 25.66h47.879v47.562h-47.879zm47.879 55.754c0 4.7539-3.8633 8.6172-8.6172 8.6172l-30.641 0.003906c-4.7539 0-8.6172-3.8672-8.6172-8.6172v-6.2773h47.879zm-47.879-57.668v-9.2422c0.0625 0.039063 0.13281 0.070313 0.19922 0.10938 0.074219 0.042969 0.14844 0.085938 0.22656 0.125 0.21484 0.11328 0.43359 0.22266 0.65625 0.31641 0.042969 0.019532 0.085937 0.03125 0.13281 0.050782 0.19531 0.078125 0.39453 0.15234 0.59766 0.21875 0.070312 0.023437 0.14062 0.046875 0.21094 0.066406 0.24609 0.074219 0.48828 0.14062 0.74219 0.19141 0.015625 0.003906 0.027343 0.003906 0.046875 0.007813 0.24219 0.050781 0.48828 0.085937 0.73438 0.11328 0.066406 0.007812 0.13672 0.015625 0.20312 0.019531 0.26562 0.023438 0.53125 0.039063 0.80078 0.039063h38.789c0.26953 0 0.53516-0.015625 0.80078-0.039063 0.066406-0.007812 0.13672-0.011719 0.20312-0.019531 0.24609-0.027344 0.49219-0.0625 0.73828-0.11328 0.015625-0.003907 0.027344-0.003907 0.042969-0.007813 0.25-0.054687 0.49609-0.11719 0.73828-0.19141 0.070313-0.019531 0.14062-0.042969 0.21094-0.066406 0.19922-0.066406 0.39844-0.14062 0.59766-0.21875 0.046875-0.019532 0.089843-0.03125 0.13281-0.050782 0.22266-0.097656 0.44141-0.20312 0.65234-0.31641 0.074219-0.039062 0.14844-0.082031 0.22656-0.125 0.066406-0.039062 0.13672-0.070312 0.19922-0.10938v9.2422z"/>
 </g>
</svg>
