<?xml version="1.0" encoding="UTF-8"?>
<svg fill="#FFFFFF" width="100pt" height="100pt" version="1.1" viewBox="0 0 100 100" xmlns="http://www.w3.org/2000/svg">
 <g>
  <path d="m73.672 18.492c0 0.875-0.72266 1.5742-1.6133 1.5742h-44.113c-0.88672 0-1.6172-0.69922-1.6172-1.5742v-11.43c0-0.87109 0.73047-1.5742 1.6172-1.5742h44.109c0.89453 0 1.6133 0.70312 1.6133 1.5742z"/>
  <path d="m29.918 22.988v68.516c0 1.6562 1.3867 3.0117 3.0977 3.0117h33.984c1.7188 0 3.0977-1.3555 3.0977-3.0117l-0.003906-68.516zm35.547 37.16c0 0.875-0.72266 1.5742-1.6133 1.5742h-27.699c-0.88672 0-1.6172-0.69922-1.6172-1.5742v-26.578c0-0.87109 0.73047-1.5742 1.6172-1.5742h27.699c0.89453 0 1.6133 0.70312 1.6133 1.5742z"/>
  <path d="m60.855 52.875c-2.6406 2.0039-5.9219 3.8398-10.199 4.3477 3.3047-0.40234 6.4844 0.39844 8.6172 1.6602-3.6172 0.64844-6.8672-0.39062-9.168-1.582-2.4023 1.2461-5.5352 2.2891-9.3281 1.6602 2.168-1.2383 5.1211-2.0898 8.6953-1.6602-4.7305-0.64453-8.0039-2.3555-10.91-4.9805-0.074219-0.066406-0.54688-0.14453-0.31641-0.39453 4.6953 0.65234 8.2852 2.4102 11.145 4.9023-4.0586-3.6133-7.8125-8.2109-9.25-14.703 0.35156-0.074219 0.49609 0.35547 0.71094 0.55469 1.7461 1.6133 3.6406 3.3867 5.0586 5.4531 1.6641 2.4219 2.7656 5.3164 3.793 8.3008-0.69141-3.6289-1.9336-7.7148-1.7383-12.094 0.15625-3.5938 1.3477-6.8125 2.0547-9.8008 0.89844 3.1211 1.8086 6.5859 1.9766 10.277 0.17969 4-1.1172 8.4688-1.7383 11.539v0.16016c1.6953-5.9727 5.1289-11.312 9.7227-14.387-1.707 6.3281-5.1328 10.941-9.4062 14.703 2.9258-2.4219 6.25-4.4453 11.223-4.8203 0.125 0.33984-0.5625 0.57812-0.94141 0.86328z"/>
 </g>
</svg>
