<?xml version="1.0" encoding="UTF-8"?>
<svg width="100pt" height="100pt" version="1.1" viewBox="0 0 100 100" xmlns="http://www.w3.org/2000/svg">
 <path d="m49.969 8c-10.969 0-19.969 8.5742-19.969 19.75 0 2.707 0.66016 6.1758 1.5625 8.5625 5.5156 11.504 11.082 23.027 16.625 34.531 0.32031 0.68359 1.0547 1.1562 1.8125 1.1562s1.4922-0.47266 1.8125-1.1562c5.4766-11.535 11.195-22.988 16.625-34.531 0.91016-2.3945 1.5625-5.8594 1.5625-8.5625 0-11.18-9.0625-19.75-20.031-19.75zm0 4c8.9141 0 16.031 6.6992 16.031 15.75 0 1.9297-0.67188 5.3516-1.3125 7.0625-4.8477 10.195-9.7852 20.383-14.688 30.562-4.7305-10.258-10.07-20.27-14.688-30.562-0.63672-1.7148-1.3125-5.1367-1.3125-7.0625 0-9.0586 7.0547-15.75 15.969-15.75zm0.03125 5c-6.0508 0-11 4.9492-11 11s4.9492 11 11 11 11-4.9492 11-11-4.9492-11-11-11zm0 4c3.8906 0 7 3.1094 7 7s-3.1094 7-7 7-7-3.1094-7-7 3.1094-7 7-7zm-36 27c-1.1289 0-1.6172 0.62109-1.9688 1.6875l-6 40c-0.17969 1.1367 0.82031 2.3086 1.9688 2.3125h84c1.1484 0 2.1484-1.1758 1.9688-2.3125l-6-40c-0.14844-0.92969-1.0273-1.6836-1.9688-1.6875h-20.969l-1.9375 4h21.188l1.1875 8h-25.906c0.53516-0.83203-1.6445 2.7578-2.125 3.75l19.406 24.25h-29.875l-12.438-15.562 8.6875-7.3438-1.7812-3.6875-9.4062 7.9375-13.875-17.344h18.75l-1.9375-4zm1.2812 6.8125l26.562 33.188h-31.531zm47.469 9.1875h23.344l1.5 10h-16.844zm11.219 14h14.219l1.5 10h-7.7188z"/>
</svg>
