<?xml version="1.0" encoding="UTF-8"?>
<svg fill="#FFFFFF" width="100pt" height="100pt" version="1.1" viewBox="0 0 100 100" xmlns="http://www.w3.org/2000/svg">
 <path d="m31 5c-3.2891 0-6 2.7109-6 6v78c0 3.2891 2.7109 6 6 6h38c3.2891 0 6-2.7109 6-6v-78c0-3.2891-2.7109-6-6-6zm0 4h38c1.1445 0 2 0.85547 2 2v2h-42v-2c0-1.1445 0.85547-2 2-2zm-2 8h42v62h-42zm21 11.031c-7.1836 0-13 5.9805-13 13.281 0 1.8164 0.4375 3.75 1 5.25 3.3984 7.4141 6.793 14.855 10.188 22.281 0.32031 0.68359 1.0547 1.125 1.8125 1.125s1.4922-0.44141 1.8125-1.125c3.418-7.4102 6.7539-14.887 10.188-22.281 0.56641-1.5078 1-3.4375 1-5.25 0-7.3086-5.8164-13.281-13-13.281zm0 4c4.9648 0 9 4.0781 9 9.2812 0 1.0625-0.36719 2.8242-0.75 3.8438l-8.25 18.062-8.25-18.062c-0.38281-1.0234-0.75-2.7852-0.75-3.8438 0-5.207 4.0352-9.2812 9-9.2812zm0 3c-3.2891 0-6 2.7109-6 6s2.7109 6 6 6 6-2.7109 6-6-2.7109-6-6-6zm0 4c1.1289 0 2 0.87109 2 2s-0.87109 2-2 2-2-0.87109-2-2 0.87109-2 2-2zm-21 43.969h42v6c0 1.1445-0.85547 2-2 2h-38c-1.1445 0-2-0.85547-2-2zm21 2c-1.1055 0-2 0.89453-2 2s0.89453 2 2 2 2-0.89453 2-2-0.89453-2-2-2z"/>
</svg>
