<?xml version="1.0" encoding="utf-8"?>
<svg width="100pt" height="100pt" version="1.1" viewBox="0 0 100 100" xmlns="http://www.w3.org/2000/svg">
  <g transform="matrix(1.644876, 0, 0, 1.603691, -33.534081, -29.781385)">
    <path d="m77.012 44.293c0-0.32812-0.10547-0.64453-0.30469-0.90625l-9.7188-12.844v-4.0234c0-0.82812-0.67188-1.5-1.5-1.5h-30.977c-0.82812 0-1.5 0.67188-1.5 1.5v4.0234l-9.7188 12.844c-0.19531 0.26172-0.30469 0.57812-0.30469 0.90625 0 2.75 1.5586 5.1562 3.8711 6.4688v22.719c0 0.82812 0.67188 1.5 1.5 1.5h43.277c0.82812 0 1.5-0.67188 1.5-1.5v-22.719c2.3164-1.3125 3.875-3.7148 3.875-6.4688zm-7.875 4.5234c-2.1211 0-3.9102-1.2695-4.582-3.0234h9.168c-0.67578 1.7578-2.4688 3.0234-4.5859 3.0234zm-42.855-3.0234h9.168c-0.67188 1.7539-2.4609 3.0234-4.582 3.0234-2.125 0-3.918-1.2656-4.5859-3.0234zm8.9766-13.242h4.8281l-3.8789 10.246h-8.7031zm21.449 0l3.8789 10.246-9.0859-0.003906v-10.242zm15.789 10.242h-8.7031l-3.8789-10.246h4.8281zm-23.996 0h-9.0859l3.8789-10.246 5.207 0.003906zm-0.29688 3c-0.67188 1.7539-2.4609 3.0234-4.5781 3.0234-2.1211 0-3.9102-1.2695-4.582-3.0234zm12.754 0c-0.67188 1.7539-2.4609 3.0234-4.5781 3.0234-2.1172 0-3.9102-1.2695-4.5781-3.0234zm-24.945-17.773h27.98v1.5273l-27.98 0.003906zm8.5117 43.961h-8.6016l0.003906-15.328h8.6016zm25.617 0h-22.617v-16.828c0-0.82812-0.67188-1.5-1.5-1.5h-11.602c-0.82812 0-1.5 0.67188-1.5 1.5v16.828h-3.0664v-20.23c0.32812 0.039062 0.66406 0.066406 1.0078 0.066406 2.6211 0 4.9453-1.2344 6.3789-3.125 1.4336 1.8906 3.7539 3.125 6.3789 3.125 2.6211 0 4.9414-1.2344 6.3789-3.125 1.4336 1.8906 3.7539 3.125 6.3789 3.125 2.6211 0 4.9453-1.2344 6.3789-3.125 1.4336 1.8906 3.7578 3.125 6.3828 3.125 0.33984 0 0.67578-0.027344 1.0039-0.066406z" style="fill: rgb(54, 31, 19);"/>
    <path d="m65.57 58.148h-2.9961v-2.9961c0-0.82812-0.67188-1.5-1.5-1.5h-4.4961c-0.82812 0-1.5 0.67188-1.5 1.5v2.9961h-2.9961c-0.82812 0-1.5 0.67187-1.5 1.5v4.4961c0 0.39844 0.15625 0.77734 0.4375 1.0625 0.28125 0.28125 0.66016 0.4375 1.0625 0.4375h2.9961v3.0039c0 0.82812 0.67188 1.5 1.5 1.5h4.4961c0.82812 0 1.5-0.67188 1.5-1.5v-3.0039h2.9961c0.82813 0 1.5-0.67188 1.5-1.5v-4.4961c0-0.82813-0.66797-1.5-1.5-1.5zm-1.5 4.4961h-2.9961c-0.82812 0-1.5 0.67188-1.5 1.5v3.0039h-1.4961v-3.0039c0-0.39844-0.15625-0.77734-0.4375-1.0625-0.28125-0.28125-0.66016-0.4375-1.0625-0.4375h-2.9961v-1.4961h2.9961c0.82812 0 1.5-0.67188 1.5-1.5v-2.9961h1.4961v2.9961c0 0.82812 0.67188 1.5 1.5 1.5h2.9961z" style="fill: rgb(37, 148, 91);"/>
  </g>
</svg>