<?xml version="1.0" encoding="UTF-8"?>
<svg width="100pt" height="100pt" version="1.1" viewBox="0 0 100 100" xmlns="http://www.w3.org/2000/svg">
 <g>
  <path d="m49.836 6.5c23.984 0 43.5 19.516 43.5 43.5s-19.516 43.5-43.5 43.5c-23.984 0-43.5-19.516-43.5-43.5s19.512-43.5 43.5-43.5m0-3c-25.684 0-46.5 20.816-46.5 46.5s20.816 46.5 46.5 46.5c25.684 0 46.5-20.816 46.5-46.5s-20.82-46.5-46.5-46.5z"/>
  <path d="m52.836 50c0 4-6 4-6 0s6-4 6 0"/>
  <path d="m22.836 39c0 2.668-4 2.668-4 0s4-2.668 4 0"/>
  <path d="m45.336 35c0 3.332-5 3.332-5 0s5-3.332 5 0"/>
  <path d="m68.836 15c0 4-6 4-6 0s6-4 6 0"/>
  <path d="m92.973 37.207l0.51953 1.9336-43.465 11.645-0.51953-1.9336z"/>
  <path d="m11.836 50s0.015624-0.42578 0.046874-1.2266c0.015626-0.39844 0.03125-0.89453 0.054688-1.4727s0.023438-1.2461 0.15234-1.9844c0.10156-0.74219 0.21875-1.5625 0.33984-2.457 0.10547-0.89844 0.41406-1.832 0.63672-2.8516 0.13281-0.50391 0.23047-1.0391 0.40234-1.5625 0.18359-0.52344 0.37109-1.0625 0.56641-1.6133 0.19531-0.55469 0.39453-1.1211 0.59766-1.7031 0.26172-0.55859 0.52344-1.1289 0.79688-1.7148 0.27734-0.58203 0.53516-1.1875 0.84766-1.7812 0.33984-0.57812 0.6875-1.168 1.0391-1.7656 0.65625-1.2305 1.5508-2.3633 2.4141-3.5664 0.41406-0.61719 0.92188-1.1719 1.4258-1.7383 0.50391-0.57031 1.0156-1.1445 1.5312-1.7305 0.57031-0.53125 1.1445-1.0703 1.7266-1.6094l0.875-0.81641c0.30469-0.26172 0.63281-0.49609 0.94922-0.74609 0.64453-0.49219 1.2891-0.99219 1.9414-1.4922 0.67969-0.46094 1.3945-0.88281 2.1016-1.332l1.0664-0.66797c0.36328-0.21094 0.75-0.38281 1.125-0.57422 0.75781-0.37891 1.5195-0.75781 2.2812-1.1367 0.79688-0.30469 1.5977-0.61328 2.3984-0.92188l1.2109-0.45703 1.25-0.33984 2.5117-0.67188 2.5742-0.42969c0.42969-0.066407 0.85938-0.15234 1.2891-0.20312l1.3008-0.085938 2.6367-0.16016c1.6992 0.050781 3.3789 0.050781 5.125 0.30859 3.4375 0.42969 6.7461 1.2227 9.7852 2.5 0.77734 0.26562 1.5039 0.64453 2.2344 0.98438 0.72656 0.35156 1.4648 0.67188 2.1367 1.0898 0.6875 0.39844 1.3633 0.79297 2.0312 1.1836 0.63672 0.44141 1.2656 0.87891 1.8867 1.3086 2.4375 1.7773 4.5859 3.6992 6.3164 5.6992 0.43359 0.5 0.88281 0.96875 1.2734 1.4648 0.38281 0.50781 0.75391 1 1.1172 1.4805 0.76172 0.94141 1.3164 1.9453 1.9102 2.8477 0.60937 0.89062 1.0078 1.8242 1.4648 2.6406 0.46094 0.8125 0.77344 1.6133 1.0781 2.3242 0.64844 1.4102 0.99609 2.582 1.2617 3.3711 0.26172 0.78906 0.40234 1.2109 0.40234 1.2109l-2.8945 0.78906s-0.11719-0.39062-0.34375-1.1289c-0.22266-0.73438-0.51563-1.8281-1.082-3.1484-0.26562-0.66797-0.53125-1.418-0.94141-2.1836-0.40625-0.76563-0.74219-1.6484-1.293-2.4883-0.52734-0.85156-1.0195-1.8086-1.707-2.6992-0.32812-0.46094-0.66016-0.92969-1.0039-1.4141-0.35547-0.47266-0.76562-0.92188-1.1562-1.3984-1.5703-1.9141-3.5312-3.7695-5.7812-5.5117-0.57422-0.42188-1.1523-0.84766-1.7422-1.2812-0.62109-0.38281-1.25-0.77344-1.8867-1.1641-0.625-0.41797-1.3125-0.73438-1.9883-1.0859-0.68359-0.34375-1.3555-0.72266-2.0898-0.99219-2.832-1.2852-5.9961-2.1289-9.2031-2.625-1.5742-0.28516-3.2891-0.33984-4.9844-0.4375l-2.4648 0.089844-1.2539 0.046875c-0.41406 0.035156-0.82812 0.10938-1.2422 0.16016l-2.4883 0.34375-2.4375 0.58203-1.2188 0.29297-1.1797 0.41016c-0.78516 0.27734-1.5664 0.55469-2.3477 0.82813-0.75 0.34766-1.4961 0.69531-2.2383 1.0391-0.36719 0.17969-0.75 0.33594-1.1055 0.52734l-1.0508 0.62109c-0.69531 0.41797-1.4023 0.80859-2.0781 1.2383-0.64844 0.47266-1.293 0.9375-1.9336 1.4023-0.31641 0.23438-0.64453 0.45313-0.94922 0.70313l-0.875 0.77344c-0.58203 0.51562-1.1602 1.0234-1.7305 1.5273-0.51953 0.55859-1.0352 1.1055-1.543 1.6523-0.51172 0.54297-1.0234 1.0703-1.4453 1.6641-0.87891 1.1562-1.7891 2.2461-2.4688 3.4375-0.36328 0.58203-0.72266 1.1523-1.0742 1.7109-0.32031 0.57813-0.59375 1.168-0.88281 1.7344-0.28516 0.57031-0.5625 1.1289-0.83594 1.6719-0.21875 0.57031-0.42969 1.125-0.63672 1.668-0.20703 0.54297-0.41016 1.0703-0.60547 1.5859-0.1875 0.51953-0.29688 1.043-0.44141 1.5391-0.24609 1.0039-0.57812 1.9258-0.71094 2.8125-0.14844 0.88672-0.28516 1.6992-0.40625 2.4336-0.15234 0.73047-0.17188 1.3984-0.20703 1.9805-0.035156 0.57812-0.070312 1.0703-0.09375 1.4727-0.046875 0.79297-0.070312 1.2188-0.070312 1.2188z"/>
  <path d="m18.836 50s0.011718-0.34766 0.035156-1c0.011718-0.32422 0.023437-0.72656 0.039062-1.1992 0.015625-0.47266 0.015625-1.0156 0.12109-1.6211 0.082031-0.60547 0.17188-1.2773 0.27344-2.0078 0.085937-0.73438 0.33203-1.4961 0.51172-2.3281 0.10547-0.41016 0.18359-0.84766 0.32422-1.2773 0.14844-0.42969 0.30078-0.86719 0.45703-1.3203s0.31641-0.91797 0.48438-1.3906c0.21094-0.45703 0.42578-0.92578 0.64453-1.4023 0.22656-0.47656 0.4375-0.97266 0.6875-1.457 0.27734-0.47266 0.55859-0.95312 0.84375-1.4453 0.53516-1.0078 1.2578-1.9336 1.9609-2.918 0.33594-0.50391 0.75-0.96094 1.1602-1.4258 0.41016-0.46875 0.82422-0.9375 1.2461-1.418 0.46484-0.4375 0.93359-0.875 1.4062-1.3203l0.71484-0.67188c0.24609-0.21875 0.51562-0.40625 0.77344-0.61328 0.52344-0.40625 1.0547-0.8125 1.5859-1.2266 0.55469-0.38281 1.1406-0.72656 1.7148-1.0977l0.87109-0.54688c0.28906-0.17188 0.60547-0.3125 0.91016-0.47266 0.61719-0.30859 1.2383-0.62109 1.8633-0.9375 0.65234-0.25391 1.3047-0.50781 1.9609-0.76172l0.98828-0.37891 1.0234-0.28125 2.0547-0.55859 2.1055-0.35938c0.35156-0.054688 0.70312-0.125 1.0547-0.17188l1.0664-0.070313 2.1641-0.14062c1.3867 0.039062 2.75 0.03125 4.1914 0.23437 2.8242 0.33984 5.5352 0.98438 8.0352 2.0195 2.4883 1.0234 4.8281 2.2344 6.8164 3.7188 2.0078 1.4531 3.7773 3.0234 5.207 4.6562 0.35547 0.40625 0.72656 0.79297 1.0508 1.1992 0.31641 0.41406 0.62109 0.82031 0.92188 1.2148 0.62891 0.76953 1.0898 1.5938 1.5781 2.332 0.50391 0.73047 0.83594 1.4961 1.2148 2.1641 0.38281 0.66797 0.64062 1.3242 0.89453 1.9102 0.53516 1.1562 0.82812 2.1172 1.0508 2.7656 0.21875 0.64844 0.33203 0.99609 0.33203 0.99609l-2.8945 0.79297s-0.097656-0.31641-0.27344-0.91016c-0.17969-0.59375-0.41406-1.4766-0.86719-2.5469-0.21484-0.53906-0.42969-1.1484-0.75781-1.7656-0.32422-0.61719-0.59766-1.3359-1.0391-2.0156-0.42578-0.6875-0.82031-1.4609-1.375-2.1875-0.26172-0.37109-0.53125-0.75391-0.80859-1.1445-0.28516-0.38281-0.61328-0.74609-0.93359-1.1367-1.2656-1.5547-2.8516-3.0586-4.6719-4.4688-1.8008-1.4453-3.9414-2.6406-6.2344-3.6797-2.2891-1.0469-4.8594-1.7383-7.4531-2.1445-1.2695-0.23828-2.6719-0.28125-4.0547-0.36328l-1.9922 0.066407-1.0195 0.03125c-0.33594 0.03125-0.67188 0.089843-1.0078 0.12891l-2.0195 0.27344-1.9805 0.46875-0.98828 0.23438-0.95703 0.33203c-0.63672 0.22266-1.2734 0.44531-1.9062 0.66797-0.60938 0.28125-1.2188 0.5625-1.8203 0.83984-0.30078 0.14453-0.60938 0.26953-0.90234 0.42578l-0.85547 0.5c-0.56641 0.33984-1.1445 0.65234-1.6914 1.0039-0.52734 0.38281-1.0547 0.76172-1.5742 1.1367-0.25781 0.19141-0.52734 0.36719-0.77344 0.57031l-0.71484 0.62891c-0.47656 0.41797-0.94531 0.83203-1.4102 1.2383-0.42578 0.45312-0.84375 0.89844-1.2578 1.3398-0.41797 0.4375-0.83594 0.87109-1.1797 1.3516-0.71875 0.9375-1.4609 1.8242-2.0195 2.793-0.29688 0.47266-0.58984 0.9375-0.87891 1.3906-0.26172 0.46875-0.48438 0.94922-0.72266 1.4102-0.23047 0.46484-0.46094 0.91797-0.68359 1.3594-0.17969 0.46484-0.35156 0.91406-0.52344 1.3555-0.17188 0.44141-0.33594 0.87109-0.49609 1.2891-0.15234 0.42188-0.24219 0.84766-0.36328 1.2539-0.20312 0.81641-0.47656 1.5664-0.58594 2.2891-0.12109 0.72266-0.23438 1.3828-0.33594 1.9805-0.125 0.59766-0.14062 1.1406-0.17578 1.6133-0.03125 0.47266-0.058593 0.87109-0.082031 1.1992-0.039062 0.66016-0.058593 1.0078-0.058593 1.0078z"/>
  <path d="m25.836 50s0.007812-0.26953 0.023437-0.77344c0.035156-0.50391-0.015625-1.2461 0.11328-2.1836 0.0625-0.46875 0.12891-0.98828 0.20312-1.5547 0.0625-0.57031 0.25-1.1602 0.38672-1.8047 0.082031-0.32031 0.14062-0.65625 0.24609-0.99219 0.11328-0.33203 0.23047-0.67578 0.35156-1.0234 0.12109-0.35156 0.24219-0.71094 0.37109-1.082 0.16016-0.35547 0.32422-0.71875 0.49609-1.0898 0.17188-0.36719 0.33594-0.75391 0.52734-1.1328 0.21094-0.36719 0.42969-0.74219 0.64844-1.125 0.41016-0.78516 0.96875-1.5078 1.5117-2.2734 0.53125-0.77734 1.2266-1.4531 1.8555-2.2148 0.35938-0.33984 0.71875-0.68359 1.0859-1.0312 0.36328-0.35547 0.73438-0.70312 1.1523-1.0039 0.40625-0.31641 0.81641-0.63672 1.2266-0.96094 0.42969-0.30078 0.88281-0.57031 1.3281-0.85938 0.875-0.61328 1.875-1.0234 2.8359-1.5391 0.50781-0.19922 1.0117-0.40234 1.5234-0.60156l0.76953-0.30078 0.79687-0.22656 1.5977-0.44531 1.6406-0.28516 0.82031-0.14062 0.83203-0.058594 1.6602-0.11719c1.1445 0.027343 2.1406 0.011718 3.2891 0.16406 2.2148 0.25391 4.3281 0.74609 6.2852 1.543 1.9492 0.78906 3.7812 1.7266 5.3438 2.8789 1.5781 1.125 2.9688 2.3477 4.0938 3.6211 0.28125 0.31641 0.57031 0.61719 0.82813 0.93359 0.24609 0.32422 0.48828 0.63672 0.72656 0.94531 0.49219 0.60156 0.85938 1.2422 1.2461 1.8203 0.72266 1.1836 1.2891 2.2578 1.6719 3.1797 0.42578 0.90625 0.66016 1.6562 0.83594 2.1641 0.17578 0.50781 0.26562 0.77734 0.26562 0.77734l-2.8945 0.79688s-0.070312-0.24219-0.20703-0.69531-0.30859-1.1289-0.65234-1.9453c-0.30078-0.83594-0.76562-1.8086-1.3594-2.8906-0.32031-0.52734-0.62109-1.1211-1.043-1.6758-0.19922-0.28516-0.40234-0.57812-0.61328-0.87891-0.21875-0.29297-0.46875-0.57031-0.71094-0.87109-0.96484-1.1914-2.1719-2.3477-3.5586-3.4336-1.3711-1.1133-3.0078-2.0352-4.7617-2.8359-1.75-0.80859-3.7227-1.3516-5.7031-1.668-0.94531-0.1875-2.0898-0.22656-3.0898-0.29297l-1.5586 0.042969-0.78125 0.019531-0.77344 0.097656-1.5547 0.19922-1.5234 0.35547-0.76172 0.17969-0.73828 0.25391c-0.49219 0.16797-0.98047 0.33984-1.4688 0.50781-0.92969 0.44922-1.9023 0.79688-2.7617 1.3477-0.4375 0.25781-0.88281 0.49609-1.3047 0.76563-0.41016 0.29297-0.8125 0.58203-1.2188 0.86719-0.41406 0.27344-0.78906 0.59375-1.1484 0.91797-0.36719 0.32031-0.73047 0.63672-1.0938 0.94922-0.64062 0.70703-1.3438 1.3359-1.8906 2.0664-0.55859 0.71875-1.1367 1.4023-1.5664 2.1484-0.23047 0.36328-0.46094 0.71875-0.68359 1.0703-0.20312 0.36328-0.37891 0.73047-0.5625 1.0859-0.18359 0.35547-0.35938 0.70703-0.53125 1.0469-0.14062 0.35547-0.27734 0.70703-0.41016 1.0469s-0.26172 0.67188-0.39062 0.99609c-0.11719 0.32422-0.19141 0.65625-0.28516 0.96875-0.16016 0.63281-0.375 1.2109-0.46094 1.7695-0.097656 0.55859-0.1875 1.0664-0.26953 1.5312-0.16797 0.92578-0.14844 1.6758-0.20703 2.1758-0.03125 0.50391-0.050781 0.77344-0.050781 0.77344z"/>
  <path d="m32.836 50s0.003906-0.19141 0.011718-0.54688c0.023438-0.35547-0.019531-0.88281 0.066406-1.5469 0.078126-0.66406 0.15625-1.4805 0.39453-2.3867 0.085937-0.46094 0.23438-0.9375 0.41016-1.4336 0.082031-0.25 0.16797-0.50781 0.25781-0.76953 0.11328-0.25391 0.22656-0.51172 0.34375-0.77734 0.12109-0.26562 0.24219-0.53516 0.36719-0.80859 0.14844-0.26172 0.30078-0.53125 0.45312-0.80469 0.28906-0.55859 0.67578-1.0781 1.0625-1.6289 0.37109-0.55859 0.86328-1.043 1.3086-1.5898 0.51562-0.47656 0.99609-1.0234 1.582-1.4688 1.1133-0.96484 2.4336-1.7422 3.8242-2.4336 1.4258-0.60156 2.9297-1.1602 4.5117-1.375 0.78125-0.17969 1.582-0.16406 2.375-0.25 0.83594 0.007812 1.5156-0.011719 2.3594 0.09375 1.6016 0.16406 3.1172 0.50781 4.5352 1.0625 1.4062 0.55078 2.7344 1.2148 3.8711 2.0312 1.1445 0.79687 2.1562 1.6719 2.9805 2.582 0.85156 0.88672 1.5117 1.8125 2.0547 2.6523 0.53125 0.84766 0.94922 1.625 1.2344 2.2891 0.31641 0.65234 0.49219 1.1953 0.62109 1.5625 0.12891 0.36719 0.19922 0.5625 0.19922 0.5625l-2.8906 0.80859s-0.050781-0.16797-0.14062-0.48047-0.20703-0.77734-0.44141-1.3438c-0.19922-0.57812-0.51953-1.25-0.92578-2-0.42188-0.74219-0.92969-1.5703-1.6172-2.3789-0.66016-0.82812-1.4883-1.6367-2.4453-2.3945-0.94531-0.77734-2.0742-1.4297-3.2891-1.9922-1.2109-0.57031-2.5859-0.96484-3.9492-1.1914-0.64063-0.13672-1.4766-0.17188-2.1562-0.22266-0.71875 0.039063-1.457-0.027343-2.1758 0.097657-1.4609 0.10156-2.8711 0.53516-4.2344 1.0117-1.3281 0.5625-2.6133 1.2148-3.7227 2.0586-0.58203 0.38672-1.0625 0.875-1.5859 1.3008-0.45313 0.49219-0.95313 0.92969-1.3438 1.4414-0.39844 0.50391-0.80859 0.98047-1.1172 1.5039-0.16406 0.25391-0.32812 0.50391-0.48828 0.75-0.13672 0.25781-0.26953 0.51172-0.40234 0.76172-0.12891 0.25-0.25781 0.49609-0.38281 0.73438-0.10156 0.25-0.19922 0.49609-0.29687 0.73438-0.19922 0.47656-0.37891 0.93359-0.48828 1.3789-0.28906 0.87891-0.41797 1.6719-0.53516 2.3242-0.125 0.65234-0.11719 1.1836-0.16016 1.5391-0.019532 0.35156-0.035156 0.54297-0.035156 0.54297z"/>
  <path d="m40 50v-0.32031c0-0.21094-0.10547-0.51563-0.0625-0.91016 0.035156-0.39062 0.03125-0.875 0.16016-1.4141 0.046875-0.27344 0.10547-0.55859 0.20312-0.85156 0.085938-0.30078 0.17969-0.60938 0.32422-0.92188 0.12109-0.32031 0.27344-0.64453 0.46094-0.96875 0.16406-0.33594 0.38281-0.65234 0.60547-0.98047 0.45312-0.65234 1.0156-1.2891 1.6797-1.8633 0.65625-0.58594 1.4297-1.082 2.2617-1.5117 0.84766-0.38672 1.75-0.73828 2.6992-0.89453 0.46875-0.11719 0.95312-0.125 1.4297-0.18359l0.046875-0.003907 0.023437-0.003906 0.089844 0.003906 0.082031 0.003907 0.16797 0.003906 0.33203 0.011718 0.66406 0.019532c0.41797-0.019532 0.93359 0.11719 1.4102 0.20703 0.48828 0.089844 0.96875 0.19531 1.3867 0.38281 0.42578 0.17578 0.87109 0.30859 1.2656 0.51562 0.39062 0.22656 0.76953 0.44531 1.1367 0.66016 0.38281 0.20312 0.67187 0.51172 0.99609 0.75391 0.30859 0.26172 0.63672 0.48828 0.87109 0.78516 0.49609 0.56641 0.99609 1.0625 1.2969 1.6094 0.32422 0.52344 0.65625 0.96484 0.80469 1.3906 0.35547 0.82812 0.55469 1.3008 0.55469 1.3008l-2.8828 0.82813s-0.11328-0.36328-0.3125-1c-0.066406-0.33594-0.29297-0.67969-0.49219-1.1055-0.17578-0.44531-0.52734-0.85156-0.85938-1.3359-0.15234-0.25781-0.39453-0.44922-0.60938-0.67969-0.23438-0.21094-0.43359-0.49609-0.71875-0.67969-0.27344-0.20312-0.55859-0.41016-0.84766-0.62109-0.29688-0.20312-0.64453-0.33594-0.97266-0.51953-0.33594-0.19922-0.67969-0.30469-1.0312-0.41016-0.35937-0.10547-0.67578-0.27344-1.1445-0.30469-0.41016-0.054688-0.82812-0.11328-1.2422-0.16797-0.40625 0.007812-0.82422-0.03125-1.2344 0.027343-0.83203 0.042969-1.6406 0.26953-2.4258 0.52734-0.76953 0.30078-1.5117 0.66797-2.1562 1.1367-0.65625 0.45703-1.2344 0.98438-1.7188 1.5469-0.23828 0.28516-0.48047 0.55859-0.66406 0.85547-0.20703 0.28516-0.38672 0.57422-0.53516 0.86719-0.16797 0.28125-0.30078 0.56641-0.41016 0.84766-0.125 0.27344-0.23047 0.53906-0.30078 0.79688-0.17969 0.51172-0.26562 0.96875-0.34375 1.3516-0.082031 0.38281 0 0.69141-0.03125 0.89844-0.027343 0.21094 0.042969 0.32031 0.042969 0.32031z"/>
 </g>
</svg>
