<?xml version="1.0" encoding="UTF-8"?>
<svg fill="#FFFFFF" width="100pt" height="100pt" version="1.1" viewBox="0 0 100 100" xmlns="http://www.w3.org/2000/svg">
 <g>
  <path d="m83.289 20.477c-3.1406-0.55078-3.7188-3.6055-3.7383-3.7305-0.078125-0.46484-0.46875-0.8125-0.9375-0.83594-0.46875-0.027344-0.89062 0.28125-1.0156 0.73828-1.4492 5.3477-6.5469 6.9883-7.1133 7.1523-0.98047-0.22266-1.8516-0.074219-2.4414 0.51562l-3.0117 3.0117c-1.3203-0.015625-2.5508 0.40625-3.4492 1.3047h-0.003906l-44.961 44.961c-0.81641 0.81641-0.96094 2.1133-0.40625 3.6602 0.46484 1.2969 1.3906 2.6797 2.6055 3.8984 1.8867 1.8867 3.9844 2.9297 5.6211 2.9297 0.77734 0 1.4453-0.23438 1.9375-0.72656l20.508-20.508v-0.003906l24.449-24.449v-0.003906c0.91406-0.91797 1.3398-2.1758 1.3047-3.5312l3.0117-2.9336c0.33984-0.33984 0.80078-1.0625 0.54687-2.3203 0-0.003907 0.003907-0.007813 0.003907-0.011719 0.0625-0.23047 1.6289-5.668 7.1719-7.1719 0.45312-0.12109 0.75781-0.54297 0.73828-1.0117-0.015625-0.46484-0.35547-0.85156-0.82031-0.93359zm-13.367 16.504l-17.27 17.27c-0.03125-0.10938-0.0625-0.21484-0.10156-0.32422-0.46484-1.2969-1.3906-2.6797-2.6055-3.8984-1.3828-1.3828-2.8789-2.3086-4.2227-2.707l17.27-17.27c1.2969-1.3008 3.9805-0.80859 5.8594 1.0703 1.8789 1.875 2.3711 4.5625 1.0703 5.8594zm-43.039 43.039c-0.39844-1.3438-1.3242-2.8438-2.707-4.2227-1.2188-1.2188-2.6016-2.1445-3.8984-2.6055-0.10938-0.039062-0.21875-0.066406-0.32422-0.10156l18.586-18.586c0.18359-0.18359 0.73828-0.23438 1.5703 0.0625 1.0078 0.36328 2.1602 1.1406 3.1562 2.1406 0.99609 0.99609 1.7773 2.1484 2.1406 3.1562 0.29688 0.83203 0.24609 1.3867 0.0625 1.5703zm17.801-24.73c-1.2188-1.2188-2.6016-2.1445-3.8984-2.6094-0.10938-0.039063-0.21875-0.066407-0.32422-0.10156l3.3398-3.3398c0.44531-0.44531 2.5781 0.050781 4.7305 2.1992 0.99609 0.99609 1.7773 2.1484 2.1406 3.1562 0.29688 0.83203 0.24609 1.3867 0.0625 1.5703l-3.3398 3.3398c-0.40234-1.3359-1.3281-2.832-2.7109-4.2148zm-24.449 24.449c-0.99609-0.99609-1.7773-2.1484-2.1406-3.1562-0.29688-0.83203-0.24609-1.3867-0.0625-1.5703 0.089844-0.089844 0.27344-0.14844 0.53516-0.14844 0.26562 0 0.61719 0.0625 1.0391 0.21094 1.0078 0.36328 2.1602 1.1406 3.1562 2.1406 2.1484 2.1484 2.6484 4.2852 2.2031 4.7305-0.44922 0.44141-2.582-0.054687-4.7305-2.207zm54.016-49.23l-2.0977 2.043c-0.39453-1.0078-1.0273-1.9883-1.8867-2.8438-0.86719-0.87109-1.8633-1.5039-2.8867-1.8984l2.0742-2.0742c0.21094-0.17969 1.6172 0.10547 3.1484 1.6367 1.5391 1.5273 1.8203 2.9375 1.6484 3.1367zm0.78906-3.3477c-0.30078-0.41406-0.63672-0.82422-1.0195-1.207-0.375-0.375-0.75781-0.6875-1.1406-0.97266 1.7148-0.84766 4.1797-2.4883 5.7109-5.4102 0.42188 0.66016 1.0117 1.3398 1.8242 1.8867-2.9023 1.5391-4.5352 3.9961-5.375 5.7031z"/>
  <path d="m45.609 54.418c1.1992 1.1992 3.0586-0.66016 1.8594-1.8594-1.1992-1.1992-3.0586 0.66016-1.8594 1.8594z"/>
 </g>
</svg>
