<?xml version="1.0" encoding="UTF-8"?>
<svg fill="#FFFFFF" width="100pt" height="100pt" version="1.1" viewBox="0 0 100 100" xmlns="http://www.w3.org/2000/svg">
 <path d="m88.301 55.188c-3.2891-0.15625-6.4883-0.20312-9.5156-0.14453-5.2266 0.10547-10.18 1.2227-15.141 3.4102-0.67188 0.29688-1.3242 0.62891-1.9844 0.94922 1.4297-1.1484 2.8398-2.3242 4.1914-3.5781 4.8047-4.4727 8.4102-9.4414 11.02-15.199 1.5156-3.3438 2.9961-6.9375 4.3984-10.68l1.0312-2.7539-2.4961 1.5547c-3.3906 2.1094-6.6172 4.2695-9.6016 6.418-5.1289 3.6953-9.2891 8.2109-12.723 13.805-1.4141 2.3008-2.6719 4.6875-3.8438 7.1016 0.82031-3.332 1.5391-6.7109 2.0078-10.137 0.99609-7.3125 0.58984-14.203-1.2383-21.074-1.0664-4-2.3398-8.1875-3.7852-12.445l-0.94531-2.7852-0.94531 2.7852c-1.4453 4.2578-2.7227 8.4414-3.7891 12.445-1.8281 6.8711-2.2344 13.766-1.2383 21.074 0.35156 2.5781 0.84766 5.1328 1.4219 7.6602-0.8125-1.5664-1.6719-3.1133-2.5977-4.6211-3.4336-5.5938-7.5977-10.109-12.723-13.805-2.9805-2.1484-6.2109-4.3086-9.6016-6.418l-2.5039-1.5508 1.0312 2.7539c1.4023 3.7422 2.8828 7.3359 4.3984 10.68 2.6094 5.7578 6.2148 10.73 11.02 15.199 1.3477 1.2539 2.7578 2.4297 4.1875 3.5781-0.66016-0.32031-1.3125-0.65234-1.9844-0.94922-4.9648-2.1914-9.9141-3.3086-15.141-3.4102-3.0273-0.0625-6.2266-0.011719-9.5156 0.14453l-2.9375 0.14063 2.4141 1.6797c2.6914 1.875 5.3789 3.6172 7.9805 5.1836 4.4805 2.6875 9.2695 4.3789 14.637 5.1602 0.74219 0.10938 1.4844 0.19531 2.2305 0.27344-3.3047 0.83594-6.2773 2.1641-9.0508 4.043-1.8359 1.2422-3.7305 2.625-5.6289 4.1055l-2.3203 1.8086 2.9414-0.019532c2.4062-0.019531 4.75-0.10937 6.9609-0.27734 3.8398-0.28516 7.4414-1.3086 11.004-3.1172 3.1016-1.5742 5.9531-3.5586 8.7148-5.4727l0.39062-0.26953v21.941h2v-21.891l0.3125 0.21875c2.7617 1.9141 5.6172 3.8945 8.7148 5.4727 3.5625 1.8125 7.1641 2.832 11.004 3.1172 2.2148 0.16406 4.5547 0.25781 6.9609 0.27734l2.9414 0.019532-2.3164-1.8086c-1.8945-1.4805-3.7891-2.8594-5.6289-4.1055-2.7695-1.8789-5.7461-3.207-9.0508-4.043 0.74219-0.078124 1.4883-0.16406 2.2305-0.27344 5.3672-0.78125 10.152-2.4727 14.637-5.1602 2.6094-1.5664 5.2969-3.3125 7.9805-5.1836l2.4141-1.6797zm-29.117-5.1641c3.2891-5.3633 7.2773-9.6875 12.188-13.227 2.1875-1.5781 4.5156-3.1602 6.9414-4.7305-1.0586 2.6875-2.1523 5.2812-3.2656 7.7383-2.4961 5.5117-5.9531 10.273-10.559 14.559-3.8008 3.5312-8.0664 6.6016-12.25 9.5508 2.0664-4.6836 4.2305-9.4727 6.9453-13.891zm-12.316-24.645c0.8125-3.0625 1.7539-6.2344 2.8008-9.4648 1.0469 3.2305 1.9844 6.4023 2.8008 9.4648 1.7617 6.6094 2.1484 13.246 1.1875 20.293-0.8125 5.957-2.4062 11.836-3.9883 17.535-1.5859-5.6992-3.1797-11.578-3.9883-17.535-0.96094-7.0469-0.57031-13.684 1.1875-20.293zm-21.914 14.426c-1.1133-2.457-2.2109-5.0508-3.2656-7.7383 2.4258 1.5664 4.7539 3.1523 6.9414 4.7305 4.9102 3.5352 8.8945 7.8633 12.188 13.227 2.7148 4.4219 4.8789 9.2109 6.9453 13.895-4.1836-2.9492-8.4492-6.0195-12.25-9.5508-4.6055-4.2891-8.0625-9.0508-10.559-14.562zm-4.7656 20.672c-1.7578-1.0547-3.5547-2.1953-5.3633-3.4023 2.1797-0.058594 4.3086-0.066407 6.3516-0.027344 4.957 0.10156 9.6562 1.1602 14.375 3.2422 3.6992 1.6328 7.2227 3.7227 10.637 5.8125-4.0039-0.042968-8.1016-0.14453-12.102-0.73047-5.1055-0.74219-9.6484-2.3477-13.898-4.8945zm18.84 11.906c-3.3242 1.6875-6.6758 2.6406-10.246 2.9062-1.2148 0.089844-2.4727 0.16016-3.7578 0.20313 1.0352-0.76172 2.0664-1.4883 3.0742-2.1719 2.9648-2.0078 6.1836-3.3438 9.8359-4.082 2.5547-0.51562 5.1797-0.76172 7.7734-0.94531-2.1445 1.4688-4.3594 2.9102-6.6797 4.0898zm35.949 3.1133c-1.2852-0.046875-2.543-0.11328-3.7578-0.20312-3.5703-0.26953-6.9219-1.2188-10.246-2.9062-2.3203-1.1797-4.5352-2.6211-6.6797-4.0859 2.5938 0.18359 5.2227 0.42969 7.7734 0.94531 3.6523 0.73828 6.8711 2.0742 9.8359 4.082 1.0117 0.67969 2.0391 1.4062 3.0742 2.168zm4.8359-15.02c-4.25 2.5508-8.7969 4.1523-13.895 4.8984-4 0.58203-8.0977 0.6875-12.102 0.73047 3.4141-2.0938 6.9375-4.1836 10.637-5.8125 4.7148-2.082 9.418-3.1445 14.371-3.2422 0.83203-0.015625 1.6797-0.023437 2.5352-0.023437 1.25 0 2.5234 0.019531 3.8164 0.054687-1.8047 1.1953-3.6016 2.3359-5.3633 3.3945z"/>
</svg>
