<?xml version="1.0" encoding="UTF-8"?>
<!DOCTYPE svg PUBLIC "-//W3C//DTD SVG 1.1//EN" "http://www.w3.org/Graphics/SVG/1.1/DTD/svg11.dtd">
<!-- Creator: CorelDRAW X6 -->
<svg xmlns="http://www.w3.org/2000/svg" xml:space="preserve" width="297mm" height="210mm" version="1.1" style="shape-rendering:geometricPrecision; text-rendering:geometricPrecision; image-rendering:optimizeQuality; fill-rule:evenodd; clip-rule:evenodd"
viewBox="0 0 29700 21000"
 xmlns:xlink="http://www.w3.org/1999/xlink">
 <defs>
  <style type="text/css">
   <![CDATA[
    .fil3 {fill:#A79ECD}
    .fil2 {fill:#EF7F1A}
    .fil1 {fill:#F3E209}
    .fil0 {fill:#037C48;fill-rule:nonzero}
   ]]>
  </style>
 </defs>
 <g id="Слой_x0020_1">
  <metadata id="CorelCorpID_0Corel-Layer"/>
  <path class="fil0" d="M13458 10113c-43,141 -62,244 -59,308 4,64 21,99 51,104 48,10 96,-17 144,-81 48,-64 93,-143 136,-236l79 0c-43,108 -87,197 -132,267 -45,69 -92,124 -140,164 -48,40 -96,68 -144,83 -48,15 -96,23 -144,23 -45,0 -90,-9 -134,-28 -44,-19 -79,-54 -104,-104 -25,-50 -38,-120 -38,-208 0,-88 21,-203 64,-344l129 -439 -628 344c-50,149 -106,289 -166,422 -61,132 -129,248 -204,348 -76,100 -161,179 -255,238 -95,59 -202,89 -323,89 -66,0 -129,-9 -189,-26 -61,-18 -112,-46 -153,-85 -42,-39 -70,-89 -85,-151 -15,-62 -11,-138 11,-229 15,-61 45,-108 89,-142 44,-34 93,-57 146,-68 53,-11 105,-12 157,-2 52,10 95,30 129,59 34,29 53,67 57,113 4,47 -16,100 -59,161 -33,-28 -64,-42 -93,-42 -29,0 -54,8 -76,25 -21,16 -38,38 -49,64 -11,26 -14,52 -8,78 6,25 21,47 43,66 23,19 58,28 106,28 66,0 125,-36 178,-108 53,-72 102,-168 147,-287 45,-120 89,-257 132,-412 43,-155 88,-314 136,-476 48,-163 98,-324 151,-484 53,-160 113,-306 182,-439 68,-132 145,-243 231,-333 86,-89 183,-147 291,-172 -63,-28 -136,-47 -219,-57 -83,-10 -169,-15 -257,-15 -164,0 -310,28 -439,85 -129,57 -241,130 -337,221 -96,91 -175,195 -238,312 -63,117 -112,238 -147,361 -35,124 -56,244 -62,361 -6,117 1,221 21,312 20,91 52,165 96,221 44,57 100,85 168,85 40,0 73,-14 98,-43 25,-29 37,-61 36,-96 -1,-35 -19,-67 -53,-96 -34,-29 -90,-43 -168,-43 0,-68 26,-122 79,-161 53,-39 111,-59 174,-61 63,-1 121,18 174,59 53,40 79,106 79,197 0,61 -13,115 -40,164 -26,49 -62,91 -108,127 -45,35 -97,63 -155,83 -58,20 -117,30 -178,30 -149,0 -272,-32 -369,-96 -97,-64 -169,-149 -216,-255 -47,-106 -69,-227 -68,-363 1,-136 25,-274 72,-414 47,-140 115,-278 206,-414 91,-136 203,-257 337,-363 134,-106 287,-191 459,-255 173,-64 365,-96 577,-96 144,0 279,18 407,53 127,35 235,91 323,166 0,3 -1,4 -4,4l-8 0c-81,13 -153,67 -216,164 -63,97 -121,219 -174,365 -53,146 -105,310 -155,492 -50,182 -105,364 -163,548l620 -340 416 -1410 439 0c-101,340 -193,654 -276,942 -35,121 -71,243 -108,365 -37,122 -70,235 -100,338 -30,103 -57,194 -81,272 -24,78 -41,134 -51,166zm594 121c-15,48 -25,86 -30,115 -5,29 -6,52 -2,68 4,16 10,28 19,34 9,6 18,11 28,13 23,8 56,-2 100,-28 44,-26 81,-72 112,-138l53 0c-30,78 -66,144 -106,199 -40,54 -82,98 -125,132 -43,34 -86,59 -129,74 -43,15 -82,23 -117,23 -33,0 -64,-7 -95,-21 -30,-14 -55,-38 -74,-74 -19,-35 -28,-85 -26,-149 1,-64 17,-147 47,-248l291 -938 340 0c-43,141 -83,272 -121,393 -33,106 -65,211 -96,314 -32,103 -55,180 -70,231zm499 -1475c0,63 -23,117 -68,163 -45,45 -98,68 -159,68 -66,0 -120,-23 -164,-68 -44,-45 -66,-100 -66,-163 0,-66 22,-120 66,-163 44,-43 99,-64 164,-64 61,0 113,21 159,64 45,43 68,97 68,163z"/>
  <path class="fil0" d="M12416 11837c-30,96 -42,157 -34,183 8,26 23,42 46,47 28,8 62,-2 102,-28 40,-26 76,-72 106,-138l65 0c-30,78 -66,144 -108,199 -42,54 -85,98 -129,132 -44,34 -87,59 -129,74 -42,15 -79,23 -112,23 -51,0 -96,-14 -137,-42 -40,-28 -63,-82 -68,-163 -51,58 -111,107 -182,146 -71,39 -142,59 -213,59 -51,0 -92,-16 -123,-47 -32,-32 -51,-79 -59,-144 -8,-64 -1,-146 21,-244 22,-98 61,-213 120,-344 40,-93 89,-178 146,-253 57,-76 120,-141 188,-197 68,-55 139,-100 213,-132 73,-33 147,-55 220,-68l250 -817 410 -216c-91,303 -227,742 -300,991 -31,106 -61,212 -93,320 -32,107 -61,205 -87,295 -27,89 -50,166 -70,231 -20,64 -34,109 -42,134zm-383 121c5,-20 9,-40 13,-59 4,-19 10,-40 17,-62l224 -741c-15,-8 -33,-11 -53,-11 -40,0 -82,23 -125,70 -43,47 -84,106 -121,178 -38,72 -73,149 -104,231 -32,82 -54,159 -68,231 -14,72 -18,131 -11,178 6,47 26,70 59,70 28,0 59,-11 93,-32 34,-21 60,-38 78,-51zm1435 -1059c84,0 146,24 186,72 40,48 61,107 63,176 1,69 -15,144 -47,225 -33,81 -80,154 -142,219 -62,66 -137,118 -224,157 -87,39 -184,52 -290,40 -8,96 0,176 23,242 23,66 70,98 140,98 84,0 163,-26 237,-78 75,-52 141,-110 199,-176 66,-76 127,-161 182,-257l61 0c-61,134 -133,251 -216,352 -35,45 -75,89 -118,130 -43,42 -90,79 -140,112 -51,33 -105,59 -163,79 -58,20 -119,30 -182,30 -119,0 -211,-35 -275,-106 -65,-71 -104,-158 -118,-263 -14,-105 -6,-219 25,-342 30,-124 82,-238 154,-342 72,-105 163,-192 271,-263 109,-71 234,-106 376,-106zm-80 106c-33,0 -68,20 -104,61 -37,40 -71,92 -104,155 -33,63 -63,134 -89,212 -27,78 -47,155 -63,231 43,15 85,9 127,-17 42,-26 80,-64 116,-113 35,-49 66,-104 93,-164 27,-61 46,-118 57,-172 11,-54 15,-100 11,-136 -4,-37 -18,-55 -44,-55zm660 832c-30,96 -42,157 -34,183 8,26 22,42 42,47 28,8 63,-2 104,-28 42,-26 78,-72 108,-138l61 0c-30,78 -66,144 -106,199 -40,54 -83,98 -127,132 -44,34 -87,59 -129,74 -42,15 -79,23 -112,23 -35,0 -69,-7 -101,-21 -32,-14 -57,-38 -76,-74 -19,-35 -28,-85 -28,-149 0,-64 15,-147 46,-248l547 -1808 345 0c-91,303 -173,579 -247,828 -33,106 -65,212 -97,320 -32,107 -61,205 -87,295 -27,89 -49,166 -68,231 -19,64 -32,109 -40,134zm573 0c-15,48 -25,86 -30,115 -5,29 -6,52 -2,68 4,16 10,28 19,34 9,6 18,11 28,13 23,8 56,-2 101,-28 44,-26 82,-72 112,-138l53 0c-30,78 -66,144 -106,199 -40,54 -82,98 -125,132 -43,34 -86,59 -129,74 -43,15 -82,23 -118,23 -33,0 -65,-7 -95,-21 -30,-14 -55,-38 -74,-74 -19,-35 -28,-85 -27,-149 1,-64 17,-147 47,-248l292 -938 342 0c-43,141 -84,272 -121,393 -33,106 -65,211 -97,314 -32,103 -55,180 -70,231zm501 -1475c0,63 -23,117 -68,163 -46,45 -99,68 -159,68 -66,0 -121,-23 -165,-68 -44,-45 -66,-100 -66,-163 0,-66 22,-120 66,-163 44,-43 99,-64 165,-64 61,0 114,21 159,64 46,43 68,97 68,163zm721 552c-15,91 -16,161 -2,212 14,50 37,86 68,106 32,20 68,28 108,25 40,-4 80,-14 118,-32 -68,81 -135,144 -199,189 -65,45 -125,76 -180,91 -28,98 -64,196 -108,293 -44,97 -95,185 -152,265 -57,79 -121,144 -192,193 -71,49 -147,74 -228,74 -84,0 -145,-15 -186,-43 -40,-29 -66,-71 -76,-125 -10,-54 -7,-120 9,-199 16,-78 39,-166 66,-265l247 -798 345 0c-35,116 -68,224 -99,325 -28,88 -55,177 -82,267 -27,90 -49,158 -66,206 -18,61 -35,117 -51,170 -16,53 -27,99 -32,138 -5,39 -4,71 4,95 8,24 25,36 53,36 38,0 78,-18 120,-55 42,-37 82,-84 120,-142 38,-58 73,-125 104,-200 32,-76 58,-153 78,-231 -53,-15 -94,-52 -123,-110 -29,-58 -41,-136 -36,-234l372 -250zm778 -15c84,0 146,24 186,72 40,48 61,107 63,176 1,69 -15,144 -47,225 -33,81 -80,154 -142,219 -62,66 -137,118 -224,157 -87,39 -184,52 -290,40 -8,96 0,176 23,242 23,66 70,98 140,98 84,0 163,-26 237,-78 75,-52 141,-110 199,-176 66,-76 127,-161 182,-257l61 0c-61,134 -133,251 -216,352 -35,45 -75,89 -118,130 -43,42 -90,79 -140,112 -51,33 -105,59 -163,79 -58,20 -119,30 -182,30 -119,0 -211,-35 -275,-106 -65,-71 -104,-158 -118,-263 -14,-105 -6,-219 25,-342 30,-124 82,-238 154,-342 72,-105 163,-192 271,-263 109,-71 234,-106 376,-106zm-80 106c-33,0 -68,20 -104,61 -37,40 -71,92 -104,155 -33,63 -63,134 -89,212 -27,78 -47,155 -63,231 43,15 85,9 127,-17 42,-26 80,-64 116,-113 35,-49 66,-104 93,-164 27,-61 46,-118 57,-172 11,-54 15,-100 11,-136 -4,-37 -18,-55 -44,-55zm937 -106l-53 170 326 -216c-15,91 -16,161 -2,210 14,49 36,84 66,106 30,21 66,30 106,26 40,-4 80,-14 118,-32 -81,96 -159,167 -235,214 -76,47 -144,72 -203,76 -59,4 -109,-14 -148,-53 -39,-39 -64,-99 -74,-180l-334 1119 -345 0 433 -1441 345 0zm558 1301c-63,86 -137,129 -220,129 -35,0 -69,-7 -101,-21 -32,-14 -57,-38 -76,-74 -19,-35 -28,-85 -27,-149 1,-64 18,-147 51,-248l285 -938 342 0c-43,141 -82,272 -118,393 -33,106 -65,211 -95,314 -30,103 -53,180 -68,231 -30,96 -44,158 -42,187 3,29 14,43 34,43 13,0 32,-19 59,-57 27,-38 50,-81 70,-129 33,-111 67,-224 102,-338 35,-115 67,-220 95,-316 33,-111 65,-221 95,-329l345 0c-43,149 -87,300 -133,454 -38,131 -79,272 -123,424 -44,151 -88,295 -131,431 -33,108 -69,211 -108,306 -39,96 -86,180 -140,253 -54,73 -118,131 -192,174 -73,43 -159,64 -258,64 -66,0 -125,-11 -176,-34 -52,-23 -93,-53 -123,-91 -30,-38 -50,-81 -59,-130 -9,-49 -3,-101 17,-157 28,-81 74,-135 139,-163 65,-28 127,-35 186,-23 59,13 106,43 140,93 34,49 35,109 2,180 -56,-38 -102,-47 -139,-28 -37,19 -62,47 -76,83 -14,37 -13,73 2,110 15,37 47,55 95,55 43,0 81,-23 114,-68 33,-45 63,-103 89,-172 27,-69 51,-145 74,-227 23,-82 46,-159 68,-233z"/>
  <g id="_806731440">
   <path class="fil1" d="M16749 10123c273,0 494,222 494,496l0 7 899 0 0 -7c0,-12 0,-24 0,-36 0,-12 -1,-24 -1,-36 -1,-12 -1,-24 -2,-36l0 0c-1,-12 -2,-24 -3,-35 -1,-12 -3,-23 -4,-35l0 0c-1,-12 -3,-23 -5,-35 -2,-12 -4,-23 -6,-35 -2,-11 -4,-23 -7,-34l0 0c-2,-11 -5,-23 -7,-34 -3,-11 -5,-22 -8,-34 -3,-11 -6,-22 -9,-33l0 0c-3,-11 -6,-22 -10,-33l0 0c-3,-11 -7,-22 -11,-33 -4,-11 -7,-22 -11,-32l0 0c-4,-11 -8,-21 -12,-32 -4,-11 -8,-21 -13,-32l0 0c-4,-10 -9,-21 -14,-31 -5,-10 -9,-21 -14,-31 -5,-10 -10,-20 -15,-30l0 0c-5,-10 -10,-20 -16,-30l0 0c-5,-10 -11,-20 -16,-30l0 0c-6,-10 -11,-19 -17,-29 -6,-10 -12,-19 -18,-29l0 0c-6,-9 -12,-19 -18,-28l0 0c-6,-9 -13,-19 -19,-28l0 0c-6,-9 -13,-18 -20,-27l0 0c-7,-9 -13,-18 -20,-27 -7,-9 -14,-18 -21,-26 -14,-17 -29,-34 -44,-51l0 0c-8,-8 -15,-16 -23,-25 -8,-8 -15,-16 -23,-24 -8,-8 -16,-16 -24,-23 -8,-8 -16,-15 -24,-23l0 0c-16,-15 -33,-30 -51,-44 -9,-7 -17,-14 -26,-21 -9,-7 -18,-14 -27,-20l0 0c-9,-7 -18,-13 -27,-20l0 0c-9,-7 -18,-13 -28,-19l0 0c-9,-6 -19,-12 -28,-19l0 0c-9,-6 -19,-12 -28,-18 -10,-6 -19,-12 -29,-17l0 0c-10,-6 -20,-11 -29,-16l0 0c-10,-5 -20,-11 -30,-16l0 0c-10,-5 -20,-10 -30,-15 -10,-5 -20,-10 -31,-14 -10,-5 -21,-9 -31,-14l0 0c-10,-4 -21,-9 -31,-13 -11,-4 -21,-8 -32,-12l0 0c-11,-4 -21,-8 -32,-11 -11,-4 -22,-7 -33,-11l0 0c-11,-3 -22,-7 -33,-10l0 0c-11,-3 -22,-6 -33,-9 -11,-3 -22,-6 -34,-8 -11,-3 -23,-5 -34,-7l0 0c-11,-2 -23,-5 -34,-7 -11,-2 -23,-4 -34,-6 -12,-2 -23,-3 -35,-5l0 0c-12,-1 -23,-3 -35,-4 -12,-1 -23,-2 -35,-3l0 0c-12,-1 -24,-2 -36,-2 -12,-1 -24,-1 -36,-1 -12,0 -24,0 -36,0 -12,0 -24,0 -36,0 -12,0 -24,1 -36,1 -12,1 -24,1 -36,2l0 0c-12,1 -24,2 -35,3 -12,1 -23,3 -35,4l0 0c-12,1 -23,3 -35,5 -12,2 -23,4 -34,6 -11,2 -23,4 -34,7l0 0c-11,2 -23,5 -34,7 -11,3 -22,5 -34,8 -11,3 -22,6 -33,9l0 0c-11,3 -22,6 -33,10l0 0c-11,3 -22,7 -33,11 -11,4 -22,7 -32,11l0 0c-11,4 -21,8 -32,12 -11,4 -21,8 -31,13l0 0c-10,4 -21,9 -31,14 -10,5 -21,9 -31,14 -10,5 -20,10 -30,15l0 0c-10,5 -20,10 -30,16l0 0c-10,5 -20,11 -29,16l0 0c-10,6 -19,11 -29,17 -10,6 -19,12 -28,18l0 0c-9,6 -19,12 -28,19l0 0c-9,6 -18,13 -28,19l0 0c-9,7 -18,13 -27,20l0 0c-9,7 -18,14 -27,20 -9,7 -17,14 -26,21 -17,14 -34,29 -51,44l0 0c-8,8 -16,15 -24,23 -8,8 -16,16 -24,23 -8,8 -16,16 -23,24 -8,8 -15,16 -23,25l0 0c-15,17 -30,33 -44,51 -7,9 -14,17 -21,26 -7,9 -14,18 -20,27l0 0c-7,9 -13,18 -20,27l0 0c-6,9 -13,18 -19,28l0 0c-6,9 -12,19 -18,28l0 0c-6,9 -12,19 -18,29 -6,10 -12,19 -17,29l0 0c-6,10 -11,20 -16,30l0 0c-5,10 -11,20 -16,30l0 0c-5,10 -10,20 -15,30 -5,10 -10,20 -14,31 -5,10 -9,21 -14,31l0 0c-4,10 -9,21 -13,32 -4,11 -8,21 -12,32l0 0c-4,11 -8,22 -11,32 -4,11 -7,22 -11,33l0 0c-3,11 -7,22 -10,33l0 0c-3,11 -6,22 -9,33 -3,11 -6,22 -8,34 -3,11 -5,23 -7,34l0 0c-2,11 -5,23 -7,34 -2,11 -4,23 -6,35 -2,12 -3,23 -5,35l0 0c-1,12 -3,23 -4,35 -1,12 -2,24 -3,35l0 0c-1,12 -2,24 -2,36 -1,12 -1,24 -1,36 0,12 0,24 0,36l0 7 899 0 0 -7c0,-274 221,-496 494,-496z"/>
   <path class="fil2" d="M16708 8525c1152,0 2086,937 2086,2094l0 7 -495 0 0 -7c0,-882 -712,-1597 -1591,-1597 -706,0 -1304,461 -1512,1099 -59,-206 -371,-245 -493,-84 251,-873 1054,-1512 2005,-1512z"/>
   <path class="fil3" d="M16749 10348c153,0 277,124 277,278 0,0 -554,0 -554,0 0,-153 124,-278 277,-278z"/>
  </g>
 </g>
</svg>
