<?xml version="1.0" encoding="UTF-8"?>
<!DOCTYPE svg PUBLIC "-//W3C//DTD SVG 1.1//EN" "http://www.w3.org/Graphics/SVG/1.1/DTD/svg11.dtd">
<!-- Creator: CorelDRAW X6 -->
<svg xmlns="http://www.w3.org/2000/svg" xml:space="preserve" width="297mm" height="210mm" version="1.1" style="shape-rendering:geometricPrecision; text-rendering:geometricPrecision; image-rendering:optimizeQuality; fill-rule:evenodd; clip-rule:evenodd"
viewBox="0 0 29700 21000"
 xmlns:xlink="http://www.w3.org/1999/xlink">
 <defs>
  <style type="text/css">
   <![CDATA[
    .fil3 {fill:#A79ECD}
    .fil2 {fill:#EF7F1A}
    .fil1 {fill:#F3E209}
    .fil0 {fill:#037C48;fill-rule:nonzero}
   ]]>
  </style>
 </defs>
 <g id="Слой_x0020_1">
  <metadata id="CorelCorpID_0Corel-Layer"/>
  <path class="fil0" d="M14221 11088c-43,141 -62,244 -59,308 4,64 21,99 51,104 48,10 96,-17 144,-81 48,-64 93,-143 136,-236l79 0c-43,108 -87,197 -132,267 -45,69 -92,124 -140,164 -48,40 -96,68 -144,83 -48,15 -96,23 -144,23 -45,0 -90,-9 -134,-28 -44,-19 -79,-54 -104,-104 -25,-50 -38,-120 -38,-208 0,-88 21,-203 64,-344l129 -439 -628 344c-50,149 -106,289 -166,422 -61,132 -129,248 -204,348 -76,100 -161,179 -255,238 -95,59 -202,89 -323,89 -66,0 -129,-9 -189,-26 -61,-18 -112,-46 -153,-85 -42,-39 -70,-89 -85,-151 -15,-62 -11,-138 11,-229 15,-61 45,-108 89,-142 44,-34 93,-57 146,-68 53,-11 105,-12 157,-2 52,10 95,30 129,59 34,29 53,67 57,113 4,47 -16,100 -59,161 -33,-28 -64,-42 -93,-42 -29,0 -54,8 -76,25 -21,16 -38,38 -49,64 -11,26 -14,52 -8,78 6,25 21,47 43,66 23,19 58,28 106,28 66,0 125,-36 178,-108 53,-72 102,-168 147,-287 45,-120 89,-257 132,-412 43,-155 88,-314 136,-476 48,-163 98,-324 151,-484 53,-160 113,-306 182,-439 68,-132 145,-243 231,-333 86,-89 183,-147 291,-172 -63,-28 -136,-47 -219,-57 -83,-10 -169,-15 -257,-15 -164,0 -310,28 -439,85 -129,57 -241,130 -337,221 -96,91 -175,195 -238,312 -63,117 -112,238 -147,361 -35,124 -56,244 -62,361 -6,117 1,221 21,312 20,91 52,165 96,221 44,57 100,85 168,85 40,0 73,-14 98,-43 25,-29 37,-61 36,-96 -1,-35 -19,-67 -53,-96 -34,-29 -90,-43 -168,-43 0,-68 26,-122 79,-161 53,-39 111,-59 174,-61 63,-1 121,18 174,59 53,40 79,106 79,197 0,61 -13,115 -40,164 -26,49 -62,91 -108,127 -45,35 -97,63 -155,83 -58,20 -117,30 -178,30 -149,0 -272,-32 -369,-96 -97,-64 -169,-149 -216,-255 -47,-106 -69,-227 -68,-363 1,-136 25,-274 72,-414 47,-140 115,-278 206,-414 91,-136 203,-257 337,-363 134,-106 287,-191 459,-255 173,-64 365,-96 577,-96 144,0 279,18 407,53 127,35 235,91 323,166 0,3 -1,4 -4,4l-8 0c-81,13 -153,67 -216,164 -63,97 -121,219 -174,365 -53,146 -105,310 -155,492 -50,182 -105,364 -163,548l620 -340 416 -1410 439 0c-101,340 -193,654 -276,942 -35,121 -71,243 -108,365 -37,122 -70,235 -100,338 -30,103 -57,194 -81,272 -24,78 -41,134 -51,166zm594 121c-15,48 -25,86 -30,115 -5,29 -6,52 -2,68 4,16 10,28 19,34 9,6 18,11 28,13 23,8 56,-2 100,-28 44,-26 81,-72 112,-138l53 0c-30,78 -66,144 -106,199 -40,54 -82,98 -125,132 -43,34 -86,59 -129,74 -43,15 -82,23 -117,23 -33,0 -64,-7 -95,-21 -30,-14 -55,-38 -74,-74 -19,-35 -28,-85 -26,-149 1,-64 17,-147 47,-248l291 -938 340 0c-43,141 -83,272 -121,393 -33,106 -65,211 -96,314 -32,103 -55,180 -70,231zm499 -1475c0,63 -23,117 -68,163 -45,45 -98,68 -159,68 -66,0 -120,-23 -164,-68 -44,-45 -66,-100 -66,-163 0,-66 22,-120 66,-163 44,-43 99,-64 164,-64 61,0 113,21 159,64 45,43 68,97 68,163z"/>
  <g id="_809982992">
   <path class="fil1" d="M16522 11140c197,0 357,161 357,359l0 5 650 0 0 -5c0,-9 0,-17 0,-26 0,-9 -1,-17 -1,-26 0,-9 -1,-17 -2,-26l0 0c-1,-9 -1,-17 -2,-26 -1,-9 -2,-17 -3,-25l0 0c-1,-8 -2,-17 -4,-25 -1,-8 -3,-17 -4,-25 -1,-8 -3,-17 -5,-25l0 0c-2,-8 -3,-16 -5,-25 -2,-8 -4,-16 -6,-24 -2,-8 -4,-16 -7,-24l0 0c-2,-8 -5,-16 -7,-24l0 0c-2,-8 -5,-16 -8,-24 -3,-8 -5,-16 -8,-23l0 0c-3,-8 -6,-15 -9,-23 -3,-8 -6,-15 -9,-23l0 0c-3,-8 -6,-15 -10,-23 -3,-7 -7,-15 -10,-22 -4,-7 -7,-15 -11,-22l0 0c-4,-7 -8,-14 -11,-22l0 0c-4,-7 -8,-14 -12,-21l0 0c-4,-7 -8,-14 -12,-21 -4,-7 -9,-14 -13,-21l0 0c-4,-7 -9,-14 -13,-20l0 0c-5,-7 -9,-13 -14,-20l0 0c-5,-7 -9,-13 -14,-20l0 0c-5,-6 -10,-13 -15,-19 -5,-6 -10,-13 -15,-19 -10,-12 -21,-25 -32,-37l0 0c-5,-6 -11,-12 -16,-18 -6,-6 -11,-12 -17,-17 -6,-6 -11,-11 -17,-17 -6,-6 -12,-11 -18,-17l0 0c-12,-11 -24,-21 -37,-32 -6,-5 -12,-10 -19,-15 -6,-5 -13,-10 -19,-15l0 0c-6,-5 -13,-10 -20,-14l0 0c-7,-5 -13,-9 -20,-14l0 0c-7,-5 -13,-9 -20,-13l0 0c-7,-4 -14,-9 -21,-13 -7,-4 -14,-8 -21,-12l0 0c-7,-4 -14,-8 -21,-12l0 0c-7,-4 -14,-8 -22,-11l0 0c-7,-4 -15,-7 -22,-11 -7,-4 -15,-7 -22,-10 -7,-3 -15,-7 -22,-10l0 0c-8,-3 -15,-6 -23,-9 -8,-3 -15,-6 -23,-9l0 0c-8,-3 -15,-6 -23,-8 -8,-3 -16,-5 -24,-8l0 0c-8,-2 -16,-5 -24,-7l0 0c-8,-2 -16,-4 -24,-7 -8,-2 -16,-4 -24,-6 -8,-2 -16,-4 -24,-5l0 0c-8,-2 -16,-3 -25,-5 -8,-1 -17,-3 -25,-4 -8,-1 -17,-2 -25,-4l0 0c-8,-1 -17,-2 -25,-3 -8,-1 -17,-2 -25,-2l0 0c-9,-1 -17,-1 -26,-2 -9,0 -17,-1 -26,-1 -9,0 -17,0 -26,0 -9,0 -17,0 -26,0 -9,0 -17,1 -26,1 -9,0 -17,1 -26,2l0 0c-9,1 -17,1 -25,2 -8,1 -17,2 -25,3l0 0c-8,1 -17,2 -25,4 -8,1 -17,3 -25,4 -8,1 -16,3 -25,5l0 0c-8,2 -16,3 -24,5 -8,2 -16,4 -24,6 -8,2 -16,4 -24,7l0 0c-8,2 -16,5 -24,7l0 0c-8,2 -16,5 -24,8 -8,3 -16,5 -23,8l0 0c-8,3 -15,6 -23,9 -8,3 -15,6 -23,9l0 0c-8,3 -15,6 -22,10 -7,3 -15,7 -22,10 -7,4 -15,7 -22,11l0 0c-7,4 -14,8 -22,11l0 0c-7,4 -14,8 -21,12l0 0c-7,4 -14,8 -21,12 -7,4 -14,9 -21,13l0 0c-7,4 -14,9 -20,13l0 0c-7,5 -13,9 -20,14l0 0c-7,5 -13,9 -20,14l0 0c-6,5 -13,10 -19,15 -6,5 -13,10 -19,15 -12,10 -25,21 -37,32l0 0c-6,5 -12,11 -18,17 -6,6 -12,11 -17,17 -6,6 -11,12 -17,17 -6,6 -11,12 -16,18l0 0c-11,12 -21,24 -32,37 -5,6 -10,13 -15,19 -5,6 -10,13 -15,19l0 0c-5,6 -10,13 -14,20l0 0c-5,7 -9,13 -14,20l0 0c-5,7 -9,13 -13,20l0 0c-4,7 -9,14 -13,21 -4,7 -8,14 -12,21l0 0c-4,7 -8,14 -12,21l0 0c-4,7 -8,14 -11,22l0 0c-4,7 -7,15 -11,22 -4,7 -7,15 -10,22 -3,7 -7,15 -10,23l0 0c-3,8 -6,15 -9,23 -3,8 -6,15 -9,23l0 0c-3,8 -6,16 -8,23 -3,8 -5,16 -8,24l0 0c-2,8 -5,16 -7,24l0 0c-2,8 -4,16 -6,24 -2,8 -4,16 -6,24 -2,8 -4,16 -5,25l0 0c-2,8 -3,16 -5,25 -1,8 -3,17 -4,25 -1,8 -2,17 -4,25l0 0c-1,8 -2,17 -3,25 -1,8 -2,17 -2,26l0 0c-1,9 -1,17 -2,26 0,9 -1,17 -1,26 0,9 0,17 0,26l0 5 650 0 0 -5c0,-198 160,-359 357,-359z"/>
   <path class="fil2" d="M16492 9985c833,0 1508,678 1508,1513l0 5 -358 0 0 -5c0,-637 -515,-1154 -1150,-1154 -510,0 -942,333 -1093,795 -43,-149 -268,-177 -356,-61 182,-631 761,-1093 1449,-1093z"/>
   <path class="fil3" d="M16522 11303c111,0 200,90 200,201 0,0 -400,0 -400,0 0,-111 90,-201 200,-201z"/>
  </g>
 </g>
</svg>
