<?xml version="1.0" encoding="UTF-8"?>
<!DOCTYPE svg PUBLIC "-//W3C//DTD SVG 1.1//EN" "http://www.w3.org/Graphics/SVG/1.1/DTD/svg11.dtd">
<!-- Creator: CorelDRAW X6 -->
<svg xmlns="http://www.w3.org/2000/svg" xml:space="preserve" width="297mm" height="210mm" version="1.1" style="shape-rendering:geometricPrecision; text-rendering:geometricPrecision; image-rendering:optimizeQuality; fill-rule:evenodd; clip-rule:evenodd"
viewBox="0 0 29700 21000"
 xmlns:xlink="http://www.w3.org/1999/xlink">
 <defs>
  <style type="text/css">
   <![CDATA[
    .fil2 {fill:#A79ECD}
    .fil1 {fill:#EF7F1A}
    .fil3 {fill:#FEFEFE}
    .fil0 {fill:#F3E209}
   ]]>
  </style>
 </defs>
 <g id="Слой_x0020_1">
  <metadata id="CorelCorpID_0Corel-Layer"/>
  <g id="_806720880">
   <g>
    <path class="fil0" d="M14868 10896c197,0 357,161 357,359l0 5 650 0 0 -5c0,-9 0,-17 0,-26 0,-9 -1,-17 -1,-26 0,-9 -1,-17 -2,-26l0 0c-1,-9 -1,-17 -2,-26 -1,-9 -2,-17 -3,-25l0 0c-1,-8 -2,-17 -4,-25 -1,-8 -3,-17 -4,-25 -1,-8 -3,-17 -5,-25l0 0c-2,-8 -3,-16 -5,-25 -2,-8 -4,-16 -6,-24 -2,-8 -4,-16 -7,-24l0 0c-2,-8 -5,-16 -7,-24l0 0c-2,-8 -5,-16 -8,-24 -3,-8 -5,-16 -8,-23l0 0c-3,-8 -6,-15 -9,-23 -3,-8 -6,-15 -9,-23l0 0c-3,-8 -6,-15 -10,-23 -3,-7 -7,-15 -10,-22 -4,-7 -7,-15 -11,-22l0 0c-4,-7 -8,-14 -11,-22l0 0c-4,-7 -8,-14 -12,-21l0 0c-4,-7 -8,-14 -12,-21 -4,-7 -9,-14 -13,-21l0 0c-4,-7 -9,-14 -13,-20l0 0c-5,-7 -9,-13 -14,-20l0 0c-5,-7 -9,-13 -14,-20l0 0c-5,-6 -10,-13 -15,-19 -5,-6 -10,-13 -15,-19 -10,-12 -21,-25 -32,-37l0 0c-5,-6 -11,-12 -16,-18 -6,-6 -11,-12 -17,-17 -6,-6 -11,-11 -17,-17 -6,-6 -12,-11 -18,-17l0 0c-12,-11 -24,-21 -37,-32 -6,-5 -12,-10 -19,-15 -6,-5 -13,-10 -19,-15l0 0c-6,-5 -13,-10 -20,-14l0 0c-7,-5 -13,-9 -20,-14l0 0c-7,-5 -13,-9 -20,-13l0 0c-7,-4 -14,-9 -21,-13 -7,-4 -14,-8 -21,-12l0 0c-7,-4 -14,-8 -21,-12l0 0c-7,-4 -14,-8 -22,-11l0 0c-7,-4 -15,-7 -22,-11 -7,-4 -15,-7 -22,-10 -7,-3 -15,-7 -22,-10l0 0c-8,-3 -15,-6 -23,-9 -8,-3 -15,-6 -23,-9l0 0c-8,-3 -15,-6 -23,-8 -8,-3 -16,-5 -24,-8l0 0c-8,-2 -16,-5 -24,-7l0 0c-8,-2 -16,-4 -24,-7 -8,-2 -16,-4 -24,-6 -8,-2 -16,-4 -24,-5l0 0c-8,-2 -16,-3 -25,-5 -8,-1 -17,-3 -25,-4 -8,-1 -17,-2 -25,-4l0 0c-8,-1 -17,-2 -25,-3 -8,-1 -17,-2 -25,-2l0 0c-9,-1 -17,-1 -26,-2 -9,0 -17,-1 -26,-1 -9,0 -17,0 -26,0 -9,0 -17,0 -26,0 -9,0 -17,1 -26,1 -9,0 -17,1 -26,2l0 0c-9,1 -17,1 -25,2 -8,1 -17,2 -25,3l0 0c-8,1 -17,2 -25,4 -8,1 -17,3 -25,4 -8,1 -16,3 -25,5l0 0c-8,2 -16,3 -24,5 -8,2 -16,4 -24,6 -8,2 -16,4 -24,7l0 0c-8,2 -16,5 -24,7l0 0c-8,2 -16,5 -24,8 -8,3 -16,5 -23,8l0 0c-8,3 -15,6 -23,9 -8,3 -15,6 -23,9l0 0c-8,3 -15,6 -22,10 -7,3 -15,7 -22,10 -7,4 -15,7 -22,11l0 0c-7,4 -14,8 -22,11l0 0c-7,4 -14,8 -21,12l0 0c-7,4 -14,8 -21,12 -7,4 -14,9 -21,13l0 0c-7,4 -14,9 -20,13l0 0c-7,5 -13,9 -20,14l0 0c-7,5 -13,9 -20,14l0 0c-6,5 -13,10 -19,15 -6,5 -13,10 -19,15 -12,10 -25,21 -37,32l0 0c-6,5 -12,11 -18,17 -6,6 -12,11 -17,17 -6,6 -11,12 -17,17 -6,6 -11,12 -16,18l0 0c-11,12 -21,24 -32,37 -5,6 -10,13 -15,19 -5,6 -10,13 -15,19l0 0c-5,6 -10,13 -14,20l0 0c-5,7 -9,13 -14,20l0 0c-5,7 -9,13 -13,20l0 0c-4,7 -9,14 -13,21 -4,7 -8,14 -12,21l0 0c-4,7 -8,14 -12,21l0 0c-4,7 -8,14 -11,22l0 0c-4,7 -7,15 -11,22 -4,7 -7,15 -10,22 -3,7 -7,15 -10,23l0 0c-3,8 -6,15 -9,23 -3,8 -6,15 -9,23l0 0c-3,8 -6,16 -8,23 -3,8 -5,16 -8,24l0 0c-2,8 -5,16 -7,24l0 0c-2,8 -4,16 -6,24 -2,8 -4,16 -6,24 -2,8 -4,16 -5,25l0 0c-2,8 -3,16 -5,25 -1,8 -3,17 -4,25 -1,8 -2,17 -4,25l0 0c-1,8 -2,17 -3,25 -1,8 -2,17 -2,26l0 0c-1,9 -1,17 -2,26 0,9 -1,17 -1,26 0,9 0,17 0,26l0 5 650 0 0 -5c0,-198 160,-359 357,-359z"/>
    <path class="fil1" d="M14839 9741c833,0 1508,678 1508,1513l0 5 -358 0 0 -5c0,-637 -515,-1154 -1150,-1154 -510,0 -942,333 -1093,795 -43,-149 -268,-177 -356,-61 182,-631 761,-1093 1449,-1093z"/>
    <path class="fil2" d="M14868 11058c111,0 200,90 200,201 0,0 -400,0 -400,0 0,-111 90,-201 200,-201z"/>
   </g>
   <circle class="fil3" cx="13533" cy="11075" r="180"/>
  </g>
 </g>
</svg>
