<?xml version="1.0" encoding="utf-8"?>
<svg viewBox="-3184 -1408 6730 3282" xmlns="http://www.w3.org/2000/svg">
  <defs>
    <style type="text/css">
   
    .fil3 {fill:#A79ECD}
    .fil2 {fill:#EF7F1A}
    .fil1 {fill:#F3E209}
    .fil0 {fill:#037C48;fill-rule:nonzero}
   
  </style>
  </defs>
  <path class="fil0" d="M -377.5 836 C -420.5 977 -439.5 1080 -436.5 1144 C -432.5 1208 -415.5 1243 -385.5 1248 C -337.5 1258 -289.5 1231 -241.5 1167 C -193.5 1103 -148.5 1024 -105.5 931 L -26.5 931 C -69.5 1039 -113.5 1128 -158.5 1198 C -203.5 1267 -250.5 1322 -298.5 1362 C -346.5 1402 -394.5 1430 -442.5 1445 C -490.5 1460 -538.5 1468 -586.5 1468 C -631.5 1468 -676.5 1459 -720.5 1440 C -764.5 1421 -799.5 1386 -824.5 1336 C -849.5 1286 -862.5 1216 -862.5 1128 C -862.5 1040 -841.5 925 -798.5 784 L -669.5 345 L -1297.5 689 C -1347.5 838 -1403.5 978 -1463.5 1111 C -1524.5 1243 -1592.5 1359 -1667.5 1459 C -1743.5 1559 -1828.5 1638 -1922.5 1697 C -2017.5 1756 -2124.5 1786 -2245.5 1786 C -2311.5 1786 -2374.5 1777 -2434.5 1760 C -2495.5 1742 -2546.5 1714 -2587.5 1675 C -2629.5 1636 -2657.5 1586 -2672.5 1524 C -2687.5 1462 -2683.5 1386 -2661.5 1295 C -2646.5 1234 -2616.5 1187 -2572.5 1153 C -2528.5 1119 -2479.5 1096 -2426.5 1085 C -2373.5 1074 -2321.5 1073 -2269.5 1083 C -2217.5 1093 -2174.5 1113 -2140.5 1142 C -2106.5 1171 -2087.5 1209 -2083.5 1255 C -2079.5 1302 -2099.5 1355 -2142.5 1416 C -2175.5 1388 -2206.5 1374 -2235.5 1374 C -2264.5 1374 -2289.5 1382 -2311.5 1399 C -2332.5 1415 -2349.5 1437 -2360.5 1463 C -2371.5 1489 -2374.5 1515 -2368.5 1541 C -2362.5 1566 -2347.5 1588 -2325.5 1607 C -2302.5 1626 -2267.5 1635 -2219.5 1635 C -2153.5 1635 -2094.5 1599 -2041.5 1527 C -1988.5 1455 -1939.5 1359 -1894.5 1240 C -1849.5 1120 -1805.5 983 -1762.5 828 C -1719.5 673 -1674.5 514 -1626.5 352 C -1578.5 189 -1528.5 28 -1475.5 -132 C -1422.5 -292 -1362.5 -438 -1293.5 -571 C -1225.5 -703 -1148.5 -814 -1062.5 -904 C -976.5 -993 -879.5 -1051 -771.5 -1076 C -834.5 -1104 -907.5 -1123 -990.5 -1133 C -1073.5 -1143 -1159.5 -1148 -1247.5 -1148 C -1411.5 -1148 -1557.5 -1120 -1686.5 -1063 C -1815.5 -1006 -1927.5 -933 -2023.5 -842 C -2119.5 -751 -2198.5 -647 -2261.5 -530 C -2324.5 -413 -2373.5 -292 -2408.5 -169 C -2443.5 -45 -2464.5 75 -2470.5 192 C -2476.5 309 -2469.5 413 -2449.5 504 C -2429.5 595 -2397.5 669 -2353.5 725 C -2309.5 782 -2253.5 810 -2185.5 810 C -2145.5 810 -2112.5 796 -2087.5 767 C -2062.5 738 -2050.5 706 -2051.5 671 C -2052.5 636 -2070.5 604 -2104.5 575 C -2138.5 546 -2194.5 532 -2272.5 532 C -2272.5 464 -2246.5 410 -2193.5 371 C -2140.5 332 -2082.5 312 -2019.5 310 C -1956.5 309 -1898.5 328 -1845.5 369 C -1792.5 409 -1766.5 475 -1766.5 566 C -1766.5 627 -1779.5 681 -1806.5 730 C -1832.5 779 -1868.5 821 -1914.5 857 C -1959.5 892 -2011.5 920 -2069.5 940 C -2127.5 960 -2186.5 970 -2247.5 970 C -2396.5 970 -2519.5 938 -2616.5 874 C -2713.5 810 -2785.5 725 -2832.5 619 C -2879.5 513 -2901.5 392 -2900.5 256 C -2899.5 120 -2875.5 -18 -2828.5 -158 C -2781.5 -298 -2713.5 -436 -2622.5 -572 C -2531.5 -708 -2419.5 -829 -2285.5 -935 C -2151.5 -1041 -1998.5 -1126 -1826.5 -1190 C -1653.5 -1254 -1461.5 -1286 -1249.5 -1286 C -1105.5 -1286 -970.5 -1268 -842.5 -1233 C -715.5 -1198 -607.5 -1142 -519.5 -1067 C -519.5 -1064 -520.5 -1063 -523.5 -1063 L -531.5 -1063 C -612.5 -1050 -684.5 -996 -747.5 -899 C -810.5 -802 -868.5 -680 -921.5 -534 C -974.5 -388 -1026.5 -224 -1076.5 -42 C -1126.5 140 -1181.5 322 -1239.5 506 L -619.5 166 L -203.5 -1244 L 235.5 -1244 C 134.5 -904 42.5 -590 -40.5 -302 C -75.5 -181 -111.5 -59 -148.5 63 C -185.5 185 -218.5 298 -248.5 401 C -278.5 504 -305.5 595 -329.5 673 C -353.5 751 -370.5 807 -380.5 839 Z M 216.5 957 C 201.5 1005 191.5 1043 186.5 1072 C 181.5 1101 180.5 1124 184.5 1140 C 188.5 1156 194.5 1168 203.5 1174 C 212.5 1180 221.5 1185 231.5 1187 C 254.5 1195 287.5 1185 331.5 1159 C 375.5 1133 412.5 1087 443.5 1021 L 496.5 1021 C 466.5 1099 430.5 1165 390.5 1220 C 350.5 1274 308.5 1318 265.5 1352 C 222.5 1386 179.5 1411 136.5 1426 C 93.5 1441 54.5 1449 19.5 1449 C -13.5 1449 -44.5 1442 -75.5 1428 C -105.5 1414 -130.5 1390 -149.5 1354 C -168.5 1319 -177.5 1269 -175.5 1205 C -174.5 1141 -158.5 1058 -128.5 957 L 162.5 19 L 502.5 19 C 459.5 160 419.5 291 381.5 412 C 348.5 518 316.5 623 285.5 726 C 253.5 829 230.5 906 215.5 957 Z M 715.5 -518 C 715.5 -455 692.5 -401 647.5 -355 C 602.5 -310 549.5 -287 488.5 -287 C 422.5 -287 368.5 -310 324.5 -355 C 280.5 -400 258.5 -455 258.5 -518 C 258.5 -584 280.5 -638 324.5 -681 C 368.5 -724 423.5 -745 488.5 -745 C 549.5 -745 601.5 -724 647.5 -681 C 692.5 -638 715.5 -584 715.5 -518 Z"/>
  <path class="fil1" d="M 1923.5 892.16 C 2120.5 892.16 2280.5 1053.16 2280.5 1251.16 L 2280.5 1256.16 L 2930.5 1256.16 L 2930.5 1251.16 C 2930.5 1242.16 2930.5 1234.16 2930.5 1225.16 C 2930.5 1216.16 2929.5 1208.16 2929.5 1199.16 C 2929.5 1190.16 2928.5 1182.16 2927.5 1173.16 L 2927.5 1173.16 C 2926.5 1164.16 2926.5 1156.16 2925.5 1147.16 C 2924.5 1138.16 2923.5 1130.16 2922.5 1122.16 L 2922.5 1122.16 C 2921.5 1114.16 2920.5 1105.16 2918.5 1097.16 C 2917.5 1089.16 2915.5 1080.16 2914.5 1072.16 C 2913.5 1064.16 2911.5 1055.16 2909.5 1047.16 L 2909.5 1047.16 C 2907.5 1039.16 2906.5 1031.16 2904.5 1022.16 C 2902.5 1014.16 2900.5 1006.16 2898.5 998.16 C 2896.5 990.16 2894.5 982.16 2891.5 974.16 L 2891.5 974.16 C 2889.5 966.16 2886.5 958.16 2884.5 950.16 L 2884.5 950.16 C 2882.5 942.16 2879.5 934.16 2876.5 926.16 C 2873.5 918.16 2871.5 910.16 2868.5 903.16 L 2868.5 903.16 C 2865.5 895.16 2862.5 888.16 2859.5 880.16 C 2856.5 872.16 2853.5 865.16 2850.5 857.16 L 2850.5 857.16 C 2847.5 849.16 2844.5 842.16 2840.5 834.16 C 2837.5 827.16 2833.5 819.16 2830.5 812.16 C 2826.5 805.16 2823.5 797.16 2819.5 790.16 L 2819.5 790.16 C 2815.5 783.16 2811.5 776.16 2808.5 768.16 L 2808.5 768.16 C 2804.5 761.16 2800.5 754.16 2796.5 747.16 L 2796.5 747.16 C 2792.5 740.16 2788.5 733.16 2784.5 726.16 C 2780.5 719.16 2775.5 712.16 2771.5 705.16 L 2771.5 705.16 C 2767.5 698.16 2762.5 691.16 2758.5 685.16 L 2758.5 685.16 C 2753.5 678.16 2749.5 672.16 2744.5 665.16 L 2744.5 665.16 C 2739.5 658.16 2735.5 652.16 2730.5 645.16 L 2730.5 645.16 C 2725.5 639.16 2720.5 632.16 2715.5 626.16 C 2710.5 620.16 2705.5 613.16 2700.5 607.16 C 2690.5 595.16 2679.5 582.16 2668.5 570.16 L 2668.5 570.16 C 2663.5 564.16 2657.5 558.16 2652.5 552.16 C 2646.5 546.16 2641.5 540.16 2635.5 535.16 C 2629.5 529.16 2624.5 524.16 2618.5 518.16 C 2612.5 512.16 2606.5 507.16 2600.5 501.16 L 2600.5 501.16 C 2588.5 490.16 2576.5 480.16 2563.5 469.16 C 2557.5 464.16 2551.5 459.16 2544.5 454.16 C 2538.5 449.16 2531.5 444.16 2525.5 439.16 L 2525.5 439.16 C 2519.5 434.16 2512.5 429.16 2505.5 425.16 L 2505.5 425.16 C 2498.5 420.16 2492.5 416.16 2485.5 411.16 L 2485.5 411.16 C 2478.5 406.16 2472.5 402.16 2465.5 398.16 L 2465.5 398.16 C 2458.5 394.16 2451.5 389.16 2444.5 385.16 C 2437.5 381.16 2430.5 377.16 2423.5 373.16 L 2423.5 373.16 C 2416.5 369.16 2409.5 365.16 2402.5 361.16 L 2402.5 361.16 C 2395.5 357.16 2388.5 353.16 2380.5 350.16 L 2380.5 350.16 C 2373.5 346.16 2365.5 343.16 2358.5 339.16 C 2351.5 335.16 2343.5 332.16 2336.5 329.16 C 2329.5 326.16 2321.5 322.16 2314.5 319.16 L 2314.5 319.16 C 2306.5 316.16 2299.5 313.16 2291.5 310.16 C 2283.5 307.16 2276.5 304.16 2268.5 301.16 L 2268.5 301.16 C 2260.5 298.16 2253.5 295.16 2245.5 293.16 C 2237.5 290.16 2229.5 288.16 2221.5 285.16 L 2221.5 285.16 C 2213.5 283.16 2205.5 280.16 2197.5 278.16 L 2197.5 278.16 C 2189.5 276.16 2181.5 274.16 2173.5 271.16 C 2165.5 269.16 2157.5 267.16 2149.5 265.16 C 2141.5 263.16 2133.5 261.16 2125.5 260.16 L 2125.5 260.16 C 2117.5 258.16 2109.5 257.16 2100.5 255.16 C 2092.5 254.16 2083.5 252.16 2075.5 251.16 C 2067.5 250.16 2058.5 249.16 2050.5 247.16 L 2050.5 247.16 C 2042.5 246.16 2033.5 245.16 2025.5 244.16 C 2017.5 243.16 2008.5 242.16 2000.5 242.16 L 2000.5 242.16 C 1991.5 241.16 1983.5 241.16 1974.5 240.16 C 1965.5 240.16 1957.5 239.16 1948.5 239.16 C 1939.5 239.16 1931.5 239.16 1922.5 239.16 C 1913.5 239.16 1905.5 239.16 1896.5 239.16 C 1887.5 239.16 1879.5 240.16 1870.5 240.16 C 1861.5 240.16 1853.5 241.16 1844.5 242.16 L 1844.5 242.16 C 1835.5 243.16 1827.5 243.16 1819.5 244.16 C 1811.5 245.16 1802.5 246.16 1794.5 247.16 L 1794.5 247.16 C 1786.5 248.16 1777.5 249.16 1769.5 251.16 C 1761.5 252.16 1752.5 254.16 1744.5 255.16 C 1736.5 256.16 1728.5 258.16 1719.5 260.16 L 1719.5 260.16 C 1711.5 262.16 1703.5 263.16 1695.5 265.16 C 1687.5 267.16 1679.5 269.16 1671.5 271.16 C 1663.5 273.16 1655.5 275.16 1647.5 278.16 L 1647.5 278.16 C 1639.5 280.16 1631.5 283.16 1623.5 285.16 L 1623.5 285.16 C 1615.5 287.16 1607.5 290.16 1599.5 293.16 C 1591.5 296.16 1583.5 298.16 1576.5 301.16 L 1576.5 301.16 C 1568.5 304.16 1561.5 307.16 1553.5 310.16 C 1545.5 313.16 1538.5 316.16 1530.5 319.16 L 1530.5 319.16 C 1522.5 322.16 1515.5 325.16 1508.5 329.16 C 1501.5 332.16 1493.5 336.16 1486.5 339.16 C 1479.5 343.16 1471.5 346.16 1464.5 350.16 L 1464.5 350.16 C 1457.5 354.16 1450.5 358.16 1442.5 361.16 L 1442.5 361.16 C 1435.5 365.16 1428.5 369.16 1421.5 373.16 L 1421.5 373.16 C 1414.5 377.16 1407.5 381.16 1400.5 385.16 C 1393.5 389.16 1386.5 394.16 1379.5 398.16 L 1379.5 398.16 C 1372.5 402.16 1365.5 407.16 1359.5 411.16 L 1359.5 411.16 C 1352.5 416.16 1346.5 420.16 1339.5 425.16 L 1339.5 425.16 C 1332.5 430.16 1326.5 434.16 1319.5 439.16 L 1319.5 439.16 C 1313.5 444.16 1306.5 449.16 1300.5 454.16 C 1294.5 459.16 1287.5 464.16 1281.5 469.16 C 1269.5 479.16 1256.5 490.16 1244.5 501.16 L 1244.5 501.16 C 1238.5 506.16 1232.5 512.16 1226.5 518.16 C 1220.5 524.16 1214.5 529.16 1209.5 535.16 C 1203.5 541.16 1198.5 547.16 1192.5 552.16 C 1186.5 558.16 1181.5 564.16 1176.5 570.16 L 1176.5 570.16 C 1165.5 582.16 1155.5 594.16 1144.5 607.16 C 1139.5 613.16 1134.5 620.16 1129.5 626.16 C 1124.5 632.16 1119.5 639.16 1114.5 645.16 L 1114.5 645.16 C 1109.5 651.16 1104.5 658.16 1100.5 665.16 L 1100.5 665.16 C 1095.5 672.16 1091.5 678.16 1086.5 685.16 L 1086.5 685.16 C 1081.5 692.16 1077.5 698.16 1073.5 705.16 L 1073.5 705.16 C 1069.5 712.16 1064.5 719.16 1060.5 726.16 C 1056.5 733.16 1052.5 740.16 1048.5 747.16 L 1048.5 747.16 C 1044.5 754.16 1040.5 761.16 1036.5 768.16 L 1036.5 768.16 C 1032.5 775.16 1028.5 782.16 1025.5 790.16 L 1025.5 790.16 C 1021.5 797.16 1018.5 805.16 1014.5 812.16 C 1010.5 819.16 1007.5 827.16 1004.5 834.16 C 1001.5 841.16 997.5 849.16 994.5 857.16 L 994.5 857.16 C 991.5 865.16 988.5 872.16 985.5 880.16 C 982.5 888.16 979.5 895.16 976.5 903.16 L 976.5 903.16 C 973.5 911.16 970.5 919.16 968.5 926.16 C 965.5 934.16 963.5 942.16 960.5 950.16 L 960.5 950.16 C 958.5 958.16 955.5 966.16 953.5 974.16 L 953.5 974.16 C 951.5 982.16 949.5 990.16 947.5 998.16 C 945.5 1006.16 943.5 1014.16 941.5 1022.16 C 939.5 1030.16 937.5 1038.16 936.5 1047.16 L 936.5 1047.16 C 934.5 1055.16 933.5 1063.16 931.5 1072.16 C 930.5 1080.16 928.5 1089.16 927.5 1097.16 C 926.5 1105.16 925.5 1114.16 923.5 1122.16 L 923.5 1122.16 C 922.5 1130.16 921.5 1139.16 920.5 1147.16 C 919.5 1155.16 918.5 1164.16 918.5 1173.16 L 918.5 1173.16 C 917.5 1182.16 917.5 1190.16 916.5 1199.16 C 916.5 1208.16 915.5 1216.16 915.5 1225.16 C 915.5 1234.16 915.5 1242.16 915.5 1251.16 L 915.5 1256.16 L 1565.5 1256.16 L 1565.5 1251.16 C 1565.5 1053.16 1725.5 892.16 1922.5 892.16 Z"/>
  <path class="fil2" d="M 1889.34 -258.68 C 2722.34 -258.68 3397.34 419.32 3397.34 1254.32 L 3397.34 1259.32 L 3039.34 1259.32 L 3039.34 1254.32 C 3039.34 617.32 2524.34 100.32 1889.34 100.32 C 1379.34 100.32 947.34 433.32 796.34 895.32 C 753.34 746.32 528.34 718.32 440.34 834.32 C 622.34 203.32 1201.34 -258.68 1889.34 -258.68 Z" style="fill: rgb(237, 127, 44);"/>
  <path class="fil3" d="M 1923.5 1055.16 C 2034.5 1055.16 2123.5 1145.16 2123.5 1256.16 C 2123.5 1256.16 1723.5 1256.16 1723.5 1256.16 C 1723.5 1145.16 1813.5 1055.16 1923.5 1055.16 Z" style="fill: rgb(0, 202, 255);"/>
</svg>