<?xml version="1.0" encoding="utf-8"?>
<svg style="shape-rendering:geometricPrecision; text-rendering:geometricPrecision; image-rendering:optimizeQuality; fill-rule:evenodd; clip-rule:evenodd" width="297mm" height="210mm" viewBox="9921 7107 9857 6694" xmlns="http://www.w3.org/2000/svg">
  <defs>
    <style type="text/css">
   
    .fil3 {fill:#A79ECD}
    .fil2 {fill:#EF7F1A}
    .fil1 {fill:#F3E209}
    .fil0 {fill:#037C48;fill-rule:nonzero}
   
  </style>
  </defs>
  <g id="Слой_x0020_1">
    <path class="fil0" d="M13458 10113c-43,141 -62,244 -59,308 4,64 21,99 51,104 48,10 96,-17 144,-81 48,-64 93,-143 136,-236l79 0c-43,108 -87,197 -132,267 -45,69 -92,124 -140,164 -48,40 -96,68 -144,83 -48,15 -96,23 -144,23 -45,0 -90,-9 -134,-28 -44,-19 -79,-54 -104,-104 -25,-50 -38,-120 -38,-208 0,-88 21,-203 64,-344l129 -439 -628 344c-50,149 -106,289 -166,422 -61,132 -129,248 -204,348 -76,100 -161,179 -255,238 -95,59 -202,89 -323,89 -66,0 -129,-9 -189,-26 -61,-18 -112,-46 -153,-85 -42,-39 -70,-89 -85,-151 -15,-62 -11,-138 11,-229 15,-61 45,-108 89,-142 44,-34 93,-57 146,-68 53,-11 105,-12 157,-2 52,10 95,30 129,59 34,29 53,67 57,113 4,47 -16,100 -59,161 -33,-28 -64,-42 -93,-42 -29,0 -54,8 -76,25 -21,16 -38,38 -49,64 -11,26 -14,52 -8,78 6,25 21,47 43,66 23,19 58,28 106,28 66,0 125,-36 178,-108 53,-72 102,-168 147,-287 45,-120 89,-257 132,-412 43,-155 88,-314 136,-476 48,-163 98,-324 151,-484 53,-160 113,-306 182,-439 68,-132 145,-243 231,-333 86,-89 183,-147 291,-172 -63,-28 -136,-47 -219,-57 -83,-10 -169,-15 -257,-15 -164,0 -310,28 -439,85 -129,57 -241,130 -337,221 -96,91 -175,195 -238,312 -63,117 -112,238 -147,361 -35,124 -56,244 -62,361 -6,117 1,221 21,312 20,91 52,165 96,221 44,57 100,85 168,85 40,0 73,-14 98,-43 25,-29 37,-61 36,-96 -1,-35 -19,-67 -53,-96 -34,-29 -90,-43 -168,-43 0,-68 26,-122 79,-161 53,-39 111,-59 174,-61 63,-1 121,18 174,59 53,40 79,106 79,197 0,61 -13,115 -40,164 -26,49 -62,91 -108,127 -45,35 -97,63 -155,83 -58,20 -117,30 -178,30 -149,0 -272,-32 -369,-96 -97,-64 -169,-149 -216,-255 -47,-106 -69,-227 -68,-363 1,-136 25,-274 72,-414 47,-140 115,-278 206,-414 91,-136 203,-257 337,-363 134,-106 287,-191 459,-255 173,-64 365,-96 577,-96 144,0 279,18 407,53 127,35 235,91 323,166 0,3 -1,4 -4,4l-8 0c-81,13 -153,67 -216,164 -63,97 -121,219 -174,365 -53,146 -105,310 -155,492 -50,182 -105,364 -163,548l620 -340 416 -1410 439 0c-101,340 -193,654 -276,942 -35,121 -71,243 -108,365 -37,122 -70,235 -100,338 -30,103 -57,194 -81,272 -24,78 -41,134 -51,166zm594 121c-15,48 -25,86 -30,115 -5,29 -6,52 -2,68 4,16 10,28 19,34 9,6 18,11 28,13 23,8 56,-2 100,-28 44,-26 81,-72 112,-138l53 0c-30,78 -66,144 -106,199 -40,54 -82,98 -125,132 -43,34 -86,59 -129,74 -43,15 -82,23 -117,23 -33,0 -64,-7 -95,-21 -30,-14 -55,-38 -74,-74 -19,-35 -28,-85 -26,-149 1,-64 17,-147 47,-248l291 -938 340 0c-43,141 -83,272 -121,393 -33,106 -65,211 -96,314 -32,103 -55,180 -70,231zm499 -1475c0,63 -23,117 -68,163 -45,45 -98,68 -159,68 -66,0 -120,-23 -164,-68 -44,-45 -66,-100 -66,-163 0,-66 22,-120 66,-163 44,-43 99,-64 164,-64 61,0 113,21 159,64 45,43 68,97 68,163z"/>
    <path class="fil0" d="M12416 11837c-30,96 -42,157 -34,183 8,26 23,42 46,47 28,8 62,-2 102,-28 40,-26 76,-72 106,-138l65 0c-30,78 -66,144 -108,199 -42,54 -85,98 -129,132 -44,34 -87,59 -129,74 -42,15 -79,23 -112,23 -51,0 -96,-14 -137,-42 -40,-28 -63,-82 -68,-163 -51,58 -111,107 -182,146 -71,39 -142,59 -213,59 -51,0 -92,-16 -123,-47 -32,-32 -51,-79 -59,-144 -8,-64 -1,-146 21,-244 22,-98 61,-213 120,-344 40,-93 89,-178 146,-253 57,-76 120,-141 188,-197 68,-55 139,-100 213,-132 73,-33 147,-55 220,-68l250 -817 410 -216c-91,303 -227,742 -300,991 -31,106 -61,212 -93,320 -32,107 -61,205 -87,295 -27,89 -50,166 -70,231 -20,64 -34,109 -42,134zm-383 121c5,-20 9,-40 13,-59 4,-19 10,-40 17,-62l224 -741c-15,-8 -33,-11 -53,-11 -40,0 -82,23 -125,70 -43,47 -84,106 -121,178 -38,72 -73,149 -104,231 -32,82 -54,159 -68,231 -14,72 -18,131 -11,178 6,47 26,70 59,70 28,0 59,-11 93,-32 34,-21 60,-38 78,-51zm1435 -1059c84,0 146,24 186,72 40,48 61,107 63,176 1,69 -15,144 -47,225 -33,81 -80,154 -142,219 -62,66 -137,118 -224,157 -87,39 -184,52 -290,40 -8,96 0,176 23,242 23,66 70,98 140,98 84,0 163,-26 237,-78 75,-52 141,-110 199,-176 66,-76 127,-161 182,-257l61 0c-61,134 -133,251 -216,352 -35,45 -75,89 -118,130 -43,42 -90,79 -140,112 -51,33 -105,59 -163,79 -58,20 -119,30 -182,30 -119,0 -211,-35 -275,-106 -65,-71 -104,-158 -118,-263 -14,-105 -6,-219 25,-342 30,-124 82,-238 154,-342 72,-105 163,-192 271,-263 109,-71 234,-106 376,-106zm-80 106c-33,0 -68,20 -104,61 -37,40 -71,92 -104,155 -33,63 -63,134 -89,212 -27,78 -47,155 -63,231 43,15 85,9 127,-17 42,-26 80,-64 116,-113 35,-49 66,-104 93,-164 27,-61 46,-118 57,-172 11,-54 15,-100 11,-136 -4,-37 -18,-55 -44,-55zm660 832c-30,96 -42,157 -34,183 8,26 22,42 42,47 28,8 63,-2 104,-28 42,-26 78,-72 108,-138l61 0c-30,78 -66,144 -106,199 -40,54 -83,98 -127,132 -44,34 -87,59 -129,74 -42,15 -79,23 -112,23 -35,0 -69,-7 -101,-21 -32,-14 -57,-38 -76,-74 -19,-35 -28,-85 -28,-149 0,-64 15,-147 46,-248l547 -1808 345 0c-91,303 -173,579 -247,828 -33,106 -65,212 -97,320 -32,107 -61,205 -87,295 -27,89 -49,166 -68,231 -19,64 -32,109 -40,134zm573 0c-15,48 -25,86 -30,115 -5,29 -6,52 -2,68 4,16 10,28 19,34 9,6 18,11 28,13 23,8 56,-2 101,-28 44,-26 82,-72 112,-138l53 0c-30,78 -66,144 -106,199 -40,54 -82,98 -125,132 -43,34 -86,59 -129,74 -43,15 -82,23 -118,23 -33,0 -65,-7 -95,-21 -30,-14 -55,-38 -74,-74 -19,-35 -28,-85 -27,-149 1,-64 17,-147 47,-248l292 -938 342 0c-43,141 -84,272 -121,393 -33,106 -65,211 -97,314 -32,103 -55,180 -70,231zm501 -1475c0,63 -23,117 -68,163 -46,45 -99,68 -159,68 -66,0 -121,-23 -165,-68 -44,-45 -66,-100 -66,-163 0,-66 22,-120 66,-163 44,-43 99,-64 165,-64 61,0 114,21 159,64 46,43 68,97 68,163zm721 552c-15,91 -16,161 -2,212 14,50 37,86 68,106 32,20 68,28 108,25 40,-4 80,-14 118,-32 -68,81 -135,144 -199,189 -65,45 -125,76 -180,91 -28,98 -64,196 -108,293 -44,97 -95,185 -152,265 -57,79 -121,144 -192,193 -71,49 -147,74 -228,74 -84,0 -145,-15 -186,-43 -40,-29 -66,-71 -76,-125 -10,-54 -7,-120 9,-199 16,-78 39,-166 66,-265l247 -798 345 0c-35,116 -68,224 -99,325 -28,88 -55,177 -82,267 -27,90 -49,158 -66,206 -18,61 -35,117 -51,170 -16,53 -27,99 -32,138 -5,39 -4,71 4,95 8,24 25,36 53,36 38,0 78,-18 120,-55 42,-37 82,-84 120,-142 38,-58 73,-125 104,-200 32,-76 58,-153 78,-231 -53,-15 -94,-52 -123,-110 -29,-58 -41,-136 -36,-234l372 -250zm778 -15c84,0 146,24 186,72 40,48 61,107 63,176 1,69 -15,144 -47,225 -33,81 -80,154 -142,219 -62,66 -137,118 -224,157 -87,39 -184,52 -290,40 -8,96 0,176 23,242 23,66 70,98 140,98 84,0 163,-26 237,-78 75,-52 141,-110 199,-176 66,-76 127,-161 182,-257l61 0c-61,134 -133,251 -216,352 -35,45 -75,89 -118,130 -43,42 -90,79 -140,112 -51,33 -105,59 -163,79 -58,20 -119,30 -182,30 -119,0 -211,-35 -275,-106 -65,-71 -104,-158 -118,-263 -14,-105 -6,-219 25,-342 30,-124 82,-238 154,-342 72,-105 163,-192 271,-263 109,-71 234,-106 376,-106zm-80 106c-33,0 -68,20 -104,61 -37,40 -71,92 -104,155 -33,63 -63,134 -89,212 -27,78 -47,155 -63,231 43,15 85,9 127,-17 42,-26 80,-64 116,-113 35,-49 66,-104 93,-164 27,-61 46,-118 57,-172 11,-54 15,-100 11,-136 -4,-37 -18,-55 -44,-55zm937 -106l-53 170 326 -216c-15,91 -16,161 -2,210 14,49 36,84 66,106 30,21 66,30 106,26 40,-4 80,-14 118,-32 -81,96 -159,167 -235,214 -76,47 -144,72 -203,76 -59,4 -109,-14 -148,-53 -39,-39 -64,-99 -74,-180l-334 1119 -345 0 433 -1441 345 0zm558 1301c-63,86 -137,129 -220,129 -35,0 -69,-7 -101,-21 -32,-14 -57,-38 -76,-74 -19,-35 -28,-85 -27,-149 1,-64 18,-147 51,-248l285 -938 342 0c-43,141 -82,272 -118,393 -33,106 -65,211 -95,314 -30,103 -53,180 -68,231 -30,96 -44,158 -42,187 3,29 14,43 34,43 13,0 32,-19 59,-57 27,-38 50,-81 70,-129 33,-111 67,-224 102,-338 35,-115 67,-220 95,-316 33,-111 65,-221 95,-329l345 0c-43,149 -87,300 -133,454 -38,131 -79,272 -123,424 -44,151 -88,295 -131,431 -33,108 -69,211 -108,306 -39,96 -86,180 -140,253 -54,73 -118,131 -192,174 -73,43 -159,64 -258,64 -66,0 -125,-11 -176,-34 -52,-23 -93,-53 -123,-91 -30,-38 -50,-81 -59,-130 -9,-49 -3,-101 17,-157 28,-81 74,-135 139,-163 65,-28 127,-35 186,-23 59,13 106,43 140,93 34,49 35,109 2,180 -56,-38 -102,-47 -139,-28 -37,19 -62,47 -76,83 -14,37 -13,73 2,110 15,37 47,55 95,55 43,0 81,-23 114,-68 33,-45 63,-103 89,-172 27,-69 51,-145 74,-227 23,-82 46,-159 68,-233z"/>
    <path class="fil1" d="M 16749 10123 C 17022 10123 17243 10345 17243 10619 L 17243 10626 L 18142 10626 L 18142 10619 C 18142 10607 18142 10595 18142 10583 C 18142 10571 18141 10559 18141 10547 C 18140 10535 18140 10523 18139 10511 L 18139 10511 C 18138 10499 18137 10487 18136 10476 C 18135 10464 18133 10453 18132 10441 L 18132 10441 C 18131 10429 18129 10418 18127 10406 C 18125 10394 18123 10383 18121 10371 C 18119 10360 18117 10348 18114 10337 L 18114 10337 C 18112 10326 18109 10314 18107 10303 C 18104 10292 18102 10281 18099 10269 C 18096 10258 18093 10247 18090 10236 L 18090 10236 C 18087 10225 18084 10214 18080 10203 L 18080 10203 C 18077 10192 18073 10181 18069 10170 C 18065 10159 18062 10148 18058 10138 L 18058 10138 C 18054 10127 18050 10117 18046 10106 C 18042 10095 18038 10085 18033 10074 L 18033 10074 C 18029 10064 18024 10053 18019 10043 C 18014 10033 18010 10022 18005 10012 C 18000 10002 17995 9992 17990 9982 L 17990 9982 C 17985 9972 17980 9962 17974 9952 L 17974 9952 C 17969 9942 17963 9932 17958 9922 L 17958 9922 C 17952 9912 17947 9903 17941 9893 C 17935 9883 17929 9874 17923 9864 L 17923 9864 C 17917 9855 17911 9845 17905 9836 L 17905 9836 C 17899 9827 17892 9817 17886 9808 L 17886 9808 C 17880 9799 17873 9790 17866 9781 L 17866 9781 C 17859 9772 17853 9763 17846 9754 C 17839 9745 17832 9736 17825 9728 C 17811 9711 17796 9694 17781 9677 L 17781 9677 C 17773 9669 17766 9661 17758 9652 C 17750 9644 17743 9636 17735 9628 C 17727 9620 17719 9612 17711 9605 C 17703 9597 17695 9590 17687 9582 L 17687 9582 C 17671 9567 17654 9552 17636 9538 C 17627 9531 17619 9524 17610 9517 C 17601 9510 17592 9503 17583 9497 L 17583 9497 C 17574 9490 17565 9484 17556 9477 L 17556 9477 C 17547 9470 17538 9464 17528 9458 L 17528 9458 C 17519 9452 17509 9446 17500 9439 L 17500 9439 C 17491 9433 17481 9427 17472 9421 C 17462 9415 17453 9409 17443 9404 L 17443 9404 C 17433 9398 17423 9393 17414 9388 L 17414 9388 C 17404 9383 17394 9377 17384 9372 L 17384 9372 C 17374 9367 17364 9362 17354 9357 C 17344 9352 17334 9347 17323 9343 C 17313 9338 17302 9334 17292 9329 L 17292 9329 C 17282 9325 17271 9320 17261 9316 C 17250 9312 17240 9308 17229 9304 L 17229 9304 C 17218 9300 17208 9296 17197 9293 C 17186 9289 17175 9286 17164 9282 L 17164 9282 C 17153 9279 17142 9275 17131 9272 L 17131 9272 C 17120 9269 17109 9266 17098 9263 C 17087 9260 17076 9257 17064 9255 C 17053 9252 17041 9250 17030 9248 L 17030 9248 C 17019 9246 17007 9243 16996 9241 C 16985 9239 16973 9237 16962 9235 C 16950 9233 16939 9232 16927 9230 L 16927 9230 C 16915 9229 16904 9227 16892 9226 C 16880 9225 16869 9224 16857 9223 L 16857 9223 C 16845 9222 16833 9221 16821 9221 C 16809 9220 16797 9220 16785 9220 C 16773 9220 16761 9220 16749 9220 C 16737 9220 16725 9220 16713 9220 C 16701 9220 16689 9221 16677 9221 C 16665 9222 16653 9222 16641 9223 L 16641 9223 C 16629 9224 16617 9225 16606 9226 C 16594 9227 16583 9229 16571 9230 L 16571 9230 C 16559 9231 16548 9233 16536 9235 C 16524 9237 16513 9239 16502 9241 C 16491 9243 16479 9245 16468 9248 L 16468 9248 C 16457 9250 16445 9253 16434 9255 C 16423 9258 16412 9260 16400 9263 C 16389 9266 16378 9269 16367 9272 L 16367 9272 C 16356 9275 16345 9278 16334 9282 L 16334 9282 C 16323 9285 16312 9289 16301 9293 C 16290 9297 16279 9300 16269 9304 L 16269 9304 C 16258 9308 16248 9312 16237 9316 C 16226 9320 16216 9324 16206 9329 L 16206 9329 C 16196 9333 16185 9338 16175 9343 C 16165 9348 16154 9352 16144 9357 C 16134 9362 16124 9367 16114 9372 L 16114 9372 C 16104 9377 16094 9382 16084 9388 L 16084 9388 C 16074 9393 16064 9399 16055 9404 L 16055 9404 C 16045 9410 16036 9415 16026 9421 C 16016 9427 16007 9433 15998 9439 L 15998 9439 C 15989 9445 15979 9451 15970 9458 L 15970 9458 C 15961 9464 15952 9471 15942 9477 L 15942 9477 C 15933 9484 15924 9490 15915 9497 L 15915 9497 C 15906 9504 15897 9511 15888 9517 C 15879 9524 15871 9531 15862 9538 C 15845 9552 15828 9567 15811 9582 L 15811 9582 C 15803 9590 15795 9597 15787 9605 C 15779 9613 15771 9621 15763 9628 C 15755 9636 15747 9644 15740 9652 C 15732 9660 15725 9668 15717 9677 L 15717 9677 C 15702 9694 15687 9710 15673 9728 C 15666 9737 15659 9745 15652 9754 C 15645 9763 15638 9772 15632 9781 L 15632 9781 C 15625 9790 15619 9799 15612 9808 L 15612 9808 C 15606 9817 15599 9826 15593 9836 L 15593 9836 C 15587 9845 15581 9855 15575 9864 L 15575 9864 C 15569 9873 15563 9883 15557 9893 C 15551 9903 15545 9912 15540 9922 L 15540 9922 C 15534 9932 15529 9942 15524 9952 L 15524 9952 C 15519 9962 15513 9972 15508 9982 L 15508 9982 C 15503 9992 15498 10002 15493 10012 C 15488 10022 15483 10032 15479 10043 C 15474 10053 15470 10064 15465 10074 L 15465 10074 C 15461 10084 15456 10095 15452 10106 C 15448 10117 15444 10127 15440 10138 L 15440 10138 C 15436 10149 15432 10160 15429 10170 C 15425 10181 15422 10192 15418 10203 L 15418 10203 C 15415 10214 15411 10225 15408 10236 L 15408 10236 C 15405 10247 15402 10258 15399 10269 C 15396 10280 15393 10291 15391 10303 C 15388 10314 15386 10326 15384 10337 L 15384 10337 C 15382 10348 15379 10360 15377 10371 C 15375 10382 15373 10394 15371 10406 C 15369 10418 15368 10429 15366 10441 L 15366 10441 C 15365 10453 15363 10464 15362 10476 C 15361 10488 15360 10500 15359 10511 L 15359 10511 C 15358 10523 15357 10535 15357 10547 C 15356 10559 15356 10571 15356 10583 C 15356 10595 15356 10607 15356 10619 L 15356 10626 L 16255 10626 L 16255 10619 C 16255 10345 16476 10123 16749 10123 Z"/>
    <path class="fil2" d="M 16708 8525 C 17860 8525 18794 9462 18794 10619 L 18794 10626 L 18299 10626 L 18299 10619 C 18299 9737 17587 9022 16708 9022 C 16002 9022 15404 9483 15196 10121 C 15137 9915 14825 9876 14703 10037 C 14954 9164 15757 8525 16708 8525 Z"/>
    <path class="fil3" d="M 16749 10348 C 16902 10348 17026 10472 17026 10626 C 17026 10626 16472 10626 16472 10626 C 16472 10473 16596 10348 16749 10348 Z" style="fill: rgb(0, 202, 255);"/>
  </g>
</svg>