<?xml version="1.0" encoding="utf-8"?>
<svg style="shape-rendering:geometricPrecision; text-rendering:geometricPrecision; image-rendering:optimizeQuality; fill-rule:evenodd; clip-rule:evenodd" width="297mm" height="210mm" viewBox="12734 9408 4182 2384" xmlns="http://www.w3.org/2000/svg">
  <defs>
    <style type="text/css">
   
    .fil3 {fill:#037C48}
    .fil2 {fill:#A79ECD}
    .fil1 {fill:#EF7F1A}
    .fil0 {fill:#F3E209}
   
  </style>
  </defs>
  <path class="fil0" d="M 14868 10896 C 15065 10896 15225 11057 15225 11255 L 15225 11260 L 15875 11260 L 15875 11255 C 15875 11246 15875 11238 15875 11229 C 15875 11220 15874 11212 15874 11203 C 15874 11194 15873 11186 15872 11177 L 15872 11177 C 15871 11168 15871 11160 15870 11151 C 15869 11142 15868 11134 15867 11126 L 15867 11126 C 15866 11118 15865 11109 15863 11101 C 15862 11093 15860 11084 15859 11076 C 15858 11068 15856 11059 15854 11051 L 15854 11051 C 15852 11043 15851 11035 15849 11026 C 15847 11018 15845 11010 15843 11002 C 15841 10994 15839 10986 15836 10978 L 15836 10978 C 15834 10970 15831 10962 15829 10954 L 15829 10954 C 15827 10946 15824 10938 15821 10930 C 15818 10922 15816 10914 15813 10907 L 15813 10907 C 15810 10899 15807 10892 15804 10884 C 15801 10876 15798 10869 15795 10861 L 15795 10861 C 15792 10853 15789 10846 15785 10838 C 15782 10831 15778 10823 15775 10816 C 15771 10809 15768 10801 15764 10794 L 15764 10794 C 15760 10787 15756 10780 15753 10772 L 15753 10772 C 15749 10765 15745 10758 15741 10751 L 15741 10751 C 15737 10744 15733 10737 15729 10730 C 15725 10723 15720 10716 15716 10709 L 15716 10709 C 15712 10702 15707 10695 15703 10689 L 15703 10689 C 15698 10682 15694 10676 15689 10669 L 15689 10669 C 15684 10662 15680 10656 15675 10649 L 15675 10649 C 15670 10643 15665 10636 15660 10630 C 15655 10624 15650 10617 15645 10611 C 15635 10599 15624 10586 15613 10574 L 15613 10574 C 15608 10568 15602 10562 15597 10556 C 15591 10550 15586 10544 15580 10539 C 15574 10533 15569 10528 15563 10522 C 15557 10516 15551 10511 15545 10505 L 15545 10505 C 15533 10494 15521 10484 15508 10473 C 15502 10468 15496 10463 15489 10458 C 15483 10453 15476 10448 15470 10443 L 15470 10443 C 15464 10438 15457 10433 15450 10429 L 15450 10429 C 15443 10424 15437 10420 15430 10415 L 15430 10415 C 15423 10410 15417 10406 15410 10402 L 15410 10402 C 15403 10398 15396 10393 15389 10389 C 15382 10385 15375 10381 15368 10377 L 15368 10377 C 15361 10373 15354 10369 15347 10365 L 15347 10365 C 15340 10361 15333 10357 15325 10354 L 15325 10354 C 15318 10350 15310 10347 15303 10343 C 15296 10339 15288 10336 15281 10333 C 15274 10330 15266 10326 15259 10323 L 15259 10323 C 15251 10320 15244 10317 15236 10314 C 15228 10311 15221 10308 15213 10305 L 15213 10305 C 15205 10302 15198 10299 15190 10297 C 15182 10294 15174 10292 15166 10289 L 15166 10289 C 15158 10287 15150 10284 15142 10282 L 15142 10282 C 15134 10280 15126 10278 15118 10275 C 15110 10273 15102 10271 15094 10269 C 15086 10267 15078 10265 15070 10264 L 15070 10264 C 15062 10262 15054 10261 15045 10259 C 15037 10258 15028 10256 15020 10255 C 15012 10254 15003 10253 14995 10251 L 14995 10251 C 14987 10250 14978 10249 14970 10248 C 14962 10247 14953 10246 14945 10246 L 14945 10246 C 14936 10245 14928 10245 14919 10244 C 14910 10244 14902 10243 14893 10243 C 14884 10243 14876 10243 14867 10243 C 14858 10243 14850 10243 14841 10243 C 14832 10243 14824 10244 14815 10244 C 14806 10244 14798 10245 14789 10246 L 14789 10246 C 14780 10247 14772 10247 14764 10248 C 14756 10249 14747 10250 14739 10251 L 14739 10251 C 14731 10252 14722 10253 14714 10255 C 14706 10256 14697 10258 14689 10259 C 14681 10260 14673 10262 14664 10264 L 14664 10264 C 14656 10266 14648 10267 14640 10269 C 14632 10271 14624 10273 14616 10275 C 14608 10277 14600 10279 14592 10282 L 14592 10282 C 14584 10284 14576 10287 14568 10289 L 14568 10289 C 14560 10291 14552 10294 14544 10297 C 14536 10300 14528 10302 14521 10305 L 14521 10305 C 14513 10308 14506 10311 14498 10314 C 14490 10317 14483 10320 14475 10323 L 14475 10323 C 14467 10326 14460 10329 14453 10333 C 14446 10336 14438 10340 14431 10343 C 14424 10347 14416 10350 14409 10354 L 14409 10354 C 14402 10358 14395 10362 14387 10365 L 14387 10365 C 14380 10369 14373 10373 14366 10377 L 14366 10377 C 14359 10381 14352 10385 14345 10389 C 14338 10393 14331 10398 14324 10402 L 14324 10402 C 14317 10406 14310 10411 14304 10415 L 14304 10415 C 14297 10420 14291 10424 14284 10429 L 14284 10429 C 14277 10434 14271 10438 14264 10443 L 14264 10443 C 14258 10448 14251 10453 14245 10458 C 14239 10463 14232 10468 14226 10473 C 14214 10483 14201 10494 14189 10505 L 14189 10505 C 14183 10510 14177 10516 14171 10522 C 14165 10528 14159 10533 14154 10539 C 14148 10545 14143 10551 14137 10556 C 14131 10562 14126 10568 14121 10574 L 14121 10574 C 14110 10586 14100 10598 14089 10611 C 14084 10617 14079 10624 14074 10630 C 14069 10636 14064 10643 14059 10649 L 14059 10649 C 14054 10655 14049 10662 14045 10669 L 14045 10669 C 14040 10676 14036 10682 14031 10689 L 14031 10689 C 14026 10696 14022 10702 14018 10709 L 14018 10709 C 14014 10716 14009 10723 14005 10730 C 14001 10737 13997 10744 13993 10751 L 13993 10751 C 13989 10758 13985 10765 13981 10772 L 13981 10772 C 13977 10779 13973 10786 13970 10794 L 13970 10794 C 13966 10801 13963 10809 13959 10816 C 13955 10823 13952 10831 13949 10838 C 13946 10845 13942 10853 13939 10861 L 13939 10861 C 13936 10869 13933 10876 13930 10884 C 13927 10892 13924 10899 13921 10907 L 13921 10907 C 13918 10915 13915 10923 13913 10930 C 13910 10938 13908 10946 13905 10954 L 13905 10954 C 13903 10962 13900 10970 13898 10978 L 13898 10978 C 13896 10986 13894 10994 13892 11002 C 13890 11010 13888 11018 13886 11026 C 13884 11034 13882 11042 13881 11051 L 13881 11051 C 13879 11059 13878 11067 13876 11076 C 13875 11084 13873 11093 13872 11101 C 13871 11109 13870 11118 13868 11126 L 13868 11126 C 13867 11134 13866 11143 13865 11151 C 13864 11159 13863 11168 13863 11177 L 13863 11177 C 13862 11186 13862 11194 13861 11203 C 13861 11212 13860 11220 13860 11229 C 13860 11238 13860 11246 13860 11255 L 13860 11260 L 14510 11260 L 14510 11255 C 14510 11057 14670 10896 14867 10896 Z"/>
  <path class="fil1" d="M 14839 9741 C 15672 9741 16347 10419 16347 11254 L 16347 11259 L 15989 11259 L 15989 11254 C 15989 10617 15474 10100 14839 10100 C 14329 10100 13897 10433 13746 10895 C 13703 10746 13478 10718 13390 10834 C 13572 10203 14151 9741 14839 9741 Z"/>
  <path class="fil2" d="M 14868 11058 C 14979 11058 15068 11148 15068 11259 C 15068 11259 14668 11259 14668 11259 C 14668 11148 14758 11058 14868 11058 Z" style="fill: rgb(0, 202, 255);"/>
  <circle class="fil3" cx="13533" cy="11075" r="180"/>
</svg>