<?xml version="1.0" encoding="utf-8"?>
<svg style="shape-rendering:geometricPrecision; text-rendering:geometricPrecision; image-rendering:optimizeQuality; fill-rule:evenodd; clip-rule:evenodd" width="297mm" height="210mm" viewBox="9921 7107 9857 6694" xmlns="http://www.w3.org/2000/svg">
  <defs>
    <style type="text/css">
   
    .fil3 {fill:#A79ECD}
    .fil2 {fill:#EF7F1A}
    .fil1 {fill:#F3E209}
    .fil0 {fill:#037C48;fill-rule:nonzero}
   
  </style>
  </defs>
  <path class="fil0" d="M 13458 10113 C 13415 10254 13396 10357 13399 10421 C 13403 10485 13420 10520 13450 10525 C 13498 10535 13546 10508 13594 10444 C 13642 10380 13687 10301 13730 10208 L 13809 10208 C 13766 10316 13722 10405 13677 10475 C 13632 10544 13585 10599 13537 10639 C 13489 10679 13441 10707 13393 10722 C 13345 10737 13297 10745 13249 10745 C 13204 10745 13159 10736 13115 10717 C 13071 10698 13036 10663 13011 10613 C 12986 10563 12973 10493 12973 10405 C 12973 10317 12994 10202 13037 10061 L 13166 9622 L 12538 9966 C 12488 10115 12432 10255 12372 10388 C 12311 10520 12243 10636 12168 10736 C 12092 10836 12007 10915 11913 10974 C 11818 11033 11711 11063 11590 11063 C 11524 11063 11461 11054 11401 11037 C 11340 11019 11289 10991 11248 10952 C 11206 10913 11178 10863 11163 10801 C 11148 10739 11152 10663 11174 10572 C 11189 10511 11219 10464 11263 10430 C 11307 10396 11356 10373 11409 10362 C 11462 10351 11514 10350 11566 10360 C 11618 10370 11661 10390 11695 10419 C 11729 10448 11748 10486 11752 10532 C 11756 10579 11736 10632 11693 10693 C 11660 10665 11629 10651 11600 10651 C 11571 10651 11546 10659 11524 10676 C 11503 10692 11486 10714 11475 10740 C 11464 10766 11461 10792 11467 10818 C 11473 10843 11488 10865 11510 10884 C 11533 10903 11568 10912 11616 10912 C 11682 10912 11741 10876 11794 10804 C 11847 10732 11896 10636 11941 10517 C 11986 10397 12030 10260 12073 10105 C 12116 9950 12161 9791 12209 9629 C 12257 9466 12307 9305 12360 9145 C 12413 8985 12473 8839 12542 8706 C 12610 8574 12687 8463 12773 8373 C 12859 8284 12956 8226 13064 8201 C 13001 8173 12928 8154 12845 8144 C 12762 8134 12676 8129 12588 8129 C 12424 8129 12278 8157 12149 8214 C 12020 8271 11908 8344 11812 8435 C 11716 8526 11637 8630 11574 8747 C 11511 8864 11462 8985 11427 9108 C 11392 9232 11371 9352 11365 9469 C 11359 9586 11366 9690 11386 9781 C 11406 9872 11438 9946 11482 10002 C 11526 10059 11582 10087 11650 10087 C 11690 10087 11723 10073 11748 10044 C 11773 10015 11785 9983 11784 9948 C 11783 9913 11765 9881 11731 9852 C 11697 9823 11641 9809 11563 9809 C 11563 9741 11589 9687 11642 9648 C 11695 9609 11753 9589 11816 9587 C 11879 9586 11937 9605 11990 9646 C 12043 9686 12069 9752 12069 9843 C 12069 9904 12056 9958 12029 10007 C 12003 10056 11967 10098 11921 10134 C 11876 10169 11824 10197 11766 10217 C 11708 10237 11649 10247 11588 10247 C 11439 10247 11316 10215 11219 10151 C 11122 10087 11050 10002 11003 9896 C 10956 9790 10934 9669 10935 9533 C 10936 9397 10960 9259 11007 9119 C 11054 8979 11122 8841 11213 8705 C 11304 8569 11416 8448 11550 8342 C 11684 8236 11837 8151 12009 8087 C 12182 8023 12374 7991 12586 7991 C 12730 7991 12865 8009 12993 8044 C 13120 8079 13228 8135 13316 8210 C 13316 8213 13315 8214 13312 8214 L 13304 8214 C 13223 8227 13151 8281 13088 8378 C 13025 8475 12967 8597 12914 8743 C 12861 8889 12809 9053 12759 9235 C 12709 9417 12654 9599 12596 9783 L 13216 9443 L 13632 8033 L 14071 8033 C 13970 8373 13878 8687 13795 8975 C 13760 9096 13724 9218 13687 9340 C 13650 9462 13617 9575 13587 9678 C 13557 9781 13530 9872 13506 9950 C 13482 10028 13465 10084 13455 10116 Z M 14052 10234 C 14037 10282 14027 10320 14022 10349 C 14017 10378 14016 10401 14020 10417 C 14024 10433 14030 10445 14039 10451 C 14048 10457 14057 10462 14067 10464 C 14090 10472 14123 10462 14167 10436 C 14211 10410 14248 10364 14279 10298 L 14332 10298 C 14302 10376 14266 10442 14226 10497 C 14186 10551 14144 10595 14101 10629 C 14058 10663 14015 10688 13972 10703 C 13929 10718 13890 10726 13855 10726 C 13822 10726 13791 10719 13760 10705 C 13730 10691 13705 10667 13686 10631 C 13667 10596 13658 10546 13660 10482 C 13661 10418 13677 10335 13707 10234 L 13998 9296 L 14338 9296 C 14295 9437 14255 9568 14217 9689 C 14184 9795 14152 9900 14121 10003 C 14089 10106 14066 10183 14051 10234 Z M 14551 8759 C 14551 8822 14528 8876 14483 8922 C 14438 8967 14385 8990 14324 8990 C 14258 8990 14204 8967 14160 8922 C 14116 8877 14094 8822 14094 8759 C 14094 8693 14116 8639 14160 8596 C 14204 8553 14259 8532 14324 8532 C 14385 8532 14437 8553 14483 8596 C 14528 8639 14551 8693 14551 8759 Z" style="fill: rgb(255, 255, 255);"/>
  <path class="fil0" d="M 12416 11837 C 12386 11933 12374 11994 12382 12020 C 12390 12046 12405 12062 12428 12067 C 12456 12075 12490 12065 12530 12039 C 12570 12013 12606 11967 12636 11901 L 12701 11901 C 12671 11979 12635 12045 12593 12100 C 12551 12154 12508 12198 12464 12232 C 12420 12266 12377 12291 12335 12306 C 12293 12321 12256 12329 12223 12329 C 12172 12329 12127 12315 12086 12287 C 12046 12259 12023 12205 12018 12124 C 11967 12182 11907 12231 11836 12270 C 11765 12309 11694 12329 11623 12329 C 11572 12329 11531 12313 11500 12282 C 11468 12250 11449 12203 11441 12138 C 11433 12074 11440 11992 11462 11894 C 11484 11796 11523 11681 11582 11550 C 11622 11457 11671 11372 11728 11297 C 11785 11221 11848 11156 11916 11100 C 11984 11045 12055 11000 12129 10968 C 12202 10935 12276 10913 12349 10900 L 12599 10083 L 13009 9867 C 12918 10170 12782 10609 12709 10858 C 12678 10964 12648 11070 12616 11178 C 12584 11285 12555 11383 12529 11473 C 12502 11562 12479 11639 12459 11704 C 12439 11768 12425 11813 12417 11838 Z M 12033 11958 C 12038 11938 12042 11918 12046 11899 C 12050 11880 12056 11859 12063 11837 L 12287 11096 C 12272 11088 12254 11085 12234 11085 C 12194 11085 12152 11108 12109 11155 C 12066 11202 12025 11261 11988 11333 C 11950 11405 11915 11482 11884 11564 C 11852 11646 11830 11723 11816 11795 C 11802 11867 11798 11926 11805 11973 C 11811 12020 11831 12043 11864 12043 C 11892 12043 11923 12032 11957 12011 C 11991 11990 12017 11973 12035 11960 Z M 13468 10899 C 13552 10899 13614 10923 13654 10971 C 13694 11019 13715 11078 13717 11147 C 13718 11216 13702 11291 13670 11372 C 13637 11453 13590 11526 13528 11591 C 13466 11657 13391 11709 13304 11748 C 13217 11787 13120 11800 13014 11788 C 13006 11884 13014 11964 13037 12030 C 13060 12096 13107 12128 13177 12128 C 13261 12128 13340 12102 13414 12050 C 13489 11998 13555 11940 13613 11874 C 13679 11798 13740 11713 13795 11617 L 13856 11617 C 13795 11751 13723 11868 13640 11969 C 13605 12014 13565 12058 13522 12099 C 13479 12141 13432 12178 13382 12211 C 13331 12244 13277 12270 13219 12290 C 13161 12310 13100 12320 13037 12320 C 12918 12320 12826 12285 12762 12214 C 12697 12143 12658 12056 12644 11951 C 12630 11846 12638 11732 12669 11609 C 12699 11485 12751 11371 12823 11267 C 12895 11162 12986 11075 13094 11004 C 13203 10933 13328 10898 13470 10898 Z M 13388 11005 C 13355 11005 13320 11025 13284 11066 C 13247 11106 13213 11158 13180 11221 C 13147 11284 13117 11355 13091 11433 C 13064 11511 13044 11588 13028 11664 C 13071 11679 13113 11673 13155 11647 C 13197 11621 13235 11583 13271 11534 C 13306 11485 13337 11430 13364 11370 C 13391 11309 13410 11252 13421 11198 C 13432 11144 13436 11098 13432 11062 C 13428 11025 13414 11007 13388 11007 Z M 14048 11837 C 14018 11933 14006 11994 14014 12020 C 14022 12046 14036 12062 14056 12067 C 14084 12075 14119 12065 14160 12039 C 14202 12013 14238 11967 14268 11901 L 14329 11901 C 14299 11979 14263 12045 14223 12100 C 14183 12154 14140 12198 14096 12232 C 14052 12266 14009 12291 13967 12306 C 13925 12321 13888 12329 13855 12329 C 13820 12329 13786 12322 13754 12308 C 13722 12294 13697 12270 13678 12234 C 13659 12199 13650 12149 13650 12085 C 13650 12021 13665 11938 13696 11837 L 14243 10029 L 14588 10029 C 14497 10332 14415 10608 14341 10857 C 14308 10963 14276 11069 14244 11177 C 14212 11284 14183 11382 14157 11472 C 14130 11561 14108 11638 14089 11703 C 14070 11767 14057 11812 14049 11837 Z M 14621 11837 C 14606 11885 14596 11923 14591 11952 C 14586 11981 14585 12004 14589 12020 C 14593 12036 14599 12048 14608 12054 C 14617 12060 14626 12065 14636 12067 C 14659 12075 14692 12065 14737 12039 C 14781 12013 14819 11967 14849 11901 L 14902 11901 C 14872 11979 14836 12045 14796 12100 C 14756 12154 14714 12198 14671 12232 C 14628 12266 14585 12291 14542 12306 C 14499 12321 14460 12329 14424 12329 C 14391 12329 14359 12322 14329 12308 C 14299 12294 14274 12270 14255 12234 C 14236 12199 14227 12149 14228 12085 C 14229 12021 14245 11938 14275 11837 L 14567 10899 L 14909 10899 C 14866 11040 14825 11171 14788 11292 C 14755 11398 14723 11503 14691 11606 C 14659 11709 14636 11786 14621 11837 Z M 15122 10362 C 15122 10425 15099 10479 15054 10525 C 15008 10570 14955 10593 14895 10593 C 14829 10593 14774 10570 14730 10525 C 14686 10480 14664 10425 14664 10362 C 14664 10296 14686 10242 14730 10199 C 14774 10156 14829 10135 14895 10135 C 14956 10135 15009 10156 15054 10199 C 15100 10242 15122 10296 15122 10362 Z M 15843 10914 C 15828 11005 15827 11075 15841 11126 C 15855 11176 15878 11212 15909 11232 C 15941 11252 15977 11260 16017 11257 C 16057 11253 16097 11243 16135 11225 C 16067 11306 16000 11369 15936 11414 C 15871 11459 15811 11490 15756 11505 C 15728 11603 15692 11701 15648 11798 C 15604 11895 15553 11983 15496 12063 C 15439 12142 15375 12207 15304 12256 C 15233 12305 15157 12330 15076 12330 C 14992 12330 14931 12315 14890 12287 C 14850 12258 14824 12216 14814 12162 C 14804 12108 14807 12042 14823 11963 C 14839 11885 14862 11797 14889 11698 L 15136 10900 L 15481 10900 C 15446 11016 15413 11124 15382 11225 C 15354 11313 15327 11402 15300 11492 C 15273 11582 15251 11650 15234 11698 C 15216 11759 15199 11815 15183 11868 C 15167 11921 15156 11967 15151 12006 C 15146 12045 15147 12077 15155 12101 C 15163 12125 15180 12137 15208 12137 C 15246 12137 15286 12119 15328 12082 C 15370 12045 15410 11998 15448 11940 C 15486 11882 15521 11815 15552 11740 C 15584 11664 15610 11587 15630 11509 C 15577 11494 15536 11457 15507 11399 C 15478 11341 15466 11263 15471 11165 L 15843 10915 Z M 16621 10899 C 16705 10899 16767 10923 16807 10971 C 16847 11019 16868 11078 16870 11147 C 16871 11216 16855 11291 16823 11372 C 16790 11453 16743 11526 16681 11591 C 16619 11657 16544 11709 16457 11748 C 16370 11787 16273 11800 16167 11788 C 16159 11884 16167 11964 16190 12030 C 16213 12096 16260 12128 16330 12128 C 16414 12128 16493 12102 16567 12050 C 16642 11998 16708 11940 16766 11874 C 16832 11798 16893 11713 16948 11617 L 17009 11617 C 16948 11751 16876 11868 16793 11969 C 16758 12014 16718 12058 16675 12099 C 16632 12141 16585 12178 16535 12211 C 16484 12244 16430 12270 16372 12290 C 16314 12310 16253 12320 16190 12320 C 16071 12320 15979 12285 15915 12214 C 15850 12143 15811 12056 15797 11951 C 15783 11846 15791 11732 15822 11609 C 15852 11485 15904 11371 15976 11267 C 16048 11162 16139 11075 16247 11004 C 16356 10933 16481 10898 16623 10898 Z M 16541 11005 C 16508 11005 16473 11025 16437 11066 C 16400 11106 16366 11158 16333 11221 C 16300 11284 16270 11355 16244 11433 C 16217 11511 16197 11588 16181 11664 C 16224 11679 16266 11673 16308 11647 C 16350 11621 16388 11583 16424 11534 C 16459 11485 16490 11430 16517 11370 C 16544 11309 16563 11252 16574 11198 C 16585 11144 16589 11098 16585 11062 C 16581 11025 16567 11007 16541 11007 Z M 17478 10899 L 17425 11069 L 17751 10853 C 17736 10944 17735 11014 17749 11063 C 17763 11112 17785 11147 17815 11169 C 17845 11190 17881 11199 17921 11195 C 17961 11191 18001 11181 18039 11163 C 17958 11259 17880 11330 17804 11377 C 17728 11424 17660 11449 17601 11453 C 17542 11457 17492 11439 17453 11400 C 17414 11361 17389 11301 17379 11220 L 17045 12339 L 16700 12339 L 17133 10898 L 17478 10898 Z M 18036 12200 C 17973 12286 17899 12329 17816 12329 C 17781 12329 17747 12322 17715 12308 C 17683 12294 17658 12270 17639 12234 C 17620 12199 17611 12149 17612 12085 C 17613 12021 17630 11938 17663 11837 L 17948 10899 L 18290 10899 C 18247 11040 18208 11171 18172 11292 C 18139 11398 18107 11503 18077 11606 C 18047 11709 18024 11786 18009 11837 C 17979 11933 17965 11995 17967 12024 C 17970 12053 17981 12067 18001 12067 C 18014 12067 18033 12048 18060 12010 C 18087 11972 18110 11929 18130 11881 C 18163 11770 18197 11657 18232 11543 C 18267 11428 18299 11323 18327 11227 C 18360 11116 18392 11006 18422 10898 L 18767 10898 C 18724 11047 18680 11198 18634 11352 C 18596 11483 18555 11624 18511 11776 C 18467 11927 18423 12071 18380 12207 C 18347 12315 18311 12418 18272 12513 C 18233 12609 18186 12693 18132 12766 C 18078 12839 18014 12897 17940 12940 C 17867 12983 17781 13004 17682 13004 C 17616 13004 17557 12993 17506 12970 C 17454 12947 17413 12917 17383 12879 C 17353 12841 17333 12798 17324 12749 C 17315 12700 17321 12648 17341 12592 C 17369 12511 17415 12457 17480 12429 C 17545 12401 17607 12394 17666 12406 C 17725 12419 17772 12449 17806 12499 C 17840 12548 17841 12608 17808 12679 C 17752 12641 17706 12632 17669 12651 C 17632 12670 17607 12698 17593 12734 C 17579 12771 17580 12807 17595 12844 C 17610 12881 17642 12899 17690 12899 C 17733 12899 17771 12876 17804 12831 C 17837 12786 17867 12728 17893 12659 C 17920 12590 17944 12514 17967 12432 C 17990 12350 18013 12273 18035 12199 Z" style="fill: rgb(255, 255, 255);"/>
  <path class="fil1" d="M 16749 10123 C 17022 10123 17243 10345 17243 10619 L 17243 10626 L 18142 10626 L 18142 10619 C 18142 10607 18142 10595 18142 10583 C 18142 10571 18141 10559 18141 10547 C 18140 10535 18140 10523 18139 10511 L 18139 10511 C 18138 10499 18137 10487 18136 10476 C 18135 10464 18133 10453 18132 10441 L 18132 10441 C 18131 10429 18129 10418 18127 10406 C 18125 10394 18123 10383 18121 10371 C 18119 10360 18117 10348 18114 10337 L 18114 10337 C 18112 10326 18109 10314 18107 10303 C 18104 10292 18102 10281 18099 10269 C 18096 10258 18093 10247 18090 10236 L 18090 10236 C 18087 10225 18084 10214 18080 10203 L 18080 10203 C 18077 10192 18073 10181 18069 10170 C 18065 10159 18062 10148 18058 10138 L 18058 10138 C 18054 10127 18050 10117 18046 10106 C 18042 10095 18038 10085 18033 10074 L 18033 10074 C 18029 10064 18024 10053 18019 10043 C 18014 10033 18010 10022 18005 10012 C 18000 10002 17995 9992 17990 9982 L 17990 9982 C 17985 9972 17980 9962 17974 9952 L 17974 9952 C 17969 9942 17963 9932 17958 9922 L 17958 9922 C 17952 9912 17947 9903 17941 9893 C 17935 9883 17929 9874 17923 9864 L 17923 9864 C 17917 9855 17911 9845 17905 9836 L 17905 9836 C 17899 9827 17892 9817 17886 9808 L 17886 9808 C 17880 9799 17873 9790 17866 9781 L 17866 9781 C 17859 9772 17853 9763 17846 9754 C 17839 9745 17832 9736 17825 9728 C 17811 9711 17796 9694 17781 9677 L 17781 9677 C 17773 9669 17766 9661 17758 9652 C 17750 9644 17743 9636 17735 9628 C 17727 9620 17719 9612 17711 9605 C 17703 9597 17695 9590 17687 9582 L 17687 9582 C 17671 9567 17654 9552 17636 9538 C 17627 9531 17619 9524 17610 9517 C 17601 9510 17592 9503 17583 9497 L 17583 9497 C 17574 9490 17565 9484 17556 9477 L 17556 9477 C 17547 9470 17538 9464 17528 9458 L 17528 9458 C 17519 9452 17509 9446 17500 9439 L 17500 9439 C 17491 9433 17481 9427 17472 9421 C 17462 9415 17453 9409 17443 9404 L 17443 9404 C 17433 9398 17423 9393 17414 9388 L 17414 9388 C 17404 9383 17394 9377 17384 9372 L 17384 9372 C 17374 9367 17364 9362 17354 9357 C 17344 9352 17334 9347 17323 9343 C 17313 9338 17302 9334 17292 9329 L 17292 9329 C 17282 9325 17271 9320 17261 9316 C 17250 9312 17240 9308 17229 9304 L 17229 9304 C 17218 9300 17208 9296 17197 9293 C 17186 9289 17175 9286 17164 9282 L 17164 9282 C 17153 9279 17142 9275 17131 9272 L 17131 9272 C 17120 9269 17109 9266 17098 9263 C 17087 9260 17076 9257 17064 9255 C 17053 9252 17041 9250 17030 9248 L 17030 9248 C 17019 9246 17007 9243 16996 9241 C 16985 9239 16973 9237 16962 9235 C 16950 9233 16939 9232 16927 9230 L 16927 9230 C 16915 9229 16904 9227 16892 9226 C 16880 9225 16869 9224 16857 9223 L 16857 9223 C 16845 9222 16833 9221 16821 9221 C 16809 9220 16797 9220 16785 9220 C 16773 9220 16761 9220 16749 9220 C 16737 9220 16725 9220 16713 9220 C 16701 9220 16689 9221 16677 9221 C 16665 9222 16653 9222 16641 9223 L 16641 9223 C 16629 9224 16617 9225 16606 9226 C 16594 9227 16583 9229 16571 9230 L 16571 9230 C 16559 9231 16548 9233 16536 9235 C 16524 9237 16513 9239 16502 9241 C 16491 9243 16479 9245 16468 9248 L 16468 9248 C 16457 9250 16445 9253 16434 9255 C 16423 9258 16412 9260 16400 9263 C 16389 9266 16378 9269 16367 9272 L 16367 9272 C 16356 9275 16345 9278 16334 9282 L 16334 9282 C 16323 9285 16312 9289 16301 9293 C 16290 9297 16279 9300 16269 9304 L 16269 9304 C 16258 9308 16248 9312 16237 9316 C 16226 9320 16216 9324 16206 9329 L 16206 9329 C 16196 9333 16185 9338 16175 9343 C 16165 9348 16154 9352 16144 9357 C 16134 9362 16124 9367 16114 9372 L 16114 9372 C 16104 9377 16094 9382 16084 9388 L 16084 9388 C 16074 9393 16064 9399 16055 9404 L 16055 9404 C 16045 9410 16036 9415 16026 9421 C 16016 9427 16007 9433 15998 9439 L 15998 9439 C 15989 9445 15979 9451 15970 9458 L 15970 9458 C 15961 9464 15952 9471 15942 9477 L 15942 9477 C 15933 9484 15924 9490 15915 9497 L 15915 9497 C 15906 9504 15897 9511 15888 9517 C 15879 9524 15871 9531 15862 9538 C 15845 9552 15828 9567 15811 9582 L 15811 9582 C 15803 9590 15795 9597 15787 9605 C 15779 9613 15771 9621 15763 9628 C 15755 9636 15747 9644 15740 9652 C 15732 9660 15725 9668 15717 9677 L 15717 9677 C 15702 9694 15687 9710 15673 9728 C 15666 9737 15659 9745 15652 9754 C 15645 9763 15638 9772 15632 9781 L 15632 9781 C 15625 9790 15619 9799 15612 9808 L 15612 9808 C 15606 9817 15599 9826 15593 9836 L 15593 9836 C 15587 9845 15581 9855 15575 9864 L 15575 9864 C 15569 9873 15563 9883 15557 9893 C 15551 9903 15545 9912 15540 9922 L 15540 9922 C 15534 9932 15529 9942 15524 9952 L 15524 9952 C 15519 9962 15513 9972 15508 9982 L 15508 9982 C 15503 9992 15498 10002 15493 10012 C 15488 10022 15483 10032 15479 10043 C 15474 10053 15470 10064 15465 10074 L 15465 10074 C 15461 10084 15456 10095 15452 10106 C 15448 10117 15444 10127 15440 10138 L 15440 10138 C 15436 10149 15432 10160 15429 10170 C 15425 10181 15422 10192 15418 10203 L 15418 10203 C 15415 10214 15411 10225 15408 10236 L 15408 10236 C 15405 10247 15402 10258 15399 10269 C 15396 10280 15393 10291 15391 10303 C 15388 10314 15386 10326 15384 10337 L 15384 10337 C 15382 10348 15379 10360 15377 10371 C 15375 10382 15373 10394 15371 10406 C 15369 10418 15368 10429 15366 10441 L 15366 10441 C 15365 10453 15363 10464 15362 10476 C 15361 10488 15360 10500 15359 10511 L 15359 10511 C 15358 10523 15357 10535 15357 10547 C 15356 10559 15356 10571 15356 10583 C 15356 10595 15356 10607 15356 10619 L 15356 10626 L 16255 10626 L 16255 10619 C 16255 10345 16476 10123 16749 10123 Z"/>
  <path class="fil2" d="M 16708 8525 C 17860 8525 18794 9462 18794 10619 L 18794 10626 L 18299 10626 L 18299 10619 C 18299 9737 17587 9022 16708 9022 C 16002 9022 15404 9483 15196 10121 C 15137 9915 14825 9876 14703 10037 C 14954 9164 15757 8525 16708 8525 Z"/>
  <path class="fil3" d="M 16749 10348 C 16902 10348 17026 10472 17026 10626 C 17026 10626 16472 10626 16472 10626 C 16472 10473 16596 10348 16749 10348 Z" style="fill: rgb(0, 204, 255);"/>
</svg>